
<svg width="278" height="72" viewBox="0 0 278 72" fill="none" xmlns="http://www.w3.org/2000/svg">
<path d="M113.076 26.6953C113.076 28.5404 112.788 30.1738 112.213 31.5957C111.637 33.0176 110.799 34.2194 109.699 35.2012C108.599 36.166 107.245 36.9023 105.637 37.4102C104.046 37.918 102.167 38.1719 100 38.1719H97.2578V48.6582C97.2578 48.8275 97.1986 48.9798 97.0801 49.1152C96.9785 49.2507 96.8008 49.3607 96.5469 49.4453C96.293 49.5299 95.9544 49.5977 95.5312 49.6484C95.1081 49.6992 94.5664 49.7246 93.9062 49.7246C93.263 49.7246 92.7214 49.6992 92.2812 49.6484C91.8581 49.5977 91.5195 49.5299 91.2656 49.4453C91.0117 49.3607 90.834 49.2507 90.7324 49.1152C90.6309 48.9798 90.5801 48.8275 90.5801 48.6582V19.1035C90.5801 18.3079 90.7832 17.7155 91.1895 17.3262C91.6126 16.9199 92.1628 16.7168 92.8398 16.7168H100.584C101.363 16.7168 102.099 16.7507 102.793 16.8184C103.504 16.8691 104.35 16.9961 105.332 17.1992C106.314 17.3854 107.304 17.7409 108.303 18.2656C109.318 18.7904 110.182 19.459 110.893 20.2715C111.604 21.0671 112.145 22.0065 112.518 23.0898C112.89 24.1562 113.076 25.3581 113.076 26.6953ZM106.094 27.1777C106.094 26.0267 105.891 25.0788 105.484 24.334C105.078 23.5892 104.579 23.0391 103.986 22.6836C103.394 22.3281 102.768 22.1081 102.107 22.0234C101.464 21.9219 100.796 21.8711 100.102 21.8711H97.2578V33.0176H100.254C101.32 33.0176 102.209 32.8737 102.92 32.5859C103.648 32.2982 104.24 31.9004 104.697 31.3926C105.154 30.8678 105.501 30.25 105.738 29.5391C105.975 28.8112 106.094 28.0241 106.094 27.1777Z" fill="#333333"/>
<path d="M124.273 48.709C124.273 48.8783 124.223 49.0306 124.121 49.166C124.02 49.2845 123.842 49.3861 123.588 49.4707C123.351 49.5553 123.029 49.6146 122.623 49.6484C122.217 49.6992 121.701 49.7246 121.074 49.7246C120.448 49.7246 119.932 49.6992 119.525 49.6484C119.119 49.6146 118.789 49.5553 118.535 49.4707C118.298 49.3861 118.129 49.2845 118.027 49.166C117.926 49.0306 117.875 48.8783 117.875 48.709V15.3203C117.875 15.151 117.926 14.9987 118.027 14.8633C118.129 14.7279 118.298 14.6178 118.535 14.5332C118.789 14.4316 119.119 14.3555 119.525 14.3047C119.932 14.2539 120.448 14.2285 121.074 14.2285C121.701 14.2285 122.217 14.2539 122.623 14.3047C123.029 14.3555 123.351 14.4316 123.588 14.5332C123.842 14.6178 124.02 14.7279 124.121 14.8633C124.223 14.9987 124.273 15.151 124.273 15.3203V48.709Z" fill="#333333"/>
<path d="M152.152 48.709C152.152 48.8783 152.11 49.0306 152.025 49.166C151.941 49.2845 151.788 49.3861 151.568 49.4707C151.365 49.5553 151.086 49.6146 150.73 49.6484C150.392 49.6992 149.96 49.7246 149.436 49.7246C148.877 49.7246 148.42 49.6992 148.064 49.6484C147.726 49.6146 147.455 49.5553 147.252 49.4707C147.049 49.3861 146.905 49.2845 146.82 49.166C146.736 49.0306 146.693 48.8783 146.693 48.709V46.0938C145.441 47.4479 144.163 48.4635 142.859 49.1406C141.573 49.8177 140.236 50.1562 138.848 50.1562C137.29 50.1562 135.979 49.9023 134.912 49.3945C133.863 48.8867 133.008 48.1927 132.348 47.3125C131.704 46.4323 131.239 45.4167 130.951 44.2656C130.68 43.0977 130.545 41.6504 130.545 39.9238V26.0605C130.545 25.8913 130.587 25.7474 130.672 25.6289C130.773 25.4935 130.943 25.3835 131.18 25.2988C131.434 25.2142 131.764 25.1549 132.17 25.1211C132.593 25.0703 133.109 25.0449 133.719 25.0449C134.345 25.0449 134.861 25.0703 135.268 25.1211C135.674 25.1549 135.995 25.2142 136.232 25.2988C136.486 25.3835 136.664 25.4935 136.766 25.6289C136.867 25.7474 136.918 25.8913 136.918 26.0605V38.8574C136.918 40.0423 136.994 40.9479 137.146 41.5742C137.299 42.2005 137.527 42.7422 137.832 43.1992C138.154 43.6393 138.551 43.9863 139.025 44.2402C139.516 44.4772 140.083 44.5957 140.727 44.5957C141.539 44.5957 142.352 44.2995 143.164 43.707C143.993 43.1146 144.874 42.2513 145.805 41.1172V26.0605C145.805 25.8913 145.847 25.7474 145.932 25.6289C146.033 25.4935 146.202 25.3835 146.439 25.2988C146.693 25.2142 147.023 25.1549 147.43 25.1211C147.836 25.0703 148.352 25.0449 148.979 25.0449C149.605 25.0449 150.121 25.0703 150.527 25.1211C150.934 25.1549 151.255 25.2142 151.492 25.2988C151.729 25.3835 151.898 25.4935 152 25.6289C152.102 25.7474 152.152 25.8913 152.152 26.0605V48.709Z" fill="#333333"/>
<path d="M172.008 46.4746C172.008 47.2194 171.957 47.7949 171.855 48.2012C171.771 48.5905 171.652 48.8698 171.5 49.0391C171.348 49.1914 171.119 49.3353 170.814 49.4707C170.527 49.5892 170.18 49.6908 169.773 49.7754C169.384 49.877 168.952 49.9531 168.479 50.0039C168.021 50.0547 167.556 50.0801 167.082 50.0801C165.812 50.0801 164.712 49.9193 163.781 49.5977C162.85 49.276 162.08 48.7852 161.471 48.125C160.861 47.4479 160.413 46.6016 160.125 45.5859C159.837 44.5703 159.693 43.3685 159.693 41.9805V30.377H156.977C156.655 30.377 156.41 30.1823 156.24 29.793C156.071 29.3867 155.986 28.7181 155.986 27.7871C155.986 27.2962 156.003 26.8815 156.037 26.543C156.088 26.2044 156.156 25.9421 156.24 25.7559C156.325 25.5527 156.426 25.4089 156.545 25.3242C156.68 25.2396 156.833 25.1973 157.002 25.1973H159.693V20.1445C159.693 19.9753 159.736 19.8229 159.82 19.6875C159.922 19.5521 160.091 19.4421 160.328 19.3574C160.582 19.2559 160.912 19.1882 161.318 19.1543C161.742 19.1035 162.258 19.0781 162.867 19.0781C163.493 19.0781 164.01 19.1035 164.416 19.1543C164.839 19.1882 165.169 19.2559 165.406 19.3574C165.643 19.4421 165.812 19.5521 165.914 19.6875C166.016 19.8229 166.066 19.9753 166.066 20.1445V25.1973H170.992C171.161 25.1973 171.305 25.2396 171.424 25.3242C171.559 25.4089 171.669 25.5527 171.754 25.7559C171.839 25.9421 171.898 26.2044 171.932 26.543C171.982 26.8815 172.008 27.2962 172.008 27.7871C172.008 28.7181 171.923 29.3867 171.754 29.793C171.585 30.1823 171.339 30.377 171.018 30.377H166.066V41.0156C166.066 42.2513 166.261 43.1823 166.65 43.8086C167.04 44.418 167.734 44.7227 168.732 44.7227C169.071 44.7227 169.376 44.6973 169.646 44.6465C169.917 44.5788 170.154 44.5111 170.357 44.4434C170.577 44.3587 170.755 44.291 170.891 44.2402C171.043 44.1725 171.178 44.1387 171.297 44.1387C171.398 44.1387 171.492 44.1725 171.576 44.2402C171.678 44.291 171.754 44.4095 171.805 44.5957C171.855 44.765 171.898 45.002 171.932 45.3066C171.982 45.6113 172.008 46.0007 172.008 46.4746Z" fill="#333333"/>
<path d="M199.023 37.1562C199.023 39.0859 198.77 40.8464 198.262 42.4375C197.754 44.0286 196.984 45.3997 195.951 46.5508C194.919 47.7018 193.624 48.5905 192.066 49.2168C190.509 49.8431 188.689 50.1562 186.607 50.1562C184.593 50.1562 182.841 49.877 181.352 49.3184C179.862 48.7598 178.626 47.9473 177.645 46.8809C176.663 45.8145 175.935 44.5026 175.461 42.9453C174.987 41.388 174.75 39.6107 174.75 37.6133C174.75 35.6836 175.004 33.9232 175.512 32.332C176.036 30.724 176.815 29.3529 177.848 28.2188C178.88 27.0677 180.167 26.179 181.707 25.5527C183.264 24.9264 185.084 24.6133 187.166 24.6133C189.197 24.6133 190.958 24.8926 192.447 25.4512C193.937 25.9928 195.164 26.7969 196.129 27.8633C197.111 28.9297 197.839 30.2415 198.312 31.7988C198.786 33.3561 199.023 35.1419 199.023 37.1562ZM192.447 37.4102C192.447 36.293 192.354 35.2689 192.168 34.3379C191.999 33.39 191.702 32.569 191.279 31.875C190.856 31.181 190.289 30.6393 189.578 30.25C188.884 29.8607 188.004 29.666 186.938 29.666C185.99 29.666 185.16 29.8438 184.449 30.1992C183.738 30.5378 183.154 31.0456 182.697 31.7227C182.24 32.3828 181.893 33.1868 181.656 34.1348C181.436 35.0658 181.326 36.1322 181.326 37.334C181.326 38.4512 181.419 39.4837 181.605 40.4316C181.792 41.3626 182.088 42.1751 182.494 42.8691C182.917 43.5632 183.484 44.1048 184.195 44.4941C184.906 44.8665 185.786 45.0527 186.836 45.0527C187.801 45.0527 188.639 44.8835 189.35 44.5449C190.061 44.1895 190.645 43.6816 191.102 43.0215C191.559 42.3613 191.897 41.5658 192.117 40.6348C192.337 39.6868 192.447 38.612 192.447 37.4102Z" fill="#333333"/>
<path d="M226.902 37.0801C226.902 39.0944 226.682 40.9056 226.242 42.5137C225.802 44.1217 225.167 45.4928 224.338 46.627C223.508 47.7611 222.484 48.6328 221.266 49.2422C220.064 49.8516 218.693 50.1562 217.152 50.1562C216.391 50.1562 215.68 50.0801 215.02 49.9277C214.359 49.7923 213.725 49.5638 213.115 49.2422C212.523 48.9206 211.93 48.5143 211.338 48.0234C210.762 47.5326 210.17 46.9401 209.561 46.2461V48.709C209.561 48.8952 209.51 49.056 209.408 49.1914C209.324 49.3099 209.171 49.4115 208.951 49.4961C208.748 49.5807 208.469 49.64 208.113 49.6738C207.758 49.7077 207.326 49.7246 206.818 49.7246C206.294 49.7246 205.854 49.7077 205.498 49.6738C205.16 49.64 204.88 49.5807 204.66 49.4961C204.457 49.4115 204.313 49.3099 204.229 49.1914C204.144 49.056 204.102 48.8952 204.102 48.709V15.3203C204.102 15.151 204.152 14.9987 204.254 14.8633C204.355 14.7279 204.525 14.6178 204.762 14.5332C205.016 14.4316 205.346 14.3555 205.752 14.3047C206.158 14.2539 206.674 14.2285 207.301 14.2285C207.927 14.2285 208.443 14.2539 208.85 14.3047C209.256 14.3555 209.577 14.4316 209.814 14.5332C210.068 14.6178 210.246 14.7279 210.348 14.8633C210.449 14.9987 210.5 15.151 210.5 15.3203V27.8379C211.076 27.2624 211.651 26.7715 212.227 26.3652C212.802 25.959 213.378 25.6289 213.953 25.375C214.529 25.1042 215.121 24.9095 215.73 24.791C216.34 24.6725 216.983 24.6133 217.66 24.6133C219.336 24.6133 220.758 24.9518 221.926 25.6289C223.094 26.2891 224.042 27.1862 224.77 28.3203C225.514 29.4544 226.056 30.7832 226.395 32.3066C226.733 33.8132 226.902 35.4043 226.902 37.0801ZM220.275 37.5371C220.275 36.5723 220.199 35.6413 220.047 34.7441C219.911 33.847 219.666 33.0514 219.311 32.3574C218.955 31.6634 218.49 31.1133 217.914 30.707C217.355 30.2839 216.645 30.0723 215.781 30.0723C215.358 30.0723 214.943 30.1315 214.537 30.25C214.131 30.3685 213.708 30.5716 213.268 30.8594C212.844 31.1471 212.404 31.5195 211.947 31.9766C211.49 32.4336 211.008 33.0007 210.5 33.6777V41.1934C211.397 42.3444 212.252 43.2246 213.064 43.834C213.894 44.4264 214.757 44.7227 215.654 44.7227C216.484 44.7227 217.186 44.5111 217.762 44.0879C218.337 43.6647 218.811 43.1146 219.184 42.4375C219.573 41.7604 219.852 40.9902 220.021 40.127C220.191 39.2637 220.275 38.4004 220.275 37.5371Z" fill="#333333"/>
<path d="M251.328 48.7852C251.328 49.0221 251.243 49.2083 251.074 49.3438C250.905 49.4792 250.634 49.5723 250.262 49.623C249.906 49.6908 249.373 49.7246 248.662 49.7246C247.9 49.7246 247.342 49.6908 246.986 49.623C246.648 49.5723 246.402 49.4792 246.25 49.3438C246.115 49.2083 246.047 49.0221 246.047 48.7852V46.9824C245.116 47.9811 244.049 48.7598 242.848 49.3184C241.663 49.877 240.342 50.1562 238.887 50.1562C237.685 50.1562 236.576 49.9954 235.561 49.6738C234.562 49.3691 233.69 48.9121 232.945 48.3027C232.217 47.6764 231.65 46.9062 231.244 45.9922C230.838 45.0781 230.635 44.0117 230.635 42.793C230.635 41.4727 230.889 40.3301 231.396 39.3652C231.921 38.3835 232.691 37.5794 233.707 36.9531C234.74 36.3099 236.018 35.8359 237.541 35.5312C239.064 35.2266 240.833 35.0742 242.848 35.0742H245.057V33.7031C245.057 32.9922 244.98 32.3743 244.828 31.8496C244.693 31.3079 244.456 30.8594 244.117 30.5039C243.796 30.1484 243.355 29.8861 242.797 29.7168C242.255 29.5475 241.578 29.4629 240.766 29.4629C239.699 29.4629 238.743 29.5814 237.896 29.8184C237.067 30.0553 236.331 30.3177 235.688 30.6055C235.044 30.8932 234.503 31.1556 234.062 31.3926C233.639 31.6296 233.292 31.748 233.021 31.748C232.835 31.748 232.666 31.6888 232.514 31.5703C232.378 31.4518 232.26 31.2826 232.158 31.0625C232.074 30.8424 232.006 30.5716 231.955 30.25C231.904 29.9284 231.879 29.5729 231.879 29.1836C231.879 28.6589 231.921 28.2441 232.006 27.9395C232.09 27.6348 232.251 27.3639 232.488 27.127C232.725 26.873 233.14 26.6022 233.732 26.3145C234.325 26.0098 235.019 25.7305 235.814 25.4766C236.61 25.2227 237.473 25.0195 238.404 24.8672C239.352 24.6979 240.326 24.6133 241.324 24.6133C243.102 24.6133 244.617 24.791 245.869 25.1465C247.139 25.485 248.18 26.0182 248.992 26.7461C249.805 27.457 250.397 28.3796 250.77 29.5137C251.142 30.6478 251.328 31.9935 251.328 33.5508V48.7852ZM245.057 39.0859H242.619C241.587 39.0859 240.706 39.1621 239.979 39.3145C239.251 39.4668 238.658 39.6953 238.201 40C237.744 40.3047 237.406 40.6771 237.186 41.1172C236.982 41.5404 236.881 42.0312 236.881 42.5898C236.881 43.5378 237.177 44.2826 237.77 44.8242C238.379 45.3659 239.217 45.6367 240.283 45.6367C241.18 45.6367 242.001 45.4082 242.746 44.9512C243.508 44.4941 244.278 43.8255 245.057 42.9453V39.0859Z" fill="#333333"/>
<path d="M269.889 49.5723L267.146 57.5957C266.994 58.0189 266.579 58.3236 265.902 58.5098C265.225 58.696 264.235 58.7891 262.932 58.7891C262.255 58.7891 261.713 58.7552 261.307 58.6875C260.9 58.6367 260.596 58.5436 260.393 58.4082C260.189 58.2728 260.079 58.1035 260.062 57.9004C260.046 57.6973 260.096 57.4518 260.215 57.1641L263.236 49.5723C263.016 49.4707 262.813 49.3184 262.627 49.1152C262.458 48.8952 262.331 48.6667 262.246 48.4297L254.451 27.6094C254.231 27.0169 254.121 26.5684 254.121 26.2637C254.121 25.9421 254.223 25.6966 254.426 25.5273C254.629 25.3411 254.967 25.2142 255.441 25.1465C255.932 25.0788 256.576 25.0449 257.371 25.0449C258.099 25.0449 258.674 25.0618 259.098 25.0957C259.521 25.1126 259.851 25.1719 260.088 25.2734C260.325 25.375 260.503 25.5358 260.621 25.7559C260.74 25.959 260.858 26.2552 260.977 26.6445L266.309 41.8027H266.385L271.26 26.3398C271.361 25.8997 271.488 25.612 271.641 25.4766C271.81 25.3242 272.081 25.2142 272.453 25.1465C272.826 25.0788 273.477 25.0449 274.408 25.0449C275.136 25.0449 275.737 25.0788 276.211 25.1465C276.702 25.2142 277.057 25.3411 277.277 25.5273C277.514 25.7135 277.633 25.9674 277.633 26.2891C277.633 26.5938 277.565 26.9577 277.43 27.3809L269.889 49.5723Z" fill="#333333"/>
<path fill-rule="evenodd" clip-rule="evenodd" d="M60.2107 57.6085C65.0684 51.9277 68 44.5602 68 36.5C68 18.5507 53.4492 4 35.5 4C19.9096 4 6.87971 14.9811 3.72879 29.631C3.97614 29.931 4.2753 30.2902 4.62288 30.7015C5.76257 32.0504 7.41805 33.9551 9.4703 36.171C13.5848 40.6137 19.2476 46.2571 25.5126 51.1807C31.8267 56.1429 38.511 60.1796 44.6776 61.695C50.6468 63.1618 55.9008 62.2499 60.2107 57.6085ZM62.4514 59.6041C41.5521 82.2413 0.548025 30.5192 0.519043 30.4301C3.39898 13.7161 17.9635 1 35.5 1C55.1061 1 71 16.8939 71 36.5C71 45.3238 67.7795 53.3947 62.4514 59.6041Z" fill="#194185"/>
<path d="M41.1298 29.1625C41.1298 22.4704 43.1599 16.2523 46.638 11.0908C46.638 11.0908 10.7777 14.6679 0.234741 40.5795C0.235019 40.5824 0.235435 40.5852 0.235851 40.588C0.249163 40.6082 0.309347 40.6995 0.418759 40.8534C2.25117 43.4328 19.9225 72.416 58.3899 63.6323C59.8488 62.4001 61.2079 61.0532 62.4514 59.6041C50.0139 55.085 41.1298 43.1616 41.1298 29.1625Z" fill="#64B6EC"/>
<path d="M41.5129 24.1702C42.2537 19.3834 44.0424 14.9428 46.6381 11.0908C46.6381 11.0908 10.7778 14.6679 0.234863 40.5795C0.235141 40.5825 0.235557 40.5852 0.235973 40.588C0.249285 40.6082 0.309469 40.6995 0.418881 40.8534C1.09421 41.8039 3.92118 46.3407 9.14703 51.2515C12.7417 36.3463 25.7398 25.1097 41.5129 24.1702Z" fill="#4B9FDB"/>
<path d="M38.1615 66.3906C26.9714 55.3712 23.8346 37.9045 31.6037 23.3429C35.1438 16.7077 40.446 11.6165 46.6249 8.33887C46.6249 8.33887 12.2566 14.3904 0.234863 40.5799C0.992428 47.1989 3.5702 53.2644 7.45481 58.2638C7.53108 58.3195 18.6472 66.4045 38.1615 66.3906Z" fill="#4B9FDB"/>
<path d="M29.9667 26.841C30.4455 25.66 30.9903 24.4923 31.6037 23.3429C35.1438 16.7077 40.446 11.6165 46.6249 8.33887C46.6249 8.33887 12.2566 14.3904 0.234863 40.5799C0.992428 47.1989 3.5702 53.2644 7.45481 58.2638C7.46577 58.2718 7.70664 58.4468 8.16703 58.7393C8.51066 44.3572 17.408 32.0946 29.9667 26.841Z" fill="#3188CA"/>
<path d="M35.51 51.9702C32.4144 47.4143 30.9204 42.242 30.9007 37.1191C30.9007 37.1191 11.4004 40.5951 10.6693 61.8676L31.5278 71.7775C32.8321 71.9229 34.1569 72.0001 35.5 72.0001C44.2231 72.0001 52.2096 68.8521 58.3901 63.6325C49.582 63.9006 40.8293 59.7989 35.51 51.9702Z" fill="#A1DDFB"/>
<path d="M10.6715 61.8687C16.2527 54.9035 24.4035 50.0875 33.6877 48.8591C31.8254 45.1252 30.9161 41.1072 30.9007 37.1191C30.9007 37.1191 11.4004 40.5951 10.6693 61.8676L10.6715 61.8687Z" fill="#7DCFFF"/>
<path d="M23.4914 50.8516C23.8625 45.356 25.8745 40.3623 29.0168 36.3164C29.0168 36.3164 9.73629 41.5191 10.6693 61.8671C16.1816 67.2637 23.4447 70.8772 31.5282 71.7773C26.1039 66.5112 22.9422 58.9852 23.4914 50.8516Z" fill="#7DCFFF"/>
<path d="M10.6711 61.8689C14.0795 57.615 18.4464 54.1632 23.445 51.8402C23.4551 51.5115 23.4691 51.1823 23.4914 50.8516C23.8625 45.356 25.8745 40.3623 29.0168 36.3164C29.0168 36.3164 9.73629 41.5191 10.6693 61.8671C10.6698 61.8678 10.6704 61.8684 10.6711 61.8689Z" fill="#64B6EC"/>
<path d="M64.2051 8.48844C63.6504 10.3837 49.6445 9.73649 49.6445 12.5099C49.6445 15.2834 60.0449 18.0568 57.4102 20.9689C54.7754 23.881 45.7617 13.0646 21.0781 22.4943C9.6793 26.85 2.98838 36.0134 0.232969 40.584C0.079043 39.2445 0 37.8813 0 36.5002C0 34.4298 0.1775 32.401 0.518633 30.4291C3.54861 25.2913 10.8788 15.4636 25.5156 8.48844C33.2688 4.79423 40.807 3.22724 47.1415 2.95405C57.6889 2.49921 65.0316 5.66467 64.2051 8.48844Z" fill="url(#paint0_linear_739_24764)"/>
<path d="M18.5359 35.4368C9.97176 41.8424 7.80556 53.0166 7.45361 58.2632C8.44331 59.5369 9.51844 60.7407 10.6693 61.8676C11.541 58.7401 14.0276 51.0937 18.5359 46.5855C26.5964 38.5249 38.985 45.4684 40.7234 42.8328C42.4798 40.1696 35.5 37.6556 35.5 37.6556C35.5 37.6556 46.8249 37.1009 47.1946 33.4954C47.5645 29.89 29.9397 26.9073 18.5359 35.4368Z" fill="#A1DDFB"/>
<path d="M33.6877 12.1729C28.5473 10.7264 28.4277 5.43772 47.1415 2.9541C40.807 3.22729 33.2688 4.79428 25.5156 8.4885C10.8788 15.4637 3.54861 25.2914 0.518633 30.4292C0.1775 32.4011 0 34.4298 0 36.5002C0 37.8814 0.079043 39.2445 0.232969 40.5841C2.98838 36.0135 9.6793 26.85 21.0781 22.4944C21.0781 22.4944 38.8281 13.6194 33.6877 12.1729Z" fill="#194185"/>
<path d="M28.605 30.8447C25.1126 31.6855 21.5997 33.1452 18.5357 35.4368C9.97176 41.8424 7.80556 53.0166 7.45361 58.2632C8.44331 59.5369 9.51844 60.7407 10.6693 61.8676C11.541 58.7401 14.0276 51.0937 18.5359 46.5855C18.9549 46.1664 19.3863 45.7899 19.8269 45.4485L19.8267 45.4466C19.8267 45.4466 26.7638 38.996 23.0197 38.1877C19.2765 37.3795 22.8096 32.3428 28.605 30.8447Z" fill="#7DCFFF"/>
<defs>
<linearGradient id="paint0_linear_739_24764" x1="3.30794" y1="10.4881" x2="61.4831" y2="38.8027" gradientUnits="userSpaceOnUse">
<stop stop-color="#194185"/>
<stop offset="1" stop-color="#038AE4"/>
</linearGradient>
</defs>
</svg>
