
<svg width="279" height="71" viewBox="0 0 279 71" fill="none" xmlns="http://www.w3.org/2000/svg">
<path d="M113.709 26.123C113.709 27.9681 113.421 29.6016 112.846 31.0234C112.27 32.4453 111.432 33.6471 110.332 34.6289C109.232 35.5938 107.878 36.3301 106.27 36.8379C104.678 37.3457 102.799 37.5996 100.633 37.5996H97.8906V48.0859C97.8906 48.2552 97.8314 48.4076 97.7129 48.543C97.6113 48.6784 97.4336 48.7884 97.1797 48.873C96.9258 48.9577 96.5872 49.0254 96.1641 49.0762C95.7409 49.127 95.1992 49.1523 94.5391 49.1523C93.8958 49.1523 93.3542 49.127 92.9141 49.0762C92.4909 49.0254 92.1523 48.9577 91.8984 48.873C91.6445 48.7884 91.4668 48.6784 91.3652 48.543C91.2637 48.4076 91.2129 48.2552 91.2129 48.0859V18.5312C91.2129 17.7357 91.416 17.1432 91.8223 16.7539C92.2454 16.3477 92.7956 16.1445 93.4727 16.1445H101.217C101.995 16.1445 102.732 16.1784 103.426 16.2461C104.137 16.2969 104.983 16.4238 105.965 16.627C106.947 16.8132 107.937 17.1686 108.936 17.6934C109.951 18.2181 110.814 18.8867 111.525 19.6992C112.236 20.4948 112.778 21.4342 113.15 22.5176C113.523 23.584 113.709 24.7858 113.709 26.123ZM106.727 26.6055C106.727 25.4544 106.523 24.5065 106.117 23.7617C105.711 23.0169 105.212 22.4668 104.619 22.1113C104.027 21.7559 103.4 21.5358 102.74 21.4512C102.097 21.3496 101.428 21.2988 100.734 21.2988H97.8906V32.4453H100.887C101.953 32.4453 102.842 32.3014 103.553 32.0137C104.281 31.7259 104.873 31.3281 105.33 30.8203C105.787 30.2956 106.134 29.6777 106.371 28.9668C106.608 28.2389 106.727 27.4518 106.727 26.6055Z" fill="white"/>
<path d="M124.906 48.1367C124.906 48.306 124.855 48.4583 124.754 48.5938C124.652 48.7122 124.475 48.8138 124.221 48.8984C123.984 48.9831 123.662 49.0423 123.256 49.0762C122.85 49.127 122.333 49.1523 121.707 49.1523C121.081 49.1523 120.564 49.127 120.158 49.0762C119.752 49.0423 119.422 48.9831 119.168 48.8984C118.931 48.8138 118.762 48.7122 118.66 48.5938C118.559 48.4583 118.508 48.306 118.508 48.1367V14.748C118.508 14.5788 118.559 14.4264 118.66 14.291C118.762 14.1556 118.931 14.0456 119.168 13.9609C119.422 13.8594 119.752 13.7832 120.158 13.7324C120.564 13.6816 121.081 13.6562 121.707 13.6562C122.333 13.6562 122.85 13.6816 123.256 13.7324C123.662 13.7832 123.984 13.8594 124.221 13.9609C124.475 14.0456 124.652 14.1556 124.754 14.291C124.855 14.4264 124.906 14.5788 124.906 14.748V48.1367Z" fill="white"/>
<path d="M152.785 48.1367C152.785 48.306 152.743 48.4583 152.658 48.5938C152.574 48.7122 152.421 48.8138 152.201 48.8984C151.998 48.9831 151.719 49.0423 151.363 49.0762C151.025 49.127 150.593 49.1523 150.068 49.1523C149.51 49.1523 149.053 49.127 148.697 49.0762C148.359 49.0423 148.088 48.9831 147.885 48.8984C147.682 48.8138 147.538 48.7122 147.453 48.5938C147.368 48.4583 147.326 48.306 147.326 48.1367V45.5215C146.074 46.8757 144.796 47.8913 143.492 48.5684C142.206 49.2454 140.868 49.584 139.48 49.584C137.923 49.584 136.611 49.3301 135.545 48.8223C134.495 48.3145 133.641 47.6204 132.98 46.7402C132.337 45.86 131.872 44.8444 131.584 43.6934C131.313 42.5254 131.178 41.0781 131.178 39.3516V25.4883C131.178 25.319 131.22 25.1751 131.305 25.0566C131.406 24.9212 131.576 24.8112 131.812 24.7266C132.066 24.6419 132.396 24.5827 132.803 24.5488C133.226 24.498 133.742 24.4727 134.352 24.4727C134.978 24.4727 135.494 24.498 135.9 24.5488C136.307 24.5827 136.628 24.6419 136.865 24.7266C137.119 24.8112 137.297 24.9212 137.398 25.0566C137.5 25.1751 137.551 25.319 137.551 25.4883V38.2852C137.551 39.4701 137.627 40.3757 137.779 41.002C137.932 41.6283 138.16 42.1699 138.465 42.627C138.786 43.0671 139.184 43.4141 139.658 43.668C140.149 43.9049 140.716 44.0234 141.359 44.0234C142.172 44.0234 142.984 43.7272 143.797 43.1348C144.626 42.5423 145.507 41.679 146.438 40.5449V25.4883C146.438 25.319 146.48 25.1751 146.564 25.0566C146.666 24.9212 146.835 24.8112 147.072 24.7266C147.326 24.6419 147.656 24.5827 148.062 24.5488C148.469 24.498 148.985 24.4727 149.611 24.4727C150.238 24.4727 150.754 24.498 151.16 24.5488C151.566 24.5827 151.888 24.6419 152.125 24.7266C152.362 24.8112 152.531 24.9212 152.633 25.0566C152.734 25.1751 152.785 25.319 152.785 25.4883V48.1367Z" fill="white"/>
<path d="M172.641 45.9023C172.641 46.6471 172.59 47.2227 172.488 47.6289C172.404 48.0182 172.285 48.2975 172.133 48.4668C171.98 48.6191 171.752 48.763 171.447 48.8984C171.16 49.0169 170.812 49.1185 170.406 49.2031C170.017 49.3047 169.585 49.3809 169.111 49.4316C168.654 49.4824 168.189 49.5078 167.715 49.5078C166.445 49.5078 165.345 49.347 164.414 49.0254C163.483 48.7038 162.713 48.2129 162.104 47.5527C161.494 46.8757 161.046 46.0293 160.758 45.0137C160.47 43.998 160.326 42.7962 160.326 41.4082V29.8047H157.609C157.288 29.8047 157.042 29.61 156.873 29.2207C156.704 28.8145 156.619 28.1458 156.619 27.2148C156.619 26.724 156.636 26.3092 156.67 25.9707C156.721 25.6322 156.788 25.3698 156.873 25.1836C156.958 24.9805 157.059 24.8366 157.178 24.752C157.313 24.6673 157.465 24.625 157.635 24.625H160.326V19.5723C160.326 19.403 160.368 19.2507 160.453 19.1152C160.555 18.9798 160.724 18.8698 160.961 18.7852C161.215 18.6836 161.545 18.6159 161.951 18.582C162.374 18.5312 162.891 18.5059 163.5 18.5059C164.126 18.5059 164.643 18.5312 165.049 18.582C165.472 18.6159 165.802 18.6836 166.039 18.7852C166.276 18.8698 166.445 18.9798 166.547 19.1152C166.648 19.2507 166.699 19.403 166.699 19.5723V24.625H171.625C171.794 24.625 171.938 24.6673 172.057 24.752C172.192 24.8366 172.302 24.9805 172.387 25.1836C172.471 25.3698 172.531 25.6322 172.564 25.9707C172.615 26.3092 172.641 26.724 172.641 27.2148C172.641 28.1458 172.556 28.8145 172.387 29.2207C172.217 29.61 171.972 29.8047 171.65 29.8047H166.699V40.4434C166.699 41.679 166.894 42.61 167.283 43.2363C167.673 43.8457 168.367 44.1504 169.365 44.1504C169.704 44.1504 170.008 44.125 170.279 44.0742C170.55 44.0065 170.787 43.9388 170.99 43.8711C171.21 43.7865 171.388 43.7188 171.523 43.668C171.676 43.6003 171.811 43.5664 171.93 43.5664C172.031 43.5664 172.124 43.6003 172.209 43.668C172.311 43.7188 172.387 43.8372 172.438 44.0234C172.488 44.1927 172.531 44.4297 172.564 44.7344C172.615 45.0391 172.641 45.4284 172.641 45.9023Z" fill="white"/>
<path d="M199.656 36.584C199.656 38.5137 199.402 40.2741 198.895 41.8652C198.387 43.4564 197.617 44.8275 196.584 45.9785C195.551 47.1296 194.257 48.0182 192.699 48.6445C191.142 49.2708 189.322 49.584 187.24 49.584C185.226 49.584 183.474 49.3047 181.984 48.7461C180.495 48.1875 179.259 47.375 178.277 46.3086C177.296 45.2422 176.568 43.9303 176.094 42.373C175.62 40.8158 175.383 39.0384 175.383 37.041C175.383 35.1113 175.637 33.3509 176.145 31.7598C176.669 30.1517 177.448 28.7806 178.48 27.6465C179.513 26.4954 180.799 25.6068 182.34 24.9805C183.897 24.3542 185.717 24.041 187.799 24.041C189.83 24.041 191.59 24.3203 193.08 24.8789C194.57 25.4206 195.797 26.2246 196.762 27.291C197.743 28.3574 198.471 29.6693 198.945 31.2266C199.419 32.7839 199.656 34.5697 199.656 36.584ZM193.08 36.8379C193.08 35.7207 192.987 34.6966 192.801 33.7656C192.632 32.8177 192.335 31.9967 191.912 31.3027C191.489 30.6087 190.922 30.0671 190.211 29.6777C189.517 29.2884 188.637 29.0938 187.57 29.0938C186.622 29.0938 185.793 29.2715 185.082 29.627C184.371 29.9655 183.787 30.4733 183.33 31.1504C182.873 31.8105 182.526 32.6146 182.289 33.5625C182.069 34.4935 181.959 35.5599 181.959 36.7617C181.959 37.8789 182.052 38.9115 182.238 39.8594C182.424 40.7904 182.721 41.6029 183.127 42.2969C183.55 42.9909 184.117 43.5326 184.828 43.9219C185.539 44.2943 186.419 44.4805 187.469 44.4805C188.434 44.4805 189.271 44.3112 189.982 43.9727C190.693 43.6172 191.277 43.1094 191.734 42.4492C192.191 41.7891 192.53 40.9935 192.75 40.0625C192.97 39.1146 193.08 38.0397 193.08 36.8379Z" fill="white"/>
<path d="M227.535 36.5078C227.535 38.5221 227.315 40.3333 226.875 41.9414C226.435 43.5495 225.8 44.9206 224.971 46.0547C224.141 47.1888 223.117 48.0605 221.898 48.6699C220.697 49.2793 219.326 49.584 217.785 49.584C217.023 49.584 216.312 49.5078 215.652 49.3555C214.992 49.2201 214.357 48.9915 213.748 48.6699C213.156 48.3483 212.563 47.9421 211.971 47.4512C211.395 46.9603 210.803 46.3678 210.193 45.6738V48.1367C210.193 48.3229 210.143 48.4837 210.041 48.6191C209.956 48.7376 209.804 48.8392 209.584 48.9238C209.381 49.0085 209.102 49.0677 208.746 49.1016C208.391 49.1354 207.959 49.1523 207.451 49.1523C206.926 49.1523 206.486 49.1354 206.131 49.1016C205.792 49.0677 205.513 49.0085 205.293 48.9238C205.09 48.8392 204.946 48.7376 204.861 48.6191C204.777 48.4837 204.734 48.3229 204.734 48.1367V14.748C204.734 14.5788 204.785 14.4264 204.887 14.291C204.988 14.1556 205.158 14.0456 205.395 13.9609C205.648 13.8594 205.979 13.7832 206.385 13.7324C206.791 13.6816 207.307 13.6562 207.934 13.6562C208.56 13.6562 209.076 13.6816 209.482 13.7324C209.889 13.7832 210.21 13.8594 210.447 13.9609C210.701 14.0456 210.879 14.1556 210.98 14.291C211.082 14.4264 211.133 14.5788 211.133 14.748V27.2656C211.708 26.6901 212.284 26.1992 212.859 25.793C213.435 25.3867 214.01 25.0566 214.586 24.8027C215.161 24.5319 215.754 24.3372 216.363 24.2188C216.973 24.1003 217.616 24.041 218.293 24.041C219.969 24.041 221.391 24.3796 222.559 25.0566C223.727 25.7168 224.674 26.6139 225.402 27.748C226.147 28.8822 226.689 30.2109 227.027 31.7344C227.366 33.2409 227.535 34.832 227.535 36.5078ZM220.908 36.9648C220.908 36 220.832 35.069 220.68 34.1719C220.544 33.2747 220.299 32.4792 219.943 31.7852C219.588 31.0911 219.122 30.541 218.547 30.1348C217.988 29.7116 217.277 29.5 216.414 29.5C215.991 29.5 215.576 29.5592 215.17 29.6777C214.764 29.7962 214.34 29.9993 213.9 30.2871C213.477 30.5749 213.037 30.9473 212.58 31.4043C212.123 31.8613 211.641 32.4284 211.133 33.1055V40.6211C212.03 41.7721 212.885 42.6523 213.697 43.2617C214.527 43.8542 215.39 44.1504 216.287 44.1504C217.117 44.1504 217.819 43.9388 218.395 43.5156C218.97 43.0924 219.444 42.5423 219.816 41.8652C220.206 41.1882 220.485 40.418 220.654 39.5547C220.824 38.6914 220.908 37.8281 220.908 36.9648Z" fill="white"/>
<path d="M251.961 48.2129C251.961 48.4499 251.876 48.6361 251.707 48.7715C251.538 48.9069 251.267 49 250.895 49.0508C250.539 49.1185 250.006 49.1523 249.295 49.1523C248.533 49.1523 247.975 49.1185 247.619 49.0508C247.281 49 247.035 48.9069 246.883 48.7715C246.747 48.6361 246.68 48.4499 246.68 48.2129V46.4102C245.749 47.4089 244.682 48.1875 243.48 48.7461C242.296 49.3047 240.975 49.584 239.52 49.584C238.318 49.584 237.209 49.4232 236.193 49.1016C235.195 48.7969 234.323 48.3398 233.578 47.7305C232.85 47.1042 232.283 46.334 231.877 45.4199C231.471 44.5059 231.268 43.4395 231.268 42.2207C231.268 40.9004 231.521 39.7578 232.029 38.793C232.554 37.8112 233.324 37.0072 234.34 36.3809C235.372 35.7376 236.65 35.2637 238.174 34.959C239.697 34.6543 241.466 34.502 243.48 34.502H245.689V33.1309C245.689 32.4199 245.613 31.8021 245.461 31.2773C245.326 30.7357 245.089 30.2871 244.75 29.9316C244.428 29.5762 243.988 29.3138 243.43 29.1445C242.888 28.9753 242.211 28.8906 241.398 28.8906C240.332 28.8906 239.376 29.0091 238.529 29.2461C237.7 29.4831 236.964 29.7454 236.32 30.0332C235.677 30.321 235.135 30.5833 234.695 30.8203C234.272 31.0573 233.925 31.1758 233.654 31.1758C233.468 31.1758 233.299 31.1165 233.146 30.998C233.011 30.8796 232.893 30.7103 232.791 30.4902C232.706 30.2702 232.639 29.9993 232.588 29.6777C232.537 29.3561 232.512 29.0007 232.512 28.6113C232.512 28.0866 232.554 27.6719 232.639 27.3672C232.723 27.0625 232.884 26.7917 233.121 26.5547C233.358 26.3008 233.773 26.0299 234.365 25.7422C234.958 25.4375 235.652 25.1582 236.447 24.9043C237.243 24.6504 238.106 24.4473 239.037 24.2949C239.985 24.1257 240.958 24.041 241.957 24.041C243.734 24.041 245.249 24.2188 246.502 24.5742C247.771 24.9128 248.812 25.446 249.625 26.1738C250.438 26.8848 251.03 27.8073 251.402 28.9414C251.775 30.0755 251.961 31.4212 251.961 32.9785V48.2129ZM245.689 38.5137H243.252C242.219 38.5137 241.339 38.5898 240.611 38.7422C239.883 38.8945 239.291 39.123 238.834 39.4277C238.377 39.7324 238.038 40.1048 237.818 40.5449C237.615 40.9681 237.514 41.459 237.514 42.0176C237.514 42.9655 237.81 43.7103 238.402 44.252C239.012 44.7936 239.85 45.0645 240.916 45.0645C241.813 45.0645 242.634 44.8359 243.379 44.3789C244.141 43.9219 244.911 43.2533 245.689 42.373V38.5137Z" fill="white"/>
<path d="M270.521 49L267.779 57.0234C267.627 57.4466 267.212 57.7513 266.535 57.9375C265.858 58.1237 264.868 58.2168 263.564 58.2168C262.887 58.2168 262.346 58.1829 261.939 58.1152C261.533 58.0645 261.229 57.9714 261.025 57.8359C260.822 57.7005 260.712 57.5312 260.695 57.3281C260.678 57.125 260.729 56.8796 260.848 56.5918L263.869 49C263.649 48.8984 263.446 48.7461 263.26 48.543C263.09 48.3229 262.964 48.0944 262.879 47.8574L255.084 27.0371C254.864 26.4447 254.754 25.9961 254.754 25.6914C254.754 25.3698 254.855 25.1243 255.059 24.9551C255.262 24.7689 255.6 24.6419 256.074 24.5742C256.565 24.5065 257.208 24.4727 258.004 24.4727C258.732 24.4727 259.307 24.4896 259.73 24.5234C260.154 24.5404 260.484 24.5996 260.721 24.7012C260.958 24.8027 261.135 24.9635 261.254 25.1836C261.372 25.3867 261.491 25.6829 261.609 26.0723L266.941 41.2305H267.018L271.893 25.7676C271.994 25.3275 272.121 25.0397 272.273 24.9043C272.443 24.752 272.714 24.6419 273.086 24.5742C273.458 24.5065 274.11 24.4727 275.041 24.4727C275.769 24.4727 276.37 24.5065 276.844 24.5742C277.335 24.6419 277.69 24.7689 277.91 24.9551C278.147 25.1413 278.266 25.3952 278.266 25.7168C278.266 26.0215 278.198 26.3854 278.062 26.8086L270.521 49Z" fill="white"/>
<path fill-rule="evenodd" clip-rule="evenodd" d="M61.2107 56.6085C66.0684 50.9277 69 43.5602 69 35.5C69 17.5507 54.4492 3 36.5 3C20.9096 3 7.87971 13.9811 4.72879 28.631C4.97614 28.931 5.2753 29.2902 5.62288 29.7015C6.76257 31.0504 8.41805 32.9551 10.4703 35.171C14.5848 39.6137 20.2476 45.2571 26.5126 50.1807C32.8267 55.1429 39.511 59.1796 45.6776 60.695C51.6468 62.1618 56.9008 61.2499 61.2107 56.6085ZM63.4514 58.6041C42.5521 81.2413 1.54803 29.5192 1.51904 29.4301C4.39898 12.7161 18.9635 0 36.5 0C56.1061 0 72 15.8939 72 35.5C72 44.3238 68.7795 52.3947 63.4514 58.6041Z" fill="#0048C1"/>
<path d="M42.1298 28.1625C42.1298 21.4704 44.1599 15.2523 47.638 10.0908C47.638 10.0908 11.7777 13.6679 1.23474 39.5795C1.23502 39.5824 1.23543 39.5852 1.23585 39.588C1.24916 39.6082 1.30935 39.6995 1.41876 39.8534C3.25117 42.4328 20.9225 71.416 59.3899 62.6323C60.8488 61.4001 62.2079 60.0532 63.4514 58.6041C51.0139 54.085 42.1298 42.1616 42.1298 28.1625Z" fill="#64B6EC"/>
<path d="M42.5129 23.1702C43.2537 18.3834 45.0424 13.9428 47.6381 10.0908C47.6381 10.0908 11.7778 13.6679 1.23486 39.5795C1.23514 39.5825 1.23556 39.5852 1.23597 39.588C1.24929 39.6082 1.30947 39.6995 1.41888 39.8534C2.09421 40.8039 4.92118 45.3407 10.147 50.2515C13.7417 35.3463 26.7398 24.1097 42.5129 23.1702Z" fill="#4B9FDB"/>
<path d="M39.1615 65.3906C27.9714 54.3712 24.8346 36.9045 32.6037 22.3429C36.1438 15.7077 41.446 10.6165 47.6249 7.33887C47.6249 7.33887 13.2566 13.3904 1.23486 39.5799C1.99243 46.1989 4.5702 52.2644 8.45481 57.2638C8.53108 57.3195 19.6472 65.4045 39.1615 65.3906Z" fill="#4B9FDB"/>
<path d="M30.9667 25.841C31.4455 24.66 31.9903 23.4923 32.6037 22.3429C36.1438 15.7077 41.446 10.6165 47.6249 7.33887C47.6249 7.33887 13.2566 13.3904 1.23486 39.5799C1.99243 46.1989 4.5702 52.2644 8.45481 57.2638C8.46577 57.2718 8.70664 57.4468 9.16703 57.7393C9.51066 43.3572 18.408 31.0946 30.9667 25.841Z" fill="#3188CA"/>
<path d="M36.51 50.9702C33.4144 46.4143 31.9204 41.242 31.9007 36.1191C31.9007 36.1191 12.4004 39.5951 11.6693 60.8676L32.5278 70.7775C33.8321 70.9229 35.1569 71.0001 36.5 71.0001C45.2231 71.0001 53.2096 67.8521 59.3901 62.6325C50.582 62.9006 41.8293 58.7989 36.51 50.9702Z" fill="#A1DDFB"/>
<path d="M11.6715 60.8687C17.2527 53.9035 25.4035 49.0875 34.6877 47.8591C32.8254 44.1252 31.9161 40.1072 31.9007 36.1191C31.9007 36.1191 12.4004 39.5951 11.6693 60.8676L11.6715 60.8687Z" fill="#7DCFFF"/>
<path d="M24.4914 49.8516C24.8625 44.356 26.8745 39.3623 30.0168 35.3164C30.0168 35.3164 10.7363 40.5191 11.6693 60.8671C17.1816 66.2637 24.4447 69.8772 32.5282 70.7773C27.1039 65.5112 23.9422 57.9852 24.4914 49.8516Z" fill="#7DCFFF"/>
<path d="M11.6711 60.8689C15.0795 56.615 19.4464 53.1632 24.445 50.8402C24.4551 50.5115 24.4691 50.1823 24.4914 49.8516C24.8625 44.356 26.8745 39.3623 30.0168 35.3164C30.0168 35.3164 10.7363 40.5191 11.6693 60.8671C11.6698 60.8678 11.6704 60.8684 11.6711 60.8689Z" fill="#64B6EC"/>
<path d="M65.2051 7.48844C64.6504 9.38367 50.6445 8.73649 50.6445 11.5099C50.6445 14.2834 61.0449 17.0568 58.4102 19.9689C55.7754 22.881 46.7617 12.0646 22.0781 21.4943C10.6793 25.85 3.98838 35.0134 1.23297 39.584C1.07904 38.2445 1 36.8813 1 35.5002C1 33.4298 1.1775 31.401 1.51863 29.4291C4.54861 24.2913 11.8788 14.4636 26.5156 7.48844C34.2688 3.79423 41.807 2.22724 48.1415 1.95405C58.6889 1.49921 66.0316 4.66467 65.2051 7.48844Z" fill="url(#paint0_linear_739_24794)"/>
<path d="M19.5359 34.4368C10.9718 40.8424 8.80556 52.0166 8.45361 57.2632C9.44331 58.5369 10.5184 59.7407 11.6693 60.8676C12.541 57.7401 15.0276 50.0937 19.5359 45.5855C27.5964 37.5249 39.985 44.4684 41.7234 41.8328C43.4798 39.1696 36.5 36.6556 36.5 36.6556C36.5 36.6556 47.8249 36.1009 48.1946 32.4954C48.5645 28.89 30.9397 25.9073 19.5359 34.4368Z" fill="#A1DDFB"/>
<path d="M34.6877 11.1729C29.5473 9.72638 29.4277 4.43772 48.1415 1.9541C41.807 2.22729 34.2688 3.79428 26.5156 7.4885C11.8788 14.4637 4.54861 24.2914 1.51863 29.4292C1.1775 31.4011 1 33.4298 1 35.5002C1 36.8814 1.07904 38.2445 1.23297 39.5841C3.98838 35.0135 10.6793 25.85 22.0781 21.4944C22.0781 21.4944 39.8281 12.6194 34.6877 11.1729Z" fill="#0048C1"/>
<path d="M29.605 29.8447C26.1126 30.6855 22.5997 32.1452 19.5357 34.4368C10.9718 40.8424 8.80556 52.0166 8.45361 57.2632C9.44331 58.5369 10.5184 59.7407 11.6693 60.8676C12.541 57.7401 15.0276 50.0937 19.5359 45.5855C19.9549 45.1664 20.3863 44.7899 20.8269 44.4485L20.8267 44.4466C20.8267 44.4466 27.7638 37.996 24.0197 37.1877C20.2765 36.3795 23.8096 31.3428 29.605 29.8447Z" fill="#7DCFFF"/>
<defs>
<linearGradient id="paint0_linear_739_24794" x1="4.30793" y1="8.60774" x2="59.5204" y2="39.0127" gradientUnits="userSpaceOnUse">
<stop stop-color="#0048C1"/>
<stop offset="1" stop-color="#1E91DD"/>
</linearGradient>
</defs>
</svg>
