<svg width="123" height="32" viewBox="0 0 123 32" fill="none" xmlns="http://www.w3.org/2000/svg">
<path d="M44.9412 25C44.6378 25 44.3723 24.8957 44.1448 24.6871C43.9362 24.4785 43.8319 24.213 43.8319 23.8907V3.89422C43.8319 3.59081 43.9362 3.33481 44.1448 3.12622C44.3723 2.89866 44.6378 2.78489 44.9412 2.78489C45.2446 2.78489 45.5006 2.89866 45.7092 3.12622C45.9368 3.33481 46.0506 3.59081 46.0506 3.89422V22.8951H57.1723C57.4758 22.8951 57.7318 22.9994 57.9403 23.208C58.1679 23.3976 58.2817 23.6441 58.2817 23.9476C58.2817 24.251 58.1679 24.507 57.9403 24.7156C57.7318 24.9052 57.4758 25 57.1723 25H44.9412ZM68.2035 25.1422C66.6864 25.1422 65.3306 24.8009 64.1359 24.1182C62.9412 23.4356 62.0026 22.4969 61.3199 21.3022C60.6372 20.1076 60.2959 18.7517 60.2959 17.2347C60.2959 15.6987 60.6372 14.3333 61.3199 13.1387C62.0026 11.944 62.9412 11.0053 64.1359 10.3227C65.3306 9.64 66.6864 9.29866 68.2035 9.29866C69.7205 9.29866 71.0669 9.64 72.2426 10.3227C73.4372 11.0053 74.3759 11.944 75.0586 13.1387C75.7412 14.3333 76.0921 15.6987 76.111 17.2347C76.111 18.7517 75.7602 20.1076 75.0586 21.3022C74.3759 22.4969 73.4372 23.4356 72.2426 24.1182C71.0669 24.8009 69.7205 25.1422 68.2035 25.1422ZM68.2035 23.1511C69.3033 23.1511 70.2894 22.8951 71.1617 22.3831C72.034 21.8711 72.7166 21.1695 73.2097 20.2782C73.7027 19.387 73.9492 18.3724 73.9492 17.2347C73.9492 16.0969 73.7027 15.0824 73.2097 14.1911C72.7166 13.2809 72.034 12.5698 71.1617 12.0578C70.2894 11.5458 69.3033 11.2898 68.2035 11.2898C67.1036 11.2898 66.1175 11.5458 65.2452 12.0578C64.3729 12.5698 63.6808 13.2809 63.1688 14.1911C62.6758 15.0824 62.4292 16.0969 62.4292 17.2347C62.4292 18.3724 62.6758 19.387 63.1688 20.2782C63.6808 21.1695 64.3729 21.8711 65.2452 22.3831C66.1175 22.8951 67.1036 23.1511 68.2035 23.1511ZM86.7992 25.1422C85.3012 25.1422 83.9738 24.8104 82.817 24.1467C81.6603 23.464 80.7501 22.5253 80.0863 21.3307C79.4416 20.136 79.1192 18.7707 79.1192 17.2347C79.1192 15.6797 79.4606 14.3049 80.1432 13.1102C80.8259 11.9156 81.7646 10.9864 82.9592 10.3227C84.1539 9.64 85.5098 9.29866 87.0268 9.29866C88.5628 9.29866 89.9186 9.64 91.0943 10.3227C92.289 10.9864 93.2182 11.9156 93.8819 13.1102C94.5646 14.3049 94.9154 15.6797 94.9343 17.2347L93.6543 17.9173C93.6543 19.3206 93.3604 20.5721 92.7726 21.672C92.1847 22.7529 91.3693 23.6062 90.3263 24.232C89.3023 24.8388 88.1266 25.1422 86.7992 25.1422ZM87.0837 31.144C85.5856 31.144 84.2677 30.8596 83.1299 30.2907C81.9921 29.7407 81.0535 28.9822 80.3139 28.0151C80.1053 27.7876 80.0105 27.541 80.0295 27.2756C80.0674 27.0101 80.2096 26.792 80.4561 26.6213C80.7026 26.4507 80.9776 26.3938 81.281 26.4507C81.5844 26.5076 81.8215 26.6498 81.9921 26.8773C82.5421 27.56 83.2437 28.1099 84.097 28.5271C84.9693 28.9443 85.9743 29.1529 87.1121 29.1529C88.1741 29.1529 89.1317 28.8969 89.985 28.3849C90.8383 27.8729 91.5115 27.1523 92.0046 26.2231C92.5166 25.2939 92.7726 24.2036 92.7726 22.952V18.6284L93.5975 16.9787L94.9343 17.2347V23.0373C94.9343 24.5733 94.593 25.9481 93.9103 27.1618C93.2277 28.3944 92.2985 29.3615 91.1228 30.0631C89.9471 30.7837 88.6007 31.144 87.0837 31.144ZM87.0268 23.1511C88.1456 23.1511 89.1317 22.9046 89.985 22.4116C90.8573 21.8996 91.54 21.1979 92.033 20.3067C92.5261 19.4154 92.7726 18.3914 92.7726 17.2347C92.7726 16.0779 92.5261 15.0539 92.033 14.1627C91.54 13.2524 90.8573 12.5508 89.985 12.0578C89.1317 11.5458 88.1456 11.2898 87.0268 11.2898C85.908 11.2898 84.9124 11.5458 84.0401 12.0578C83.1678 12.5508 82.4852 13.2524 81.9921 14.1627C81.4991 15.0539 81.2526 16.0779 81.2526 17.2347C81.2526 18.3914 81.4991 19.4154 81.9921 20.3067C82.4852 21.1979 83.1678 21.8996 84.0401 22.4116C84.9124 22.9046 85.908 23.1511 87.0268 23.1511ZM105.85 25.1422C104.333 25.1422 102.977 24.8009 101.783 24.1182C100.588 23.4356 99.6492 22.4969 98.9666 21.3022C98.2839 20.1076 97.9426 18.7517 97.9426 17.2347C97.9426 15.6987 98.2839 14.3333 98.9666 13.1387C99.6492 11.944 100.588 11.0053 101.783 10.3227C102.977 9.64 104.333 9.29866 105.85 9.29866C107.367 9.29866 108.714 9.64 109.889 10.3227C111.084 11.0053 112.023 11.944 112.705 13.1387C113.388 14.3333 113.739 15.6987 113.758 17.2347C113.758 18.7517 113.407 20.1076 112.705 21.3022C112.023 22.4969 111.084 23.4356 109.889 24.1182C108.714 24.8009 107.367 25.1422 105.85 25.1422ZM105.85 23.1511C106.95 23.1511 107.936 22.8951 108.808 22.3831C109.681 21.8711 110.363 21.1695 110.856 20.2782C111.349 19.387 111.596 18.3724 111.596 17.2347C111.596 16.0969 111.349 15.0824 110.856 14.1911C110.363 13.2809 109.681 12.5698 108.808 12.0578C107.936 11.5458 106.95 11.2898 105.85 11.2898C104.75 11.2898 103.764 11.5458 102.892 12.0578C102.02 12.5698 101.327 13.2809 100.815 14.1911C100.322 15.0824 100.076 16.0969 100.076 17.2347C100.076 18.3724 100.322 19.387 100.815 20.2782C101.327 21.1695 102.02 21.8711 102.892 22.3831C103.764 22.8951 104.75 23.1511 105.85 23.1511Z" fill="white"/>
<path fill-rule="evenodd" clip-rule="evenodd" d="M15.8464 2.96289H8.58307e-06L6.67216 9.63504H22.5185L15.8464 2.96289ZM6.67215 9.63505V25.4814L0 18.8093V2.96289L6.67215 9.63505Z" fill="#CCCCCC"/>
<path fill-rule="evenodd" clip-rule="evenodd" d="M6.67218 25.4814L22.5185 25.4814L15.8464 18.8093L2.28882e-05 18.8093L6.67218 25.4814ZM15.8464 18.8093L15.8464 2.96292L22.5186 9.63508L22.5186 25.4814L15.8464 18.8093Z" fill="white"/>
</svg>
