<svg width="123" height="32" viewBox="0 0 123 32" fill="none" xmlns="http://www.w3.org/2000/svg">
<path d="M44.941 25C44.6376 25 44.3721 24.8957 44.1445 24.6871C43.936 24.4785 43.8317 24.213 43.8317 23.8907V3.89422C43.8317 3.59081 43.936 3.33481 44.1445 3.12622C44.3721 2.89866 44.6376 2.78489 44.941 2.78489C45.2444 2.78489 45.5004 2.89866 45.709 3.12622C45.9365 3.33481 46.0503 3.59081 46.0503 3.89422V22.8951H57.1721C57.4755 22.8951 57.7315 22.9994 57.9401 23.208C58.1677 23.3976 58.2814 23.6441 58.2814 23.9476C58.2814 24.251 58.1677 24.507 57.9401 24.7156C57.7315 24.9052 57.4755 25 57.1721 25H44.941ZM68.2032 25.1422C66.6862 25.1422 65.3303 24.8009 64.1357 24.1182C62.941 23.4356 62.0023 22.4969 61.3197 21.3022C60.637 20.1076 60.2957 18.7517 60.2957 17.2347C60.2957 15.6987 60.637 14.3333 61.3197 13.1387C62.0023 11.944 62.941 11.0053 64.1357 10.3227C65.3303 9.64 66.6862 9.29866 68.2032 9.29866C69.7203 9.29866 71.0666 9.64 72.2423 10.3227C73.437 11.0053 74.3757 11.944 75.0583 13.1387C75.741 14.3333 76.0918 15.6987 76.1108 17.2347C76.1108 18.7517 75.76 20.1076 75.0583 21.3022C74.3757 22.4969 73.437 23.4356 72.2423 24.1182C71.0666 24.8009 69.7203 25.1422 68.2032 25.1422ZM68.2032 23.1511C69.3031 23.1511 70.2891 22.8951 71.1614 22.3831C72.0337 21.8711 72.7164 21.1695 73.2094 20.2782C73.7025 19.387 73.949 18.3724 73.949 17.2347C73.949 16.0969 73.7025 15.0824 73.2094 14.1911C72.7164 13.2809 72.0337 12.5698 71.1614 12.0578C70.2891 11.5458 69.3031 11.2898 68.2032 11.2898C67.1034 11.2898 66.1173 11.5458 65.245 12.0578C64.3727 12.5698 63.6805 13.2809 63.1685 14.1911C62.6755 15.0824 62.429 16.0969 62.429 17.2347C62.429 18.3724 62.6755 19.387 63.1685 20.2782C63.6805 21.1695 64.3727 21.8711 65.245 22.3831C66.1173 22.8951 67.1034 23.1511 68.2032 23.1511ZM86.799 25.1422C85.3009 25.1422 83.9735 24.8104 82.8168 24.1467C81.66 23.464 80.7498 22.5253 80.0861 21.3307C79.4414 20.136 79.119 18.7707 79.119 17.2347C79.119 15.6797 79.4603 14.3049 80.143 13.1102C80.8257 11.9156 81.7643 10.9864 82.959 10.3227C84.1537 9.64 85.5095 9.29866 87.0265 9.29866C88.5625 9.29866 89.9184 9.64 91.0941 10.3227C92.2888 10.9864 93.218 11.9156 93.8817 13.1102C94.5643 14.3049 94.9151 15.6797 94.9341 17.2347L93.6541 17.9173C93.6541 19.3206 93.3602 20.5721 92.7723 21.672C92.1845 22.7529 91.3691 23.6062 90.3261 24.232C89.3021 24.8388 88.1264 25.1422 86.799 25.1422ZM87.0834 31.144C85.5854 31.144 84.2674 30.8596 83.1297 30.2907C81.9919 29.7407 81.0532 28.9822 80.3137 28.0151C80.1051 27.7876 80.0103 27.541 80.0292 27.2756C80.0671 27.0101 80.2094 26.792 80.4559 26.6213C80.7024 26.4507 80.9774 26.3938 81.2808 26.4507C81.5842 26.5076 81.8212 26.6498 81.9919 26.8773C82.5418 27.56 83.2434 28.1099 84.0968 28.5271C84.9691 28.9443 85.9741 29.1529 87.1119 29.1529C88.1738 29.1529 89.1314 28.8969 89.9848 28.3849C90.8381 27.8729 91.5113 27.1523 92.0043 26.2231C92.5163 25.2939 92.7723 24.2036 92.7723 22.952V18.6284L93.5972 16.9787L94.9341 17.2347V23.0373C94.9341 24.5733 94.5928 25.9481 93.9101 27.1618C93.2274 28.3944 92.2983 29.3615 91.1225 30.0631C89.9468 30.7837 88.6005 31.144 87.0834 31.144ZM87.0265 23.1511C88.1454 23.1511 89.1314 22.9046 89.9848 22.4116C90.8571 21.8996 91.5397 21.1979 92.0328 20.3067C92.5258 19.4154 92.7723 18.3914 92.7723 17.2347C92.7723 16.0779 92.5258 15.0539 92.0328 14.1627C91.5397 13.2524 90.8571 12.5508 89.9848 12.0578C89.1314 11.5458 88.1454 11.2898 87.0265 11.2898C85.9077 11.2898 84.9122 11.5458 84.0399 12.0578C83.1676 12.5508 82.4849 13.2524 81.9919 14.1627C81.4988 15.0539 81.2523 16.0779 81.2523 17.2347C81.2523 18.3914 81.4988 19.4154 81.9919 20.3067C82.4849 21.1979 83.1676 21.8996 84.0399 22.4116C84.9122 22.9046 85.9077 23.1511 87.0265 23.1511ZM105.85 25.1422C104.333 25.1422 102.977 24.8009 101.782 24.1182C100.588 23.4356 99.649 22.4969 98.9663 21.3022C98.2837 20.1076 97.9423 18.7517 97.9423 17.2347C97.9423 15.6987 98.2837 14.3333 98.9663 13.1387C99.649 11.944 100.588 11.0053 101.782 10.3227C102.977 9.64 104.333 9.29866 105.85 9.29866C107.367 9.29866 108.713 9.64 109.889 10.3227C111.084 11.0053 112.022 11.944 112.705 13.1387C113.388 14.3333 113.738 15.6987 113.757 17.2347C113.757 18.7517 113.407 20.1076 112.705 21.3022C112.022 22.4969 111.084 23.4356 109.889 24.1182C108.713 24.8009 107.367 25.1422 105.85 25.1422ZM105.85 23.1511C106.95 23.1511 107.936 22.8951 108.808 22.3831C109.68 21.8711 110.363 21.1695 110.856 20.2782C111.349 19.387 111.596 18.3724 111.596 17.2347C111.596 16.0969 111.349 15.0824 110.856 14.1911C110.363 13.2809 109.68 12.5698 108.808 12.0578C107.936 11.5458 106.95 11.2898 105.85 11.2898C104.75 11.2898 103.764 11.5458 102.892 12.0578C102.019 12.5698 101.327 13.2809 100.815 14.1911C100.322 15.0824 100.076 16.0969 100.076 17.2347C100.076 18.3724 100.322 19.387 100.815 20.2782C101.327 21.1695 102.019 21.8711 102.892 22.3831C103.764 22.8951 104.75 23.1511 105.85 23.1511Z" fill="black"/>
<path fill-rule="evenodd" clip-rule="evenodd" d="M15.8464 2.96289H8.58307e-06L6.67216 9.63504H22.5185L15.8464 2.96289ZM6.67215 9.63505V25.4814L0 18.8093V2.96289L6.67215 9.63505Z" fill="#CCCCCC"/>
<path fill-rule="evenodd" clip-rule="evenodd" d="M6.67218 25.4814L22.5185 25.4814L15.8464 18.8093L2.28882e-05 18.8093L6.67218 25.4814ZM15.8464 18.8093L15.8464 2.96292L22.5186 9.63508L22.5186 25.4814L15.8464 18.8093Z" fill="black"/>
</svg>
