
<svg width="360" height="300" viewBox="0 0 360 300" fill="none" xmlns="http://www.w3.org/2000/svg">
<path d="M283.44 226.966C283.361 226.835 283.237 226.742 283.088 226.703C282.94 226.665 282.785 226.687 282.653 226.766L280.746 227.892L279.62 225.986C279.541 225.854 279.416 225.761 279.268 225.723C279.12 225.684 278.964 225.706 278.833 225.785C278.701 225.864 278.608 225.988 278.57 226.136C278.531 226.285 278.553 226.44 278.632 226.572L279.758 228.478L277.852 229.605C277.72 229.684 277.627 229.808 277.589 229.957C277.55 230.105 277.572 230.26 277.651 230.392C277.73 230.524 277.854 230.617 278.003 230.655C278.151 230.693 278.306 230.672 278.438 230.593L280.345 229.466L281.471 231.373C281.598 231.588 281.844 231.689 282.076 231.643C282.139 231.631 282.198 231.607 282.256 231.574C282.529 231.413 282.619 231.059 282.459 230.787L281.332 228.88L283.239 227.753C283.512 227.591 283.603 227.239 283.44 226.966Z" fill="#DEDEDE"/>
<path d="M288.272 239.58C286.891 239.58 285.77 238.458 285.77 237.078C285.77 235.698 286.891 234.576 288.272 234.576C289.65 234.576 290.774 235.698 290.774 237.078C290.771 238.458 289.65 239.58 288.272 239.58ZM288.272 235.916C287.631 235.916 287.107 236.437 287.107 237.081C287.107 237.724 287.628 238.246 288.272 238.246C288.913 238.246 289.437 237.724 289.437 237.081C289.437 236.437 288.913 235.916 288.272 235.916Z" fill="#DEDEDE"/>
<path d="M35.6047 276.295C34.2245 276.295 33.1025 275.173 33.1025 273.792C33.1025 272.412 34.2245 271.29 35.6047 271.29C36.985 271.29 38.1069 272.412 38.1069 273.792C38.1069 275.173 36.985 276.295 35.6047 276.295ZM35.6047 272.627C34.9636 272.627 34.4397 273.149 34.4397 273.792C34.4397 274.434 34.9613 274.957 35.6047 274.957C36.2482 274.957 36.7697 274.436 36.7697 273.792C36.7697 273.151 36.2482 272.627 35.6047 272.627Z" fill="#DEDEDE"/>
<path d="M312.627 7.28896C311.249 7.28896 310.125 6.16706 310.125 4.78679C310.125 3.40653 311.247 2.28461 312.627 2.28461C314.007 2.28461 315.129 3.40653 315.129 4.78679C315.127 6.16706 314.005 7.28896 312.627 7.28896ZM312.627 3.6242C311.986 3.6242 311.462 4.14569 311.462 4.78917C311.462 5.43026 311.984 5.95416 312.627 5.95416C313.268 5.95416 313.792 5.43266 313.792 4.78917C313.79 4.14569 313.268 3.6242 312.627 3.6242Z" fill="#DEDEDE"/>
<path d="M355.449 70.6449C355.31 70.7119 355.207 70.8291 355.157 70.9751C355.106 71.121 355.116 71.2765 355.183 71.4128L356.152 73.4031L354.162 74.3719C354.023 74.4389 353.92 74.5561 353.87 74.702C353.819 74.8479 353.829 75.0034 353.896 75.1398C353.963 75.2785 354.08 75.3814 354.226 75.4316C354.372 75.4818 354.528 75.4723 354.664 75.4053L356.654 74.4365L357.623 76.4267C357.69 76.5655 357.807 76.6683 357.953 76.7186C358.099 76.7688 358.255 76.7592 358.391 76.6923C358.53 76.6253 358.632 76.5081 358.683 76.3621C358.733 76.2162 358.723 76.0607 358.656 75.9244L357.688 73.9341L359.678 72.9653C359.903 72.8553 360.025 72.6184 359.996 72.384C359.989 72.3218 359.972 72.2596 359.941 72.1998C359.802 71.9152 359.458 71.7955 359.173 71.9343L357.183 72.9031L356.214 70.9129C356.078 70.6258 355.733 70.5062 355.449 70.6449Z" fill="#DEDEDE"/>
<path d="M319.306 118.253C317.926 118.253 316.804 117.131 316.804 115.751C316.804 114.371 317.926 113.249 319.306 113.249C320.686 113.249 321.808 114.371 321.808 115.751C321.806 117.131 320.684 118.253 319.306 118.253ZM319.306 114.586C318.665 114.586 318.141 115.108 318.141 115.751C318.141 116.392 318.662 116.916 319.306 116.916C319.947 116.916 320.471 116.395 320.471 115.751C320.468 115.11 319.947 114.586 319.306 114.586Z" fill="#DEDEDE"/>
<path d="M0.308883 153.128C0.196452 153.234 0.131862 153.375 0.127078 153.528C0.122294 153.681 0.177319 153.827 0.282573 153.939L1.79679 155.554L0.182093 157.068C0.069662 157.173 0.00507193 157.315 0.000287645 157.468C-0.00449664 157.621 0.0505284 157.767 0.155783 157.879C0.261037 157.992 0.402184 158.056 0.555281 158.061C0.708377 158.066 0.854291 158.011 0.966722 157.905L2.58142 156.391L4.09563 158.006C4.20088 158.118 4.34203 158.183 4.49513 158.188C4.64823 158.192 4.79414 158.137 4.90657 158.032C5.019 157.927 5.08359 157.786 5.08837 157.633C5.09316 157.48 5.03813 157.334 4.93288 157.221L3.41867 155.607L5.03336 154.092C5.21516 153.923 5.26062 153.659 5.16494 153.442C5.13863 153.384 5.10512 153.329 5.05728 153.281C4.83959 153.049 4.47598 153.04 4.24634 153.255L2.63164 154.769L1.11743 153.155C0.902135 152.923 0.538529 152.911 0.308883 153.128Z" fill="#DEDEDE"/>
<path d="M24.9573 180.633C23.577 180.633 22.4551 179.511 22.4551 178.131C22.4551 176.75 23.577 175.628 24.9573 175.628C26.3375 175.628 27.4594 176.75 27.4594 178.131C27.4594 179.511 26.3375 180.633 24.9573 180.633ZM24.9573 176.966C24.3162 176.966 23.7923 177.487 23.7923 178.131C23.7923 178.774 24.3138 179.296 24.9573 179.296C25.5984 179.296 26.1222 178.774 26.1222 178.131C26.1222 177.487 25.5984 176.966 24.9573 176.966Z" fill="#DEDEDE"/>
<path d="M68.0294 259.263C67.7615 259.263 67.5366 259.052 67.5222 258.782C67.5055 258.502 67.7208 258.26 68.0031 258.246C69.6824 258.153 71.3808 257.983 73.0529 257.748C73.3304 257.71 73.5887 257.904 73.627 258.181C73.6653 258.459 73.4715 258.717 73.194 258.756C71.4932 258.995 69.7661 259.167 68.0581 259.263C68.0485 259.263 68.0389 259.263 68.0294 259.263ZM60.8673 259.241C60.8577 259.241 60.8458 259.241 60.8338 259.241C59.1234 259.133 57.3963 258.952 55.7027 258.701C55.4252 258.66 55.2338 258.399 55.2745 258.122C55.3152 257.844 55.5759 257.653 55.8534 257.693C57.5183 257.942 59.2167 258.119 60.8984 258.224C61.1783 258.241 61.3912 258.483 61.3745 258.765C61.3577 259.033 61.1352 259.241 60.8673 259.241ZM80.1432 257.349C79.9183 257.349 79.7102 257.198 79.6504 256.969C79.5786 256.696 79.7413 256.418 80.014 256.347C81.6454 255.918 83.2769 255.416 84.8629 254.854C85.1284 254.761 85.4178 254.899 85.5135 255.163C85.6068 255.428 85.4681 255.718 85.2049 255.813C83.5926 256.385 81.9349 256.897 80.2748 257.332C80.2293 257.344 80.1862 257.349 80.1432 257.349ZM48.7679 257.232C48.7224 257.232 48.6794 257.227 48.6339 257.213C46.9809 256.76 45.328 256.234 43.7181 255.643C43.4549 255.548 43.3186 255.253 43.4142 254.99C43.5099 254.727 43.8042 254.591 44.0673 254.686C45.6509 255.265 47.2752 255.785 48.9018 256.229C49.1721 256.304 49.3324 256.583 49.2583 256.854C49.1985 257.083 48.9927 257.232 48.7679 257.232ZM91.6278 253.053C91.4413 253.053 91.2595 252.95 91.171 252.77C91.0466 252.519 91.1494 252.213 91.4006 252.089C92.91 251.34 94.4051 250.519 95.8476 249.646C96.0892 249.5 96.4002 249.577 96.5461 249.818C96.692 250.06 96.6155 250.371 96.3739 250.517C94.9099 251.404 93.3884 252.239 91.8527 253C91.7809 253.036 91.702 253.053 91.6278 253.053ZM37.3263 252.818C37.2497 252.818 37.1708 252.802 37.0966 252.763C35.5704 251.988 34.0562 251.139 32.597 250.24C32.3578 250.091 32.2836 249.778 32.4319 249.539C32.5803 249.299 32.8936 249.225 33.1328 249.374C34.5681 250.259 36.056 251.096 37.5583 251.857C37.8095 251.983 37.91 252.29 37.7832 252.541C37.6899 252.715 37.5105 252.818 37.3263 252.818ZM102 246.525C101.849 246.525 101.699 246.458 101.598 246.328C101.426 246.106 101.464 245.788 101.687 245.613C103.014 244.575 104.313 243.467 105.548 242.322C105.753 242.13 106.076 242.142 106.268 242.348C106.459 242.554 106.447 242.877 106.241 243.068C104.986 244.233 103.665 245.36 102.316 246.414C102.22 246.491 102.108 246.525 102 246.525ZM27.0018 246.202C26.8917 246.202 26.7793 246.166 26.686 246.092C25.344 245.027 24.0307 243.891 22.782 242.716C22.5763 242.522 22.5667 242.202 22.7605 241.996C22.9543 241.79 23.2748 241.781 23.4806 241.975C24.7077 243.128 25.9995 244.245 27.3199 245.293C27.54 245.467 27.5759 245.788 27.4013 246.008C27.3008 246.135 27.1525 246.202 27.0018 246.202ZM110.844 238.035C110.727 238.035 110.609 237.994 110.514 237.913C110.298 237.731 110.275 237.41 110.456 237.195C111.547 235.911 112.597 234.566 113.578 233.196C113.741 232.966 114.059 232.913 114.289 233.078C114.518 233.241 114.571 233.559 114.406 233.789C113.408 235.183 112.341 236.552 111.231 237.855C111.131 237.975 110.987 238.035 110.844 238.035ZM18.2154 237.652C18.0695 237.652 17.926 237.59 17.8255 237.47C16.7228 236.157 15.6654 234.782 14.6799 233.38C14.5172 233.15 14.5722 232.832 14.8043 232.669C15.0339 232.507 15.352 232.562 15.5147 232.794C16.4835 234.172 17.5241 235.523 18.6078 236.815C18.7896 237.03 18.7609 237.351 18.5456 237.532C18.4475 237.611 18.3303 237.652 18.2154 237.652ZM117.807 227.942C117.724 227.942 117.64 227.921 117.563 227.88C117.317 227.744 117.226 227.435 117.363 227.189C118.176 225.713 118.934 224.184 119.621 222.644C119.735 222.388 120.037 222.271 120.293 222.385C120.549 222.5 120.666 222.802 120.551 223.058C119.855 224.622 119.082 226.177 118.255 227.679C118.161 227.847 117.987 227.942 117.807 227.942ZM11.3309 227.505C11.1491 227.505 10.9744 227.407 10.8811 227.237C10.0678 225.73 9.31191 224.168 8.63016 222.594C8.51772 222.335 8.63733 222.036 8.89568 221.924C9.15403 221.811 9.45303 221.931 9.56546 222.189C10.2353 223.735 10.9792 225.27 11.7782 226.753C11.9122 227 11.8189 227.311 11.5725 227.442C11.4959 227.485 11.4122 227.505 11.3309 227.505ZM122.608 216.656C122.558 216.656 122.508 216.649 122.458 216.632C122.19 216.549 122.039 216.264 122.123 215.996C122.623 214.386 123.058 212.736 123.419 211.09C123.479 210.815 123.752 210.642 124.025 210.702C124.3 210.762 124.472 211.035 124.412 211.307C124.046 212.98 123.601 214.659 123.094 216.295C123.027 216.515 122.826 216.656 122.608 216.656ZM6.64467 216.173C6.42459 216.173 6.22364 216.03 6.15666 215.809C5.66627 214.173 5.24049 212.492 4.88645 210.81C4.82904 210.535 5.00367 210.264 5.28116 210.207C5.55625 210.15 5.82657 210.327 5.88398 210.602C6.23084 212.255 6.65185 213.91 7.13267 215.52C7.21401 215.79 7.0609 216.073 6.79058 216.154C6.74274 216.166 6.6949 216.173 6.64467 216.173ZM125.034 204.631C125.017 204.631 125.001 204.631 124.984 204.629C124.704 204.602 124.498 204.353 124.527 204.074C124.69 202.397 124.783 200.694 124.802 199.007C124.804 198.727 125.036 198.498 125.316 198.505C125.599 198.507 125.823 198.739 125.819 199.019C125.8 200.734 125.704 202.466 125.539 204.172C125.515 204.435 125.292 204.631 125.034 204.631ZM4.3243 204.131C4.06356 204.131 3.84109 203.932 3.81717 203.667C3.66168 201.959 3.57795 200.225 3.56838 198.512C3.56599 198.23 3.79324 198.002 4.07551 198H4.07791C4.35779 198 4.58504 198.225 4.58743 198.507C4.597 200.191 4.67834 201.894 4.83144 203.576C4.85775 203.856 4.64962 204.102 4.36974 204.129C4.35539 204.131 4.34105 204.131 4.3243 204.131ZM124.972 192.369C124.716 192.369 124.493 192.175 124.467 191.914C124.288 190.242 124.037 188.553 123.718 186.896L123.706 186.831C123.654 186.556 123.833 186.288 124.108 186.235C124.386 186.183 124.651 186.362 124.704 186.637L124.716 186.704C125.041 188.393 125.297 190.108 125.479 191.809C125.508 192.089 125.307 192.34 125.027 192.369C125.008 192.366 124.989 192.369 124.972 192.369ZM4.46543 191.864C4.44629 191.864 4.42716 191.864 4.40802 191.862C4.12814 191.831 3.9272 191.577 3.96069 191.3C4.15446 189.596 4.42476 187.881 4.76205 186.202C4.81707 185.927 5.08499 185.747 5.36248 185.802C5.63758 185.857 5.817 186.125 5.76198 186.403C5.42947 188.056 5.16394 189.742 4.97496 191.414C4.94147 191.673 4.72139 191.864 4.46543 191.864ZM122.436 180.303C122.221 180.303 122.02 180.164 121.951 179.949C121.439 178.341 120.855 176.739 120.212 175.184C120.104 174.923 120.228 174.626 120.487 174.519C120.747 174.411 121.044 174.535 121.152 174.794C121.807 176.375 122.4 178.004 122.922 179.64C123.008 179.908 122.86 180.195 122.592 180.279C122.541 180.293 122.489 180.303 122.436 180.303ZM7.08721 179.882C7.03458 179.882 6.98197 179.875 6.92935 179.856C6.66143 179.767 6.51787 179.48 6.60399 179.212C7.13744 177.585 7.74985 175.961 8.41965 174.382C8.52968 174.124 8.82868 174.002 9.08703 174.112C9.34538 174.222 9.46738 174.521 9.35735 174.779C8.69711 176.332 8.0967 177.93 7.57282 179.528C7.49866 179.746 7.30011 179.882 7.08721 179.882ZM117.556 169.055C117.379 169.055 117.205 168.962 117.111 168.794C116.286 167.326 115.389 165.874 114.442 164.481C114.284 164.249 114.344 163.931 114.576 163.773C114.808 163.615 115.126 163.675 115.284 163.907C116.245 165.326 117.159 166.802 117.999 168.294C118.138 168.541 118.049 168.849 117.805 168.988C117.726 169.034 117.64 169.055 117.556 169.055ZM12.0701 168.677C11.9839 168.677 11.8978 168.656 11.8189 168.61C11.5749 168.471 11.4911 168.16 11.6299 167.916C12.4791 166.428 13.4049 164.96 14.3761 163.548C14.5364 163.316 14.8521 163.259 15.0841 163.419C15.3162 163.579 15.3736 163.895 15.2133 164.127C14.2565 165.515 13.3475 166.96 12.5126 168.424C12.4193 168.586 12.2471 168.677 12.0701 168.677ZM110.499 159.032C110.358 159.032 110.215 158.972 110.114 158.857C109.009 157.587 107.837 156.346 106.629 155.171C106.428 154.975 106.423 154.652 106.619 154.451C106.816 154.25 107.138 154.245 107.339 154.441C108.569 155.635 109.76 156.898 110.885 158.19C111.069 158.403 111.047 158.723 110.834 158.908C110.736 158.991 110.617 159.032 110.499 159.032ZM19.1962 158.699C19.0766 158.699 18.957 158.659 18.8613 158.573C18.6508 158.386 18.6293 158.066 18.8159 157.855C19.9474 156.568 21.1482 155.312 22.3826 154.126C22.5859 153.932 22.9064 153.937 23.1026 154.14C23.2964 154.343 23.2916 154.664 23.0882 154.86C21.873 156.027 20.6937 157.262 19.5814 158.527C19.4785 158.64 19.3374 158.699 19.1962 158.699ZM101.565 150.636C101.457 150.636 101.347 150.602 101.256 150.53C99.919 149.506 98.5196 148.526 97.101 147.617C96.8642 147.466 96.7949 147.15 96.948 146.913C97.0987 146.677 97.4144 146.607 97.6512 146.76C99.0937 147.684 100.515 148.681 101.876 149.722C102.098 149.892 102.141 150.212 101.971 150.435C101.869 150.566 101.718 150.636 101.565 150.636ZM28.1787 150.353C28.0256 150.353 27.8725 150.284 27.7721 150.152C27.6022 149.927 27.6477 149.609 27.8701 149.439C29.2384 148.406 30.6641 147.418 32.1138 146.507C32.3506 146.356 32.6664 146.428 32.8171 146.667C32.9678 146.904 32.896 147.22 32.6568 147.37C31.2311 148.267 29.8269 149.239 28.4849 150.255C28.394 150.32 28.284 150.353 28.1787 150.353ZM91.1279 144.196C91.0537 144.196 90.9772 144.179 90.9054 144.146C89.3888 143.409 87.8243 142.73 86.2527 142.124C85.9896 142.024 85.8604 141.73 85.9609 141.467C86.0613 141.203 86.3556 141.074 86.6187 141.175C88.2167 141.789 89.8098 142.483 91.3504 143.232C91.6039 143.354 91.7092 143.66 91.5848 143.911C91.4963 144.091 91.3168 144.196 91.1279 144.196ZM38.6611 143.995C38.4697 143.995 38.2879 143.887 38.2018 143.703C38.0822 143.45 38.1898 143.146 38.4434 143.024C39.9911 142.289 41.5891 141.612 43.1942 141.012C43.4573 140.914 43.7516 141.048 43.8496 141.311C43.9477 141.574 43.8137 141.868 43.5506 141.966C41.9718 142.557 40.4002 143.222 38.8788 143.945C38.8094 143.978 38.7352 143.995 38.6611 143.995ZM79.6097 139.981C79.5691 139.981 79.526 139.976 79.4829 139.964C77.8491 139.548 76.1794 139.199 74.5169 138.924C74.2394 138.878 74.0528 138.615 74.0982 138.338C74.1437 138.06 74.4068 137.873 74.6843 137.919C76.3731 138.199 78.074 138.555 79.7341 138.979C80.0068 139.048 80.1719 139.326 80.1025 139.598C80.0427 139.828 79.837 139.981 79.6097 139.981ZM50.2127 139.888C49.9831 139.888 49.775 139.732 49.7176 139.5C49.6506 139.227 49.818 138.952 50.0907 138.885C51.1026 138.637 52.136 138.412 53.1646 138.213C53.8201 138.086 54.4875 137.969 55.1477 137.866C55.4252 137.823 55.6859 138.012 55.7314 138.29C55.7744 138.567 55.5855 138.828 55.308 138.873C54.6597 138.976 54.0019 139.091 53.356 139.215C52.3441 139.409 51.3275 139.632 50.3323 139.876C50.294 139.883 50.2534 139.888 50.2127 139.888ZM67.4744 138.184C67.4672 138.184 67.4601 138.184 67.4505 138.184C66.5582 138.144 65.654 138.125 64.7617 138.125C63.9699 138.125 63.1685 138.141 62.3767 138.173C62.0993 138.184 61.8601 137.964 61.8481 137.685C61.8361 137.405 62.0562 137.168 62.3361 137.156C63.1422 137.125 63.9579 137.108 64.7617 137.108C65.6683 137.108 66.5893 137.13 67.4959 137.17C67.7758 137.182 67.9935 137.421 67.9815 137.701C67.972 137.969 67.7447 138.184 67.4744 138.184Z" fill="#DEDEDE"/>
<path d="M251.023 213.018C250.728 213.037 250.436 213.054 250.145 213.07C249.865 213.087 249.623 212.872 249.609 212.592C249.592 212.312 249.805 212.073 250.085 212.056C250.087 212.056 250.087 212.056 250.09 212.056C251.755 211.963 253.439 211.826 255.101 211.654C255.381 211.623 255.632 211.829 255.661 212.109C255.69 212.389 255.486 212.64 255.206 212.668C253.817 212.81 252.41 212.927 251.023 213.018ZM243.083 213.235C243.071 213.235 243.057 213.238 243.045 213.235C241.361 213.219 239.655 213.161 237.976 213.063C237.696 213.046 237.481 212.807 237.497 212.525C237.514 212.245 237.756 212.03 238.036 212.046C239.701 212.142 241.389 212.2 243.057 212.216C243.337 212.219 243.564 212.448 243.561 212.731C243.557 212.999 243.346 213.216 243.083 213.235ZM262.184 211.707C261.928 211.724 261.694 211.544 261.651 211.283C261.603 211.006 261.79 210.743 262.067 210.695C263.715 210.415 265.373 210.09 267 209.733C267.275 209.673 267.545 209.846 267.607 210.121C267.667 210.396 267.495 210.666 267.22 210.726C265.579 211.087 263.904 211.413 262.242 211.697C262.22 211.704 262.203 211.704 262.184 211.707ZM230.998 212.42C230.967 212.422 230.933 212.42 230.902 212.417C229.23 212.207 227.541 211.956 225.886 211.666C225.608 211.618 225.424 211.355 225.472 211.078C225.52 210.8 225.785 210.616 226.061 210.664C227.702 210.951 229.374 211.2 231.029 211.408C231.309 211.444 231.505 211.697 231.472 211.977C231.441 212.221 231.237 212.405 230.998 212.42ZM273.99 208.996C273.757 209.011 273.535 208.865 273.468 208.631C273.389 208.36 273.545 208.078 273.815 207.999C275.418 207.535 277.027 207.023 278.604 206.482C278.869 206.391 279.159 206.533 279.25 206.798C279.341 207.064 279.2 207.353 278.934 207.444C277.341 207.989 275.714 208.506 274.097 208.975C274.064 208.989 274.025 208.994 273.99 208.996ZM219.078 210.221C219.028 210.224 218.975 210.221 218.925 210.207C217.289 209.807 215.638 209.36 214.019 208.882C213.748 208.803 213.595 208.518 213.674 208.25C213.753 207.98 214.038 207.827 214.306 207.906C215.908 208.379 217.545 208.822 219.166 209.219C219.439 209.286 219.607 209.561 219.54 209.834C219.485 210.056 219.293 210.207 219.078 210.221ZM285.41 204.959C285.199 204.973 284.993 204.853 284.907 204.648C284.797 204.389 284.919 204.09 285.18 203.98C286.718 203.334 288.261 202.643 289.766 201.925C290.019 201.803 290.323 201.911 290.445 202.165C290.567 202.418 290.459 202.722 290.206 202.844C288.687 203.569 287.13 204.267 285.577 204.92C285.52 204.942 285.462 204.956 285.41 204.959ZM207.481 206.667C207.411 206.671 207.34 206.662 207.27 206.635C205.691 206.049 204.103 205.418 202.551 204.758C202.292 204.648 202.173 204.349 202.283 204.09C202.393 203.832 202.692 203.71 202.95 203.822C204.488 204.478 206.06 205.102 207.624 205.683C207.887 205.781 208.021 206.073 207.926 206.339C207.854 206.53 207.677 206.655 207.481 206.667ZM296.279 199.641C296.09 199.653 295.902 199.56 295.803 199.382C295.665 199.138 295.753 198.828 295.997 198.689C297.447 197.873 298.896 197.012 300.308 196.127C300.547 195.978 300.86 196.05 301.009 196.287C301.157 196.526 301.085 196.84 300.848 196.988C299.425 197.88 297.961 198.751 296.497 199.576C296.428 199.615 296.354 199.636 296.279 199.641ZM196.374 201.811C196.286 201.815 196.195 201.799 196.111 201.756C194.609 200.992 193.104 200.184 191.638 199.354C191.394 199.215 191.308 198.904 191.446 198.66C191.585 198.416 191.896 198.33 192.14 198.469C193.59 199.294 195.08 200.093 196.57 200.849C196.821 200.976 196.922 201.282 196.795 201.533C196.711 201.698 196.546 201.799 196.374 201.811ZM306.465 193.115C306.295 193.127 306.126 193.053 306.02 192.905C305.855 192.677 305.905 192.359 306.133 192.194C307.482 191.216 308.824 190.194 310.125 189.154C310.345 188.979 310.666 189.013 310.84 189.233C311.015 189.453 310.982 189.773 310.761 189.948C309.448 190.998 308.092 192.031 306.731 193.017C306.649 193.079 306.559 193.11 306.465 193.115ZM185.894 195.725C185.787 195.732 185.676 195.706 185.581 195.641C184.174 194.713 182.772 193.739 181.411 192.747C181.184 192.582 181.134 192.263 181.301 192.036C181.466 191.809 181.784 191.759 182.012 191.926C183.358 192.909 184.748 193.873 186.141 194.792C186.375 194.947 186.44 195.263 186.284 195.498C186.196 195.634 186.047 195.713 185.894 195.725ZM315.845 185.467C315.696 185.477 315.543 185.422 315.436 185.302C315.247 185.094 315.261 184.774 315.467 184.582C316.696 183.458 317.914 182.288 319.091 181.104C319.289 180.906 319.612 180.903 319.811 181.102C320.009 181.3 320.012 181.623 319.813 181.822C318.627 183.015 317.397 184.197 316.156 185.333C316.065 185.417 315.955 185.46 315.845 185.467ZM176.177 188.491C176.05 188.498 175.921 188.46 175.818 188.374C174.527 187.295 173.245 186.168 172.005 185.03C171.8 184.838 171.785 184.518 171.977 184.31C172.168 184.104 172.489 184.09 172.697 184.281C173.924 185.41 175.194 186.525 176.474 187.594C176.689 187.773 176.718 188.096 176.538 188.312C176.443 188.422 176.311 188.482 176.177 188.491ZM324.296 176.798C324.167 176.805 324.035 176.765 323.93 176.674C323.717 176.49 323.696 176.167 323.88 175.956C324.976 174.698 326.054 173.397 327.088 172.088C327.262 171.868 327.583 171.83 327.803 172.004C328.023 172.179 328.061 172.5 327.887 172.72C326.844 174.04 325.753 175.353 324.648 176.624C324.555 176.731 324.428 176.789 324.296 176.798ZM167.345 180.207C167.2 180.217 167.051 180.164 166.944 180.049C165.783 178.829 164.638 177.566 163.537 176.296C163.353 176.083 163.377 175.762 163.59 175.578C163.803 175.394 164.123 175.418 164.307 175.631C165.398 176.892 166.532 178.143 167.68 179.351C167.874 179.554 167.867 179.877 167.664 180.071C167.573 180.152 167.46 180.2 167.345 180.207ZM331.717 167.223C331.607 167.23 331.494 167.201 331.396 167.134C331.164 166.974 331.107 166.658 331.265 166.426C332.209 165.05 333.135 163.634 334.013 162.218C334.161 161.979 334.475 161.905 334.714 162.053C334.953 162.201 335.027 162.515 334.879 162.754C333.992 164.185 333.059 165.615 332.104 167.002C332.011 167.136 331.865 167.213 331.717 167.223ZM159.514 170.976C159.349 170.985 159.181 170.916 159.073 170.775C158.062 169.433 157.066 168.048 156.119 166.66C155.961 166.428 156.021 166.113 156.253 165.952C156.485 165.794 156.801 165.854 156.961 166.086C157.901 167.462 158.885 168.832 159.887 170.162C160.057 170.387 160.011 170.706 159.786 170.875C159.705 170.938 159.609 170.971 159.514 170.976ZM338.003 156.865C337.912 156.869 337.819 156.853 337.733 156.805C337.484 156.673 337.391 156.365 337.522 156.116C338.307 154.64 339.065 153.128 339.778 151.621C339.898 151.367 340.202 151.257 340.455 151.377C340.709 151.497 340.819 151.8 340.699 152.054C339.981 153.575 339.214 155.104 338.422 156.592C338.333 156.757 338.173 156.855 338.003 156.865ZM152.792 160.919C152.605 160.931 152.421 160.84 152.32 160.671C151.469 159.223 150.639 157.735 149.859 156.247C149.727 155.999 149.823 155.69 150.072 155.561C150.321 155.429 150.629 155.525 150.758 155.774C151.533 157.247 152.354 158.721 153.198 160.154C153.342 160.395 153.261 160.709 153.019 160.85C152.945 160.891 152.868 160.914 152.792 160.919ZM343.074 145.856C343.003 145.861 342.929 145.849 342.857 145.822C342.596 145.72 342.467 145.423 342.57 145.162C343.182 143.607 343.763 142.017 344.297 140.435C344.388 140.17 344.675 140.026 344.943 140.117C345.208 140.208 345.352 140.498 345.261 140.763C344.72 142.359 344.134 143.964 343.517 145.535C343.441 145.724 343.266 145.844 343.074 145.856ZM147.261 150.155C147.055 150.169 146.852 150.054 146.764 149.853C146.082 148.315 145.429 146.736 144.821 145.167C144.721 144.904 144.85 144.61 145.113 144.509C145.376 144.409 145.67 144.538 145.771 144.801C146.374 146.356 147.019 147.918 147.694 149.442C147.809 149.698 147.692 149.999 147.436 150.114C147.378 150.138 147.318 150.152 147.261 150.155ZM346.856 134.333C346.804 134.335 346.749 134.331 346.694 134.316C346.421 134.245 346.261 133.965 346.333 133.694C346.761 132.077 347.158 130.431 347.507 128.798C347.567 128.523 347.837 128.348 348.112 128.408C348.387 128.467 348.562 128.738 348.502 129.013C348.148 130.661 347.749 132.324 347.316 133.957C347.258 134.173 347.069 134.321 346.856 134.333ZM143.001 138.818C142.771 138.833 142.553 138.691 142.482 138.462C141.982 136.854 141.513 135.213 141.089 133.584C141.018 133.312 141.183 133.034 141.453 132.962C141.726 132.891 142.003 133.056 142.075 133.326C142.494 134.941 142.96 136.565 143.455 138.158C143.539 138.426 143.388 138.711 143.12 138.794C143.08 138.809 143.039 138.816 143.001 138.818ZM349.289 122.458C349.253 122.461 349.217 122.458 349.182 122.454C348.904 122.413 348.71 122.155 348.751 121.877C348.99 120.229 349.194 118.55 349.354 116.89C349.38 116.61 349.631 116.404 349.909 116.433C350.189 116.459 350.394 116.708 350.366 116.988C350.203 118.664 349.997 120.358 349.756 122.023C349.725 122.265 349.524 122.442 349.289 122.458ZM140.063 127.068C139.81 127.085 139.58 126.91 139.53 126.654C139.216 125.004 138.936 123.32 138.697 121.65C138.657 121.372 138.85 121.114 139.13 121.073C139.41 121.035 139.666 121.226 139.707 121.506C139.941 123.159 140.219 124.829 140.53 126.465C140.582 126.74 140.4 127.008 140.125 127.061C140.104 127.066 140.082 127.068 140.063 127.068ZM350.342 110.392C350.325 110.392 350.311 110.395 350.294 110.392C350.014 110.385 349.792 110.148 349.801 109.869C349.851 108.201 349.861 106.512 349.83 104.845C349.825 104.563 350.05 104.333 350.33 104.326C350.612 104.321 350.844 104.544 350.849 104.826C350.88 106.51 350.87 108.216 350.82 109.9C350.808 110.163 350.6 110.376 350.342 110.392ZM138.47 115.06C138.192 115.079 137.951 114.868 137.929 114.591C137.898 114.194 137.872 113.796 137.846 113.402C137.762 112.115 137.702 110.811 137.666 109.524C137.659 109.244 137.877 109.01 138.161 109C138.441 108.993 138.676 109.213 138.685 109.495C138.721 110.77 138.781 112.062 138.865 113.335C138.891 113.727 138.917 114.119 138.948 114.512C138.97 114.792 138.759 115.036 138.48 115.057C138.472 115.06 138.472 115.06 138.47 115.06ZM350.007 98.2859C349.732 98.3026 349.49 98.0969 349.466 97.8218C349.328 96.164 349.146 94.4824 348.926 92.8246L348.904 92.6643C348.866 92.3868 349.062 92.1309 349.342 92.0926C349.622 92.0543 349.878 92.2505 349.914 92.5304L349.935 92.693C350.155 94.3651 350.339 96.0612 350.481 97.7357C350.505 98.0155 350.296 98.2619 350.016 98.2859C350.014 98.2835 350.012 98.2835 350.007 98.2859ZM138.243 102.948C138.226 102.948 138.207 102.951 138.19 102.948C137.91 102.936 137.69 102.702 137.7 102.419C137.764 100.735 137.87 99.0322 138.015 97.3553C138.039 97.0754 138.286 96.8673 138.566 96.8913C138.846 96.9152 139.054 97.1616 139.03 97.4414C138.886 99.1016 138.781 100.79 138.719 102.455C138.707 102.723 138.499 102.931 138.243 102.948ZM348.28 86.129C348.029 86.1458 347.799 85.9735 347.749 85.7199C347.421 84.0837 347.048 82.4355 346.644 80.8185C346.574 80.5457 346.742 80.2683 347.014 80.2013C347.287 80.1319 347.565 80.2994 347.632 80.5721C348.041 82.2035 348.416 83.8684 348.749 85.5214C348.804 85.7965 348.627 86.0644 348.349 86.1218C348.325 86.1242 348.301 86.129 348.28 86.129ZM139.398 90.8917C139.362 90.8941 139.324 90.8917 139.288 90.887C139.011 90.8439 138.819 90.5832 138.862 90.3057C139.121 88.6384 139.422 86.9543 139.759 85.2989C139.817 85.0238 140.085 84.8468 140.36 84.9018C140.635 84.9569 140.812 85.2272 140.757 85.5023C140.422 87.1409 140.123 88.8082 139.869 90.4612C139.831 90.7028 139.63 90.8774 139.398 90.8917ZM345.223 74.4099C344.995 74.4243 344.778 74.2855 344.706 74.0583C344.194 72.4723 343.637 70.8743 343.048 69.3147C342.95 69.0515 343.082 68.7573 343.345 68.6592C343.608 68.5611 343.902 68.6927 344 68.9558C344.594 70.5323 345.156 72.1422 345.675 73.7449C345.761 74.0128 345.615 74.2999 345.347 74.386C345.306 74.4003 345.263 74.4075 345.223 74.4099ZM141.936 79.0291C141.881 79.0315 141.824 79.0267 141.769 79.0124C141.498 78.9382 141.338 78.6583 141.412 78.3857C141.86 76.759 142.352 75.1228 142.876 73.52C142.965 73.2521 143.252 73.1062 143.517 73.1947C143.785 73.2832 143.931 73.5703 143.843 73.8358C143.324 75.4242 142.836 77.0461 142.393 78.656C142.336 78.8689 142.147 79.0148 141.936 79.0291ZM340.847 63.119C340.642 63.1334 340.441 63.0209 340.352 62.8224C339.661 61.3034 338.924 59.782 338.161 58.3012C338.032 58.0525 338.13 57.7439 338.381 57.6147C338.632 57.4855 338.938 57.5836 339.068 57.8348C339.838 59.3322 340.582 60.868 341.28 62.4014C341.398 62.6573 341.283 62.9587 341.029 63.076C340.967 63.0999 340.907 63.1142 340.847 63.119ZM145.819 67.5397C145.744 67.5445 145.668 67.5325 145.596 67.5038C145.335 67.3986 145.209 67.1019 145.314 66.8412C145.943 65.2791 146.62 63.7099 147.326 62.1765C147.443 61.9205 147.744 61.8081 148 61.9277C148.256 62.0449 148.369 62.3464 148.249 62.6023C147.551 64.1189 146.881 65.6738 146.256 67.2215C146.182 67.4081 146.008 67.5277 145.819 67.5397ZM335.207 52.4094C335.023 52.4214 334.838 52.3329 334.738 52.163C333.879 50.7373 332.975 49.314 332.047 47.9289C331.891 47.6945 331.953 47.3787 332.186 47.2232C332.42 47.0677 332.736 47.1299 332.891 47.362C333.827 48.759 334.74 50.1967 335.606 51.6367C335.752 51.8783 335.673 52.1893 335.434 52.3352C335.365 52.3807 335.286 52.4046 335.207 52.4094ZM150.986 56.5741C150.892 56.5789 150.799 56.5598 150.711 56.5143C150.464 56.3804 150.371 56.0718 150.507 55.823C151.311 54.3422 152.16 52.8615 153.033 51.4214C153.179 51.1822 153.493 51.1033 153.732 51.2492C153.973 51.3951 154.05 51.7085 153.904 51.9477C153.038 53.3758 152.196 54.8422 151.402 56.3086C151.313 56.4689 151.153 56.5622 150.986 56.5741ZM328.382 42.4222C328.219 42.4318 328.052 42.3648 327.947 42.226C326.93 40.9056 325.865 39.5947 324.789 38.3245C324.607 38.1092 324.633 37.7886 324.846 37.6068C325.062 37.425 325.382 37.4514 325.564 37.6642C326.652 38.9464 327.724 40.2717 328.753 41.6041C328.925 41.8266 328.882 42.1471 328.659 42.317C328.576 42.3791 328.48 42.415 328.382 42.4222ZM157.363 46.2712C157.251 46.2783 157.136 46.2496 157.038 46.1803C156.808 46.02 156.751 45.7018 156.913 45.4722C157.88 44.0943 158.892 42.7188 159.923 41.3864C160.095 41.164 160.415 41.1233 160.638 41.2955C160.86 41.4678 160.901 41.7883 160.729 42.0108C159.707 43.3288 158.705 44.6923 157.748 46.0583C157.655 46.1874 157.511 46.2616 157.363 46.2712ZM320.457 33.2723C320.313 33.2818 320.167 33.2292 320.057 33.1192C318.897 31.9231 317.691 30.739 316.474 29.6003C316.268 29.409 316.259 29.086 316.45 28.8803C316.641 28.6746 316.964 28.665 317.17 28.8564C318.397 30.007 319.615 31.2031 320.787 32.4087C320.983 32.6096 320.978 32.9326 320.777 33.1287C320.689 33.2173 320.574 33.2627 320.457 33.2723ZM164.865 36.76C164.733 36.7696 164.599 36.7265 164.494 36.6332C164.284 36.4467 164.264 36.1261 164.451 35.9156C165.566 34.6549 166.728 33.4038 167.9 32.1982C168.097 31.9973 168.42 31.9925 168.621 32.1886C168.821 32.3848 168.826 32.7077 168.63 32.9087C167.467 34.1024 166.317 35.3415 165.212 36.5902C165.121 36.6954 164.994 36.7528 164.865 36.76ZM311.541 25.0768C311.417 25.084 311.29 25.0481 311.185 24.962C309.896 23.9047 308.563 22.8641 307.224 21.8689C306.999 21.7015 306.951 21.3833 307.118 21.1561C307.286 20.9312 307.604 20.8834 307.831 21.0508C309.183 22.0555 310.527 23.1057 311.831 24.1726C312.048 24.3496 312.08 24.6725 311.903 24.8878C311.809 25.005 311.678 25.0672 311.541 25.0768ZM173.395 28.1651C173.245 28.1746 173.091 28.1172 172.984 27.9976C172.795 27.7895 172.814 27.4665 173.022 27.2776C174.273 26.1533 175.567 25.0433 176.871 23.9788C177.089 23.8018 177.409 23.8329 177.586 24.0506C177.763 24.2683 177.732 24.5888 177.514 24.7658C176.225 25.8184 174.943 26.9188 173.704 28.0335C173.613 28.1148 173.505 28.1579 173.395 28.1651ZM301.75 17.9434C301.645 17.9506 301.537 17.9243 301.442 17.8621C300.04 16.9579 298.597 16.0752 297.155 15.2379C296.911 15.0968 296.83 14.7858 296.971 14.5418C297.112 14.2978 297.423 14.2165 297.667 14.3576C299.124 15.202 300.581 16.0943 301.997 17.0081C302.233 17.1612 302.3 17.4746 302.147 17.7114C302.054 17.8525 301.906 17.9315 301.75 17.9434ZM182.839 20.5987C182.67 20.6107 182.497 20.5341 182.392 20.3858C182.229 20.1562 182.282 19.838 182.512 19.6754C183.882 18.7018 185.294 17.7473 186.707 16.8383C186.944 16.6852 187.26 16.7545 187.411 16.9914C187.561 17.2282 187.494 17.5439 187.258 17.6947C185.856 18.5941 184.459 19.539 183.102 20.503C183.021 20.5628 182.933 20.5939 182.839 20.5987ZM291.211 11.9631C291.124 11.9679 291.036 11.9535 290.952 11.9105C289.457 11.1713 287.921 10.456 286.39 9.78863C286.132 9.6762 286.015 9.37719 286.127 9.11884C286.24 8.86049 286.539 8.74326 286.797 8.85569C288.342 9.53028 289.89 10.2503 291.402 10.9967C291.653 11.1211 291.758 11.4273 291.632 11.6784C291.55 11.8483 291.385 11.9511 291.211 11.9631ZM193.083 14.1639C192.891 14.1758 192.702 14.0801 192.604 13.9007C192.468 13.6543 192.559 13.3457 192.805 13.2094C194.281 12.3961 195.795 11.6091 197.307 10.8675C197.561 10.7431 197.864 10.8483 197.989 11.0995C198.113 11.3531 198.008 11.6569 197.757 11.7813C196.259 12.5157 194.759 13.2955 193.298 14.0993C193.228 14.1399 193.154 14.1591 193.083 14.1639ZM280.054 7.21948C279.987 7.22426 279.917 7.21469 279.848 7.19077C278.276 6.62623 276.669 6.09278 275.073 5.60478C274.805 5.52345 274.652 5.23878 274.736 4.96847C274.817 4.70055 275.102 4.54745 275.372 4.63118C276.984 5.12396 278.606 5.6622 280.195 6.23392C280.46 6.3296 280.597 6.62144 280.501 6.88457C280.429 7.08073 280.25 7.20752 280.054 7.21948ZM204.01 8.93943C203.797 8.95378 203.591 8.83178 203.505 8.62366C203.397 8.36292 203.524 8.06629 203.783 7.95864C205.34 7.32233 206.935 6.71234 208.521 6.15018C208.787 6.05689 209.076 6.19564 209.172 6.45878C209.265 6.72431 209.127 7.01375 208.863 7.10943C207.292 7.6668 205.711 8.26962 204.17 8.90114C204.117 8.92267 204.062 8.93464 204.01 8.93943ZM268.423 3.78437C268.375 3.78676 268.325 3.78436 268.275 3.7724C266.648 3.39204 264.988 3.04519 263.344 2.74378C263.067 2.69354 262.885 2.42802 262.935 2.15053C262.986 1.87304 263.251 1.69124 263.529 1.74147C265.189 2.04527 266.863 2.39453 268.507 2.77967C268.779 2.84425 268.952 3.11696 268.887 3.39205C268.834 3.61452 268.641 3.77001 268.423 3.78437ZM215.463 5.00196C215.229 5.01631 215.006 4.868 214.942 4.63118C214.865 4.36087 215.023 4.0786 215.294 4.00444C216.913 3.54993 218.566 3.12652 220.209 2.74857C220.484 2.68637 220.757 2.85621 220.819 3.1313C220.882 3.4064 220.712 3.67912 220.437 3.74131C218.81 4.11448 217.171 4.5331 215.569 4.98521C215.533 4.99478 215.497 4.99957 215.463 5.00196ZM256.479 1.70799C256.448 1.71038 256.419 1.71038 256.388 1.7056C254.733 1.51423 253.049 1.36352 251.384 1.25108C251.104 1.23195 250.891 0.990337 250.91 0.708064C250.929 0.428184 251.171 0.215288 251.453 0.234425C253.135 0.346856 254.833 0.499949 256.505 0.693712C256.785 0.72481 256.986 0.978388 256.953 1.25827C256.924 1.50705 256.721 1.69125 256.479 1.70799ZM227.29 2.39691C227.032 2.41366 226.797 2.23186 226.754 1.97112C226.709 1.69363 226.898 1.43289 227.175 1.38744C228.211 1.21999 229.266 1.0645 230.309 0.928152C230.938 0.844427 231.574 0.767871 232.201 0.696106C232.479 0.665009 232.732 0.865947 232.766 1.14344C232.797 1.42332 232.596 1.6745 232.318 1.70799C231.696 1.77976 231.067 1.85629 230.445 1.93763C229.412 2.07398 228.367 2.22708 227.34 2.39214C227.321 2.39453 227.305 2.39452 227.29 2.39691ZM244.387 1.01666C244.375 1.01666 244.365 1.01666 244.353 1.01666C242.688 1.01666 240.997 1.05733 239.33 1.13627C239.05 1.15062 238.811 0.93293 238.796 0.65305C238.782 0.375561 238.995 0.138746 239.272 0.122001C239.275 0.122001 239.277 0.122001 239.282 0.122001C240.966 0.0406687 242.672 0 244.353 0C244.636 0 244.863 0.227254 244.863 0.509527C244.863 0.779839 244.652 0.999915 244.387 1.01666Z" fill="#DEDEDE"/>
<path d="M261.109 63.2987V238.437H260.65L247.39 225.534L234.131 238.437H232.75L219.488 225.534L206.229 238.437H204.865L191.627 225.558L178.391 238.437H177.037L163.785 225.543L150.532 238.437H149.135L135.883 225.543L122.633 238.437H121.25L108.024 225.567L94.7979 238.437H93.9248V14.6234H212.436L261.109 63.2987Z" fill="#F2F2F2"/>
<path d="M261.111 63.2987H212.436V14.6234L261.111 63.2987Z" fill="#DEDEDE"/>
<path d="M138.916 154.41V147.861H121.238C119.008 147.861 117.334 147.356 116.219 146.346C115.104 145.337 114.547 143.964 114.547 142.227C114.547 141.782 114.628 141.33 114.793 140.871C114.958 140.414 115.205 139.933 115.532 139.426C115.86 138.921 116.202 138.436 116.554 137.964C116.905 137.495 117.341 136.919 117.858 136.24L136.521 111.273C137.741 109.629 138.746 108.438 139.533 107.699C140.32 106.96 141.265 106.589 142.367 106.589C145.937 106.589 147.721 108.632 147.721 112.715V139.971H149.235C151.044 139.971 152.493 140.218 153.584 140.71C154.675 141.203 155.223 142.285 155.223 143.949C155.223 145.311 154.775 146.303 153.886 146.925C152.993 147.547 151.656 147.858 149.872 147.858H147.723V154.408C147.723 156.216 147.324 157.558 146.527 158.439C145.728 159.319 144.662 159.759 143.322 159.759C142.006 159.759 140.944 159.307 140.136 158.403C139.327 157.499 138.916 156.171 138.916 154.41ZM123.773 139.971H138.916V119.511L123.773 139.971Z" fill="#262F5F"/>
<path d="M195.961 133.563C195.961 137.414 195.727 140.722 195.258 143.492C194.789 146.263 193.921 148.774 192.653 151.028C191.057 153.798 188.99 155.934 186.455 157.436C183.919 158.939 181.101 159.69 178.003 159.69C174.434 159.69 171.236 158.68 168.408 156.661C165.578 154.642 163.449 151.848 162.017 148.282C161.289 146.334 160.754 144.179 160.414 141.82C160.074 139.462 159.904 136.907 159.904 134.161C159.904 130.616 160.091 127.424 160.469 124.583C160.844 121.743 161.43 119.301 162.229 117.258C163.614 113.878 165.629 111.301 168.27 109.529C170.911 107.756 174.063 106.871 177.723 106.871C180.142 106.871 182.335 107.264 184.309 108.051C186.28 108.838 188.012 109.988 189.502 111.502C190.993 113.017 192.256 114.89 193.287 117.119C195.069 120.992 195.961 126.475 195.961 133.563ZM186.311 132.859C186.311 128.563 186.053 125.049 185.536 122.312C185.019 119.578 184.151 117.511 182.931 116.114C181.711 114.717 180.02 114.019 177.86 114.019C174.762 114.019 172.607 115.581 171.399 118.703C170.188 121.824 169.585 126.637 169.585 133.139C169.585 137.553 169.844 141.167 170.36 143.985C170.877 146.803 171.745 148.932 172.965 150.377C174.185 151.822 175.841 152.542 177.931 152.542C180.092 152.542 181.78 151.791 183.003 150.289C184.223 148.786 185.082 146.638 185.574 143.844C186.065 141.052 186.311 137.39 186.311 132.859Z" fill="#262F5F"/>
<path d="M224.623 154.41V147.861H206.945C204.715 147.861 203.041 147.356 201.926 146.346C200.811 145.337 200.254 143.964 200.254 142.227C200.254 141.782 200.335 141.33 200.5 140.871C200.665 140.414 200.912 139.933 201.239 139.426C201.567 138.921 201.909 138.436 202.261 137.964C202.613 137.495 203.048 136.919 203.565 136.24L222.228 111.273C223.448 109.629 224.453 108.438 225.24 107.699C226.027 106.96 226.972 106.589 228.074 106.589C231.644 106.589 233.428 108.632 233.428 112.715V139.971H234.942C236.751 139.971 238.2 140.218 239.291 140.71C240.382 141.203 240.93 142.285 240.93 143.949C240.93 145.311 240.485 146.303 239.593 146.925C238.7 147.547 237.363 147.858 235.579 147.858H233.43V154.408C233.43 156.216 233.031 157.558 232.232 158.439C231.433 159.319 230.366 159.759 229.027 159.759C227.711 159.759 226.649 159.307 225.84 158.403C225.032 157.499 224.623 156.171 224.623 154.41ZM209.483 139.971H224.625V119.511L209.483 139.971Z" fill="#262F5F"/>
<path d="M176.215 289.844C173.912 292.148 170.178 292.148 167.876 289.844L132.073 254.041L127.523 249.491C130.837 247.305 133.676 244.463 135.862 241.152L176.215 281.505C178.519 283.809 178.519 287.543 176.215 289.844Z" fill="#9C9C9C"/>
<path d="M137.675 242.965L147.005 252.297C144.818 255.61 141.979 258.45 138.668 260.636L133.889 255.854L129.339 251.304C132.65 249.12 135.491 246.278 137.675 242.965Z" fill="#5E5E5E"/>
<path d="M146.974 223.537C146.912 222.027 146.751 220.542 146.505 219.085C145.103 210.808 140.843 203.502 134.771 198.225C128.526 192.793 120.366 189.501 111.438 189.501C91.7966 189.501 75.8721 205.426 75.8721 225.07C75.8721 226.429 75.9487 227.771 76.097 229.091C76.5634 233.23 77.738 237.153 79.501 240.736C82.0319 245.886 85.7708 250.333 90.3493 253.711C91.0933 254.261 91.8612 254.78 92.6482 255.273C98.1023 258.672 104.542 260.636 111.438 260.636C119.132 260.636 126.253 258.194 132.071 254.044C135.29 251.747 138.111 248.927 140.41 245.707C142.718 242.47 144.498 238.832 145.622 234.916C146.519 231.79 147.002 228.488 147.002 225.075C147.007 224.556 146.995 224.044 146.974 223.537ZM111.441 254.309C105.042 254.309 99.1261 252.254 94.3107 248.769C89.6389 245.386 86.0052 240.655 83.9815 235.143C82.8284 232.002 82.2017 228.61 82.2017 225.07C82.2017 223.738 82.2902 222.427 82.4648 221.142C83.9192 210.298 91.3182 201.34 101.274 197.646C104.441 196.472 107.867 195.831 111.443 195.831C112.737 195.831 114.01 195.915 115.259 196.077C121.186 196.848 126.557 199.395 130.82 203.17C136.872 208.526 140.685 216.353 140.685 225.07C140.685 225.515 140.675 225.957 140.654 226.398C140.558 228.543 140.23 230.629 139.697 232.632C138.879 235.701 137.573 238.569 135.869 241.152C133.683 244.465 130.844 247.307 127.53 249.491C126.717 250.027 125.877 250.522 125.009 250.977C123.158 251.948 121.189 252.725 119.129 253.285C116.675 253.953 114.099 254.309 111.441 254.309Z" fill="#B8B8B8"/>
<path d="M89.2997 228.285C87.7927 228.285 86.5703 227.062 86.5703 225.553C86.5703 218.781 89.2088 212.413 93.9979 207.624C98.7869 202.835 105.155 200.196 111.927 200.196C113.434 200.196 114.659 201.419 114.659 202.928C114.659 204.438 113.436 205.658 111.927 205.658C106.612 205.658 101.617 207.727 97.8588 211.485C94.1008 215.243 92.0315 220.238 92.0315 225.553C92.0291 227.062 90.8068 228.285 89.2997 228.285Z" fill="white"/>
</svg>
