
<svg width="177" height="102" viewBox="0 0 177 102" fill="none" xmlns="http://www.w3.org/2000/svg">
<path d="M0 83.6877C28.8444 69.2982 58.3445 62.1035 88.5 62.1035C118.656 62.1035 148.156 69.2982 177 83.6877V102C148.156 87.6106 118.656 80.4158 88.5 80.4158C58.3444 80.4158 28.8444 87.6106 0 102V83.6877Z" fill="#D0D5DD"/>
<path d="M108.725 28.4518C105.447 25.1815 103.808 21.2571 103.808 16.6787C103.808 12.1002 105.447 8.17582 108.725 4.90549C112.003 1.63517 115.936 2.87045e-06 120.525 3.07058e-06C125.114 3.27071e-06 129.047 1.63517 132.325 4.90549C135.603 8.17582 137.242 12.1002 137.242 16.6787C137.242 21.2571 135.603 25.1815 132.325 28.4518C129.047 31.7222 125.114 33.3573 120.525 33.3573C115.936 33.3573 112.003 31.7222 108.725 28.4518ZM38.3183 28.4518C35.0406 25.1815 33.4017 21.2571 33.4017 16.6787C33.4017 12.1002 35.0406 8.17582 38.3183 4.90549C41.5961 1.63516 45.5294 -2.00131e-07 50.1183 0C54.7072 2.00131e-07 58.6406 1.63516 61.9183 4.90549C65.1961 8.17582 66.835 12.1002 66.835 16.6787C66.835 21.2571 65.1961 25.1815 61.9183 28.4518C58.6405 31.7222 54.7072 33.3573 50.1183 33.3573C45.5294 33.3573 41.5961 31.7222 38.3183 28.4518Z" fill="#D0D5DD"/>
</svg>
