<svg width="24" height="24" viewBox="0 0 24 24" fill="none" xmlns="http://www.w3.org/2000/svg">
<path d="M9.828 10.0684C9.144 10.0684 8.604 10.6684 8.604 11.4004C8.604 12.1324 9.156 12.7324 9.828 12.7324C10.512 12.7324 11.052 12.1324 11.052 11.4004C11.064 10.6684 10.512 10.0684 9.828 10.0684ZM14.208 10.0684C13.524 10.0684 12.984 10.6684 12.984 11.4004C12.984 12.1324 13.536 12.7324 14.208 12.7324C14.892 12.7324 15.432 12.1324 15.432 11.4004C15.432 10.6684 14.892 10.0684 14.208 10.0684Z" fill="#667085"/>
<path d="M20.04 0H3.96C2.604 0 1.5 1.104 1.5 2.472V18.696C1.5 20.064 2.604 21.168 3.96 21.168H17.568L16.932 18.948L18.468 20.376L19.92 21.72L22.5 24V2.472C22.5 1.104 21.396 0 20.04 0ZM15.408 15.672C15.408 15.672 14.976 15.156 14.616 14.7C16.188 14.256 16.788 13.272 16.788 13.272C16.296 13.596 15.828 13.824 15.408 13.98C14.808 14.232 14.232 14.4 13.668 14.496C12.6403 14.6852 11.5862 14.6812 10.56 14.484C9.95751 14.3661 9.36705 14.1934 8.796 13.968C8.49499 13.8522 8.2023 13.7159 7.92 13.56C7.884 13.536 7.848 13.524 7.812 13.5C7.788 13.488 7.776 13.476 7.764 13.464C7.548 13.344 7.428 13.26 7.428 13.26C7.428 13.26 8.004 14.22 9.528 14.676C9.168 15.132 8.724 15.672 8.724 15.672C6.072 15.588 5.064 13.848 5.064 13.848C5.064 9.984 6.792 6.852 6.792 6.852C8.52 5.556 10.164 5.592 10.164 5.592L10.284 5.736C8.124 6.36 7.128 7.308 7.128 7.308C7.128 7.308 7.392 7.164 7.836 6.96C9.12 6.396 10.14 6.24 10.56 6.204C10.632 6.192 10.692 6.18 10.764 6.18C12.8449 5.89835 14.9612 6.29384 16.8 7.308C16.8 7.308 15.852 6.408 13.812 5.784L13.98 5.592C13.98 5.592 15.624 5.556 17.352 6.852C17.352 6.852 19.08 9.984 19.08 13.848C19.08 13.848 18.06 15.588 15.408 15.672Z" fill="#667085"/>
</svg>
