<svg width="24" height="24" viewBox="0 0 24 24" fill="none" xmlns="http://www.w3.org/2000/svg">
<path d="M11.25 11.5C11.0511 11.5 10.8603 11.421 10.7197 11.2803C10.579 11.1397 10.5 10.9489 10.5 10.75C10.5 10.5511 10.579 10.3603 10.7197 10.2197C10.8603 10.079 11.0511 10 11.25 10H15.75C15.9489 10 16.1397 10.079 16.2803 10.2197C16.421 10.3603 16.5 10.5511 16.5 10.75C16.5 10.9489 16.421 11.1397 16.2803 11.2803C16.1397 11.421 15.9489 11.5 15.75 11.5H11.25ZM11.25 16C11.0511 16 10.8603 15.921 10.7197 15.7803C10.579 15.6397 10.5 15.4489 10.5 15.25C10.5 15.0511 10.579 14.8603 10.7197 14.7197C10.8603 14.579 11.0511 14.5 11.25 14.5H18.75C18.9489 14.5 19.1397 14.579 19.2803 14.7197C19.421 14.8603 19.5 15.0511 19.5 15.25C19.5 15.4489 19.421 15.6397 19.2803 15.7803C19.1397 15.921 18.9489 16 18.75 16H11.25ZM10.5 19.75C10.5 19.9489 10.579 20.1397 10.7197 20.2803C10.8603 20.421 11.0511 20.5 11.25 20.5H21.75C21.9489 20.5 22.1397 20.421 22.2803 20.2803C22.421 20.1397 22.5 19.9489 22.5 19.75C22.5 19.5511 22.421 19.3603 22.2803 19.2197C22.1397 19.079 21.9489 19 21.75 19H11.25C11.0511 19 10.8603 19.079 10.7197 19.2197C10.579 19.3603 10.5 19.5511 10.5 19.75Z" fill="#194185"/>
<path d="M5.75 20C5.75 20.4142 6.08579 20.75 6.5 20.75C6.91422 20.75 7.25 20.4142 7.25 20L5.75 20ZM7.25 4C7.25 3.58579 6.91421 3.25 6.5 3.25C6.08579 3.25 5.75 3.58579 5.75 4L7.25 4ZM0.967309 7.47204C0.675725 7.76624 0.677844 8.24111 0.972041 8.53269C1.26624 8.82427 1.74111 8.82216 2.03269 8.52796L0.967309 7.47204ZM3.24731 6.23703L3.78 6.76499L3.24731 6.23703ZM9.75269 6.23703L10.2854 5.70907L9.75269 6.23703ZM10.9673 8.52796C11.2589 8.82216 11.7338 8.82427 12.028 8.53269C12.3222 8.24111 12.3243 7.76624 12.0327 7.47204L10.9673 8.52796ZM6.18667 4.01989L6.09184 3.27591L6.09184 3.27591L6.18667 4.01989ZM6.81333 4.01989L6.90816 3.27591L6.90816 3.27591L6.81333 4.01989ZM7.25 20L7.25 4L5.75 4L5.75 20L7.25 20ZM2.03269 8.52796L3.78 6.76499L2.71462 5.70907L0.967309 7.47204L2.03269 8.52796ZM9.22 6.76499L10.9673 8.52796L12.0327 7.47204L10.2854 5.70907L9.22 6.76499ZM3.78 6.76499C4.48914 6.0495 4.97718 5.55869 5.3907 5.22659C5.7924 4.904 6.05042 4.79332 6.28149 4.76387L6.09184 3.27591C5.47372 3.35469 4.95878 3.64963 4.45146 4.05706C3.95597 4.45498 3.39892 5.01863 2.71462 5.70907L3.78 6.76499ZM10.2854 5.70907C9.60107 5.01863 9.04403 4.45498 8.54854 4.05706C8.04121 3.64963 7.52627 3.35469 6.90816 3.27591L6.7185 4.76387C6.94958 4.79332 7.2076 4.904 7.60929 5.22659C8.02282 5.55869 8.51086 6.0495 9.22 6.76499L10.2854 5.70907ZM6.28149 4.76387C6.42659 4.74538 6.57341 4.74538 6.7185 4.76387L6.90816 3.27591C6.63713 3.24136 6.36286 3.24136 6.09184 3.27591L6.28149 4.76387Z" fill="#194185"/>
</svg>
