<svg width="24" height="24" viewBox="0 0 24 24" fill="none" xmlns="http://www.w3.org/2000/svg">
<path d="M12 24C18.6274 24 24 18.6274 24 12C24 5.37258 18.6274 0 12 0C5.37258 0 0 5.37258 0 12C0 18.6274 5.37258 24 12 24Z" fill="#667085"/>
<path fill-rule="evenodd" clip-rule="evenodd" d="M5.43178 11.873C8.93001 10.3488 11.2627 9.34401 12.4299 8.85858C15.7624 7.47248 16.4549 7.23168 16.9062 7.22372C17.0055 7.22198 17.2274 7.24659 17.3712 7.36326C17.5845 7.53633 17.5857 7.91198 17.562 8.16061C17.3814 10.0581 16.6 14.6628 16.2025 16.788C16.0342 17.6872 15.703 17.9888 15.3824 18.0183C14.6856 18.0824 14.1564 17.5577 13.4814 17.1153C12.4253 16.423 11.8286 15.992 10.8034 15.3165C9.61865 14.5357 10.3867 14.1066 11.0619 13.4053C11.2386 13.2218 14.309 10.429 14.3684 10.1757C14.3759 10.144 14.3827 10.0259 14.3126 9.96351C14.2424 9.90117 14.1388 9.92245 14.0641 9.93942C13.9582 9.96347 12.271 11.0787 9.00248 13.285C8.52356 13.6139 8.08978 13.7741 7.70114 13.7657C7.27265 13.7565 6.4485 13.5234 5.8358 13.3243C5.0843 13.08 4.48702 12.9508 4.53905 12.536C4.56614 12.3198 4.8637 12.0989 5.43178 11.873Z" fill="white"/>
</svg>
