
<svg width="18" height="18" viewBox="0 0 18 18" fill="none" xmlns="http://www.w3.org/2000/svg">
<path d="M8.5 15.4167C8.5 15.6928 8.72385 15.9167 9 15.9167C9.27614 15.9167 9.5 15.6928 9.5 15.4167L8.5 15.4167ZM9.5 2.58333C9.5 2.30719 9.27614 2.08333 9 2.08333C8.72386 2.08333 8.5 2.30719 8.5 2.58333H9.5ZM11.3969 5.65368C11.535 5.89283 11.8408 5.97477 12.0799 5.8367C12.3191 5.69863 12.401 5.39283 12.2629 5.15368L11.3969 5.65368ZM11.4857 4.80739L11.9187 4.55739V4.55739L11.4857 4.80739ZM8.2025 8.70665L8.37511 8.23739L8.2025 8.70665ZM9.79759 9.29335L9.9702 8.82409L9.79759 9.29335ZM6.51443 13.1926L6.08142 13.4426L6.51443 13.1926ZM6.60318 12.3463C6.46511 12.1072 6.15931 12.0252 5.92017 12.1633C5.68102 12.3014 5.59908 12.6072 5.73715 12.8463L6.60318 12.3463ZM10.2172 14.1848L9.96717 13.7517L10.2172 14.1848ZM7.78292 3.81525L8.03292 4.24826L7.78292 3.81525ZM2.63932 16.3747L2.93321 15.9702L2.63932 16.3747ZM1.62534 15.3607L2.02985 15.0668L1.62534 15.3607ZM16.3747 15.3607L15.9702 15.0668L16.3747 15.3607ZM15.3607 16.3747L15.0668 15.9702L15.3607 16.3747ZM15.3607 1.62534L15.0668 2.02985L15.3607 1.62534ZM16.3747 2.63932L15.9702 2.93321L16.3747 2.63932ZM2.63932 1.62534L2.93321 2.02985L2.63932 1.62534ZM1.62534 2.63932L2.02985 2.93321L1.62534 2.63932ZM12.2629 5.15368L11.9187 4.55739L11.0526 5.05739L11.3969 5.65368L12.2629 5.15368ZM6.94745 12.9426L6.60318 12.3463L5.73715 12.8463L6.08142 13.4426L6.94745 12.9426ZM9.62499 9.76262C11.384 10.4096 11.5903 12.8146 9.96717 13.7517L10.4672 14.6178C12.8245 13.2567 12.5249 9.76376 9.9702 8.82409L9.62499 9.76262ZM7.53292 3.38224C5.17555 4.74327 5.47518 8.23624 8.0299 9.17591L8.37511 8.23739C6.6161 7.59039 6.4098 5.18537 8.03292 4.24826L7.53292 3.38224ZM9 16.75C7.27024 16.75 6.01307 16.7493 5.03635 16.6435C4.06897 16.5387 3.43617 16.3356 2.93321 15.9702L2.34543 16.7792C3.04727 17.2891 3.87618 17.5236 4.92863 17.6377C5.97173 17.7507 7.29251 17.75 9 17.75V16.75ZM0.25 9C0.25 10.7075 0.249314 12.0283 0.362326 13.0714C0.476353 14.1238 0.710914 14.9527 1.22083 15.6546L2.02985 15.0668C1.66443 14.5638 1.46132 13.931 1.35651 12.9637C1.25069 11.9869 1.25 10.7298 1.25 9H0.25ZM2.93321 15.9702C2.58656 15.7183 2.28171 15.4134 2.02985 15.0668L1.22083 15.6546C1.53437 16.0861 1.91388 16.4656 2.34543 16.7792L2.93321 15.9702ZM16.75 9C16.75 10.7298 16.7493 11.9869 16.6435 12.9637C16.5387 13.931 16.3356 14.5638 15.9702 15.0668L16.7792 15.6546C17.2891 14.9527 17.5236 14.1238 17.6377 13.0714C17.7507 12.0283 17.75 10.7075 17.75 9H16.75ZM9 17.75C10.7075 17.75 12.0283 17.7507 13.0714 17.6377C14.1238 17.5236 14.9527 17.2891 15.6546 16.7792L15.0668 15.9702C14.5638 16.3356 13.931 16.5387 12.9637 16.6435C11.9869 16.7493 10.7298 16.75 9 16.75V17.75ZM15.9702 15.0668C15.7183 15.4134 15.4134 15.7183 15.0668 15.9702L15.6546 16.7792C16.0861 16.4656 16.4656 16.0861 16.7792 15.6546L15.9702 15.0668ZM9 1.25C10.7298 1.25 11.9869 1.25069 12.9637 1.35651C13.931 1.46132 14.5638 1.66443 15.0668 2.02985L15.6546 1.22083C14.9527 0.710914 14.1238 0.476353 13.0714 0.362326C12.0283 0.249314 10.7075 0.25 9 0.25V1.25ZM17.75 9C17.75 7.29251 17.7507 5.97173 17.6377 4.92863C17.5236 3.87618 17.2891 3.04727 16.7792 2.34543L15.9702 2.93321C16.3356 3.43617 16.5387 4.06897 16.6435 5.03635C16.7493 6.01307 16.75 7.27024 16.75 9H17.75ZM15.0668 2.02985C15.4134 2.28171 15.7183 2.58656 15.9702 2.93321L16.7792 2.34543C16.4656 1.91388 16.0861 1.53437 15.6546 1.22083L15.0668 2.02985ZM9 0.25C7.29251 0.25 5.97173 0.249314 4.92863 0.362326C3.87618 0.476353 3.04727 0.710914 2.34543 1.22083L2.93321 2.02985C3.43617 1.66443 4.06897 1.46132 5.03635 1.35651C6.01307 1.25069 7.27024 1.25 9 1.25V0.25ZM1.25 9C1.25 7.27024 1.25069 6.01307 1.35651 5.03635C1.46132 4.06897 1.66443 3.43617 2.02985 2.93321L1.22083 2.34543C0.710914 3.04727 0.476353 3.87618 0.362326 4.92863C0.249314 5.97173 0.25 7.29251 0.25 9H1.25ZM2.34543 1.22083C1.91388 1.53437 1.53437 1.91388 1.22083 2.34543L2.02985 2.93321C2.28171 2.58656 2.58656 2.28171 2.93321 2.02985L2.34543 1.22083ZM11.9187 4.55739C11.295 3.4771 10.1386 2.89723 8.97491 2.95568L9.02508 3.95442C9.82866 3.91406 10.6238 4.31463 11.0526 5.05739L11.9187 4.55739ZM8.97491 2.95568C8.48221 2.98043 7.98808 3.11945 7.53292 3.38224L8.03292 4.24826C8.34762 4.06657 8.68704 3.9714 9.02508 3.95442L8.97491 2.95568ZM9.5 3.45505V2.58333H8.5V3.45505H9.5ZM9.50005 9L9.5 3.45505L8.5 3.45506L8.50005 9.00001L9.50005 9ZM8.0299 9.17591L8.82744 9.46926L9.17265 8.53074L8.37511 8.23739L8.0299 9.17591ZM8.82744 9.46926L9.62499 9.76262L9.9702 8.82409L9.17265 8.53074L8.82744 9.46926ZM9.5 15.4167L9.50001 14.545L8.50001 14.5449L8.5 15.4167L9.5 15.4167ZM9.50001 14.545L9.50005 9.00001L8.50005 9L8.50001 14.5449L9.50001 14.545ZM9.96717 13.7517C9.65245 13.9334 9.313 14.0286 8.97494 14.0456L9.02507 15.0443C9.51781 15.0196 10.012 14.8806 10.4672 14.6178L9.96717 13.7517ZM8.97494 14.0456C8.17138 14.0859 7.37627 13.6854 6.94745 12.9426L6.08142 13.4426C6.70511 14.5229 7.86143 15.1027 9.02507 15.0443L8.97494 14.0456Z" fill="#038AE4"/>
</svg>
