
<svg width="20" height="20" viewBox="0 0 20 20" fill="none" xmlns="http://www.w3.org/2000/svg">
<path d="M9.25 17C9.25 17.4142 9.58578 17.75 9.99999 17.75C10.4142 17.75 10.75 17.4142 10.75 17L9.25 17ZM10.75 3C10.75 2.58579 10.4142 2.25 10 2.25C9.58579 2.25 9.25 2.58579 9.25 3H10.75ZM12.4377 6.45175C12.6448 6.81047 13.1035 6.93337 13.4622 6.72626C13.8209 6.51916 13.9438 6.06047 13.7367 5.70175L12.4377 6.45175ZM12.7116 5.42625L13.3611 5.05125L12.7116 5.42625ZM9.13 9.67998L9.38891 8.97609L9.13 9.67998ZM10.8701 10.32L11.129 9.61613L11.129 9.61613L10.8701 10.32ZM7.28847 14.5738L6.63895 14.9488H6.63895L7.28847 14.5738ZM7.56243 13.5483C7.35532 13.1895 6.89663 13.0666 6.53791 13.2737C6.17919 13.4808 6.05628 13.9395 6.26339 14.2983L7.56243 13.5483ZM11.3278 15.6561L10.9528 15.0066L11.3278 15.6561ZM8.67228 4.34391L9.04728 4.99343L8.67228 4.34391ZM3.06107 18.0451L3.50191 17.4383L3.06107 18.0451ZM1.95491 16.9389L2.56168 16.4981L1.95491 16.9389ZM18.0451 16.9389L17.4383 16.4981L18.0451 16.9389ZM16.9389 18.0451L16.4981 17.4383L16.9389 18.0451ZM16.9389 1.95491L16.4981 2.56168L16.9389 1.95491ZM18.0451 3.06107L17.4383 3.50191L18.0451 3.06107ZM3.06107 1.95491L3.50191 2.56168L3.06107 1.95491ZM1.95491 3.06107L2.56168 3.50191L1.95491 3.06107ZM13.7367 5.70175L13.3611 5.05125L12.0621 5.80125L12.4377 6.45175L13.7367 5.70175ZM7.93799 14.1988L7.56243 13.5483L6.26339 14.2983L6.63895 14.9488L7.93799 14.1988ZM10.6112 11.0239C12.3673 11.6699 12.5733 14.071 10.9528 15.0066L11.7028 16.3056C14.4247 14.7341 14.0787 10.7011 11.129 9.61613L10.6112 11.0239ZM8.29728 3.69439C5.57541 5.26586 5.92137 9.29891 8.8711 10.3839L9.38891 8.97609C7.63275 8.33014 7.42679 5.92902 9.04728 4.99343L8.29728 3.69439ZM10 18.25C8.10843 18.25 6.74999 18.249 5.69804 18.135C4.66013 18.0225 4.00992 17.8074 3.50191 17.4383L2.62023 18.6518C3.42656 19.2377 4.37094 19.5 5.53648 19.6263C6.68798 19.751 8.14184 19.75 10 19.75V18.25ZM0.25 10C0.25 11.8582 0.248971 13.312 0.373728 14.4635C0.500006 15.6291 0.762324 16.5734 1.34815 17.3798L2.56168 16.4981C2.19259 15.9901 1.97745 15.3399 1.865 14.302C1.75103 13.25 1.75 11.8916 1.75 10H0.25ZM3.50191 17.4383C3.14111 17.1762 2.82382 16.8589 2.56168 16.4981L1.34815 17.3798C1.70281 17.8679 2.13209 18.2972 2.62023 18.6518L3.50191 17.4383ZM18.25 10C18.25 11.8916 18.249 13.25 18.135 14.302C18.0225 15.3399 17.8074 15.9901 17.4383 16.4981L18.6518 17.3798C19.2377 16.5734 19.5 15.6291 19.6263 14.4635C19.751 13.312 19.75 11.8582 19.75 10H18.25ZM10 19.75C11.8582 19.75 13.312 19.751 14.4635 19.6263C15.6291 19.5 16.5734 19.2377 17.3798 18.6518L16.4981 17.4383C15.9901 17.8074 15.3399 18.0225 14.302 18.135C13.25 18.249 11.8916 18.25 10 18.25V19.75ZM17.4383 16.4981C17.1762 16.8589 16.8589 17.1762 16.4981 17.4383L17.3798 18.6518C17.8679 18.2972 18.2972 17.8679 18.6518 17.3798L17.4383 16.4981ZM10 1.75C11.8916 1.75 13.25 1.75103 14.302 1.865C15.3399 1.97745 15.9901 2.19259 16.4981 2.56168L17.3798 1.34815C16.5734 0.762324 15.6291 0.500006 14.4635 0.373728C13.312 0.248971 11.8582 0.25 10 0.25V1.75ZM19.75 10C19.75 8.14184 19.751 6.68798 19.6263 5.53648C19.5 4.37094 19.2377 3.42656 18.6518 2.62023L17.4383 3.50191C17.8074 4.00992 18.0225 4.66013 18.135 5.69804C18.249 6.74999 18.25 8.10843 18.25 10H19.75ZM16.4981 2.56168C16.8589 2.82382 17.1762 3.14111 17.4383 3.50191L18.6518 2.62023C18.2972 2.13209 17.8679 1.70281 17.3798 1.34815L16.4981 2.56168ZM10 0.25C8.14184 0.25 6.68798 0.248971 5.53648 0.373728C4.37094 0.500006 3.42656 0.762324 2.62023 1.34815L3.50191 2.56168C4.00992 2.19259 4.66013 1.97745 5.69804 1.865C6.74999 1.75103 8.10843 1.75 10 1.75V0.25ZM1.75 10C1.75 8.10843 1.75103 6.74999 1.865 5.69804C1.97745 4.66013 2.19259 4.00992 2.56168 3.50191L1.34815 2.62023C0.762324 3.42656 0.500006 4.37094 0.373728 5.53648C0.248971 6.68798 0.25 8.14184 0.25 10H1.75ZM2.62023 1.34815C2.13209 1.70281 1.70281 2.13209 1.34815 2.62023L2.56168 3.50191C2.82382 3.14111 3.14111 2.82382 3.50191 2.56168L2.62023 1.34815ZM13.3611 5.05125C12.6409 3.80371 11.3055 3.13444 9.96237 3.20191L10.0376 4.70002C10.8406 4.65969 11.6341 5.06 12.0621 5.80125L13.3611 5.05125ZM9.96237 3.20191C9.39324 3.2305 8.82255 3.39113 8.29728 3.69439L9.04728 4.99343C9.36185 4.81181 9.70049 4.71696 10.0376 4.70002L9.96237 3.20191ZM10.75 3.95097V3H9.25V3.95097H10.75ZM10.7501 10L10.75 3.95096L9.25 3.95097L9.25005 10L10.7501 10ZM8.8711 10.3839L9.74115 10.7039L10.259 9.29611L9.38891 8.97609L8.8711 10.3839ZM9.74115 10.7039L10.6112 11.0239L11.129 9.61613L10.259 9.29611L9.74115 10.7039ZM10.75 17L10.75 16.049L9.25001 16.049L9.25 17L10.75 17ZM10.75 16.049L10.7501 10L9.25005 10L9.25001 16.049L10.75 16.049ZM10.9528 15.0066C10.6382 15.1882 10.2996 15.2831 9.9624 15.3L10.0376 16.7981C10.6068 16.7695 11.1775 16.6089 11.7028 16.3056L10.9528 15.0066ZM9.9624 15.3C9.15945 15.3403 8.36594 14.94 7.93799 14.1988L6.63895 14.9488C7.3592 16.1963 8.69452 16.8655 10.0376 16.7981L9.9624 15.3Z" fill="white"/>
</svg>
