
<svg width="22" height="23" viewBox="0 0 22 23" fill="none" xmlns="http://www.w3.org/2000/svg">
<path d="M11.75 8.25C11.75 7.83579 11.4142 7.5 11 7.5C10.5858 7.5 10.25 7.83579 10.25 8.25H11.75ZM8.4543 14.8568C8.17015 15.1582 8.18412 15.6329 8.4855 15.917C8.78689 16.2012 9.26156 16.1872 9.5457 15.8858L8.4543 14.8568ZM1.53148 2.66435C1.20803 2.92311 1.15559 3.39507 1.41435 3.71852C1.67311 4.04197 2.14507 4.09441 2.46852 3.83565L1.53148 2.66435ZM4.96852 1.83565C5.29197 1.57689 5.34441 1.10493 5.08565 0.781479C4.82689 0.458032 4.35493 0.405591 4.03148 0.664348L4.96852 1.83565ZM19.5315 3.83565C19.8549 4.09441 20.3269 4.04197 20.5857 3.71852C20.8444 3.39507 20.792 2.92311 20.4685 2.66435L19.5315 3.83565ZM17.9685 0.664348C17.6451 0.405591 17.1731 0.458032 16.9143 0.781479C16.6556 1.10493 16.708 1.57689 17.0315 1.83565L17.9685 0.664348ZM10.4552 13.8278L9.90951 13.3133L10.4552 13.8278ZM10.25 8.25V12.4558H11.75V8.25H10.25ZM9.5457 15.8858L11.0009 14.3423L9.90951 13.3133L8.4543 14.8568L9.5457 15.8858ZM2.46852 3.83565L4.96852 1.83565L4.03148 0.664348L1.53148 2.66435L2.46852 3.83565ZM20.4685 2.66435L17.9685 0.664348L17.0315 1.83565L19.5315 3.83565L20.4685 2.66435ZM20.25 12.25C20.25 17.3586 16.1086 21.5 11 21.5V23C16.9371 23 21.75 18.1871 21.75 12.25H20.25ZM11 21.5C5.89137 21.5 1.75 17.3586 1.75 12.25H0.25C0.25 18.1871 5.06294 23 11 23V21.5ZM1.75 12.25C1.75 7.14136 5.89137 3 11 3V1.5C5.06294 1.5 0.25 6.31294 0.25 12.25H1.75ZM11 3C16.1086 3 20.25 7.14136 20.25 12.25H21.75C21.75 6.31294 16.9371 1.5 11 1.5V3ZM10.25 12.4558C10.25 12.7746 10.1282 13.0814 9.90951 13.3133L11.0009 14.3423C11.482 13.832 11.75 13.1572 11.75 12.4558H10.25Z" fill="white"/>
</svg>
