<svg width="105" height="105" viewBox="0 0 105 105" fill="none" xmlns="http://www.w3.org/2000/svg">
<mask id="path-1-inside-1_603_1110" fill="white">
<path d="M99.8556 20.8315H93.2023V6.73797C93.2023 3.00401 90.1704 0 86.4648 0H74.9549C74.4496 0 73.9443 0.0561493 73.467 0.168449C70.379 0.842246 68.1893 3.59358 68.1893 6.76604V11.1738C66.8418 10.6684 65.4381 10.1912 64.0345 9.8262C40.4251 3.48128 16.17 17.4906 9.82555 41.0735C8.81492 44.8075 8.3096 48.6257 8.3096 52.5C8.3096 58.4238 9.48867 64.2914 11.8187 69.7099V75.5214H5.13736C2.30199 75.5214 0 77.8235 0 80.6591C0 82.0348 0.533387 83.3262 1.51594 84.3088L20.6898 103.484C21.6443 104.467 22.9637 105 24.3393 105C25.6868 105 27.0062 104.467 27.9607 103.484L37.4213 94.0508C60.385 102.389 85.763 90.5134 94.0726 67.5481C95.8131 62.7193 96.7114 57.6377 96.7114 52.5C96.7114 47.7834 95.9535 43.123 94.4656 38.631L103.505 29.5909C105.498 27.5695 105.498 24.3409 103.505 22.3195C102.523 21.393 101.231 20.8315 99.8556 20.8315ZM17.5175 32.5668C27.6238 14.8516 49.3523 7.49599 68.1612 15.385V20.8315H63.3327C62.6308 20.5789 61.929 20.3543 61.2272 20.1578C46.5169 16.1992 30.9645 22.6564 23.4409 35.9078C20.1845 41.5789 18.6685 48.1484 19.1177 54.6898C16.5069 54.5214 13.8681 55.8971 12.6328 58.1992C11.3415 49.3556 13.082 40.3436 17.5175 32.5668ZM48.6224 80.8556C48.6505 79.8168 48.3698 78.7781 47.8083 77.9078C46.8819 76.4198 45.2256 75.5214 43.4851 75.5495H36.8037V61.4559C36.8037 57.7219 33.7718 54.7179 30.0662 54.7179H23.0199C22.9637 53.988 22.9356 53.258 22.9356 52.5281C22.9637 39.1644 31.919 27.4853 44.8045 24.004C48.8189 22.9372 53.0018 22.7126 57.1005 23.3583C55.8652 25.3797 56.2021 27.9626 57.8584 29.6471L77.0323 48.8222C77.9868 49.8048 79.3062 50.3382 80.6818 50.3382H80.7379C80.9906 50.3102 81.2713 50.2821 81.524 50.254C81.6362 50.2259 81.7205 50.2259 81.8328 50.1979C81.8889 50.1979 81.917 50.1979 81.9731 50.1698C82.0293 50.9559 82.0573 51.742 82.0573 52.5281C82.0573 68.8396 68.8069 82.0628 52.4965 82.0628C51.1771 82.0628 49.8576 81.9786 48.5382 81.7821C48.5663 81.4733 48.6224 81.1644 48.6224 80.8556ZM25.1534 100.733C24.9288 100.957 24.6481 101.07 24.3112 101.07C24.0024 101.041 23.6936 100.929 23.4409 100.705L4.26709 81.5294C3.78985 81.0521 3.78985 80.2941 4.26709 79.8168C4.49168 79.5922 4.80048 79.4519 5.13736 79.4519H13.7558C14.8506 79.4519 15.7209 78.5816 15.7209 77.4866V61.4278C15.7209 60.1083 16.6473 58.9572 17.9386 58.6765C18.1351 58.6203 18.3317 58.6203 18.5562 58.6203H30.0662C31.6102 58.6203 32.8735 59.8837 32.8735 61.4278V77.4866C32.8735 78.5816 33.7437 79.4519 34.8386 79.4519H43.5131C43.9342 79.4238 44.2992 79.6484 44.5238 79.9853C44.7483 80.3503 44.7764 80.7714 44.608 81.1644C44.5518 81.2767 44.4676 81.4171 44.3834 81.5013L25.1534 100.733ZM87.4754 72.4612C78.0991 88.885 58.5603 96.6056 40.4812 90.9626L46.0958 85.3476C48.2013 85.7687 50.3349 85.9652 52.4965 85.9652C70.9404 85.9933 85.9314 71.0575 85.9595 52.5842C85.9595 50.8717 85.8472 49.1872 85.5665 47.5027L91.2934 41.7754C94.1849 52.107 92.7812 63.1404 87.4754 72.4612ZM100.95 26.4746C100.894 26.615 100.81 26.7273 100.698 26.8115L90.8161 36.6938C90.8161 36.6938 90.788 36.6939 90.788 36.7219L81.4959 46.0147C81.2713 46.2393 80.9906 46.3516 80.6537 46.3516C80.3449 46.3516 80.0361 46.2112 79.8115 45.9866L60.6377 26.8396C60.1604 26.3623 60.1604 25.6043 60.6377 25.127C60.8622 24.9024 61.171 24.762 61.5079 24.762H70.1263C71.2212 24.762 72.0914 23.8917 72.0914 22.7968V6.73797C72.0914 5.41845 73.0178 4.26738 74.3092 3.98663C74.5057 3.93048 74.7022 3.93048 74.9268 3.93048H86.4367C87.9807 3.93048 89.244 5.19385 89.244 6.73797V22.7968C89.244 23.8917 90.1143 24.762 91.2091 24.762H99.8556C100.277 24.734 100.642 24.9586 100.866 25.2955C101.091 25.6604 101.119 26.1096 100.95 26.4746Z"/>
<path d="M50.5314 67.2674C50.5314 68.3623 51.4016 69.2326 52.4965 69.2326C53.5913 69.2326 54.4616 68.3623 54.4616 67.2674V64.8249C58.3918 64.516 61.3395 61.0628 61.0026 57.1043C60.6938 53.3984 57.6058 50.5348 53.8721 50.5348H51.1209C49.3242 50.5067 47.9206 49.0187 47.9487 47.25C47.9767 45.5094 49.3804 44.1056 51.1209 44.0775H57.69C58.7848 44.0775 59.6551 43.2072 59.6551 42.1123C59.6551 41.0174 58.7848 40.1471 57.69 40.1471H54.4616V37.7326C54.4616 36.6377 53.5913 35.7674 52.4965 35.7674C51.4016 35.7674 50.5314 36.6377 50.5314 37.7326V40.1751C46.6012 40.484 43.6535 43.9372 43.9904 47.8957C44.2992 51.6016 47.3872 54.4652 51.1209 54.4652H53.8721C55.6687 54.4652 57.1005 55.9251 57.1005 57.6939C57.1005 59.4626 55.6407 60.9225 53.8721 60.9225H47.303C46.2081 60.9225 45.3379 61.7928 45.3379 62.8877C45.3379 63.9826 46.2081 64.8529 47.303 64.8529H50.5314V67.2674Z"/>
</mask>
<path d="M99.8556 20.8315H93.2023V6.73797C93.2023 3.00401 90.1704 0 86.4648 0H74.9549C74.4496 0 73.9443 0.0561493 73.467 0.168449C70.379 0.842246 68.1893 3.59358 68.1893 6.76604V11.1738C66.8418 10.6684 65.4381 10.1912 64.0345 9.8262C40.4251 3.48128 16.17 17.4906 9.82555 41.0735C8.81492 44.8075 8.3096 48.6257 8.3096 52.5C8.3096 58.4238 9.48867 64.2914 11.8187 69.7099V75.5214H5.13736C2.30199 75.5214 0 77.8235 0 80.6591C0 82.0348 0.533387 83.3262 1.51594 84.3088L20.6898 103.484C21.6443 104.467 22.9637 105 24.3393 105C25.6868 105 27.0062 104.467 27.9607 103.484L37.4213 94.0508C60.385 102.389 85.763 90.5134 94.0726 67.5481C95.8131 62.7193 96.7114 57.6377 96.7114 52.5C96.7114 47.7834 95.9535 43.123 94.4656 38.631L103.505 29.5909C105.498 27.5695 105.498 24.3409 103.505 22.3195C102.523 21.393 101.231 20.8315 99.8556 20.8315ZM17.5175 32.5668C27.6238 14.8516 49.3523 7.49599 68.1612 15.385V20.8315H63.3327C62.6308 20.5789 61.929 20.3543 61.2272 20.1578C46.5169 16.1992 30.9645 22.6564 23.4409 35.9078C20.1845 41.5789 18.6685 48.1484 19.1177 54.6898C16.5069 54.5214 13.8681 55.8971 12.6328 58.1992C11.3415 49.3556 13.082 40.3436 17.5175 32.5668ZM48.6224 80.8556C48.6505 79.8168 48.3698 78.7781 47.8083 77.9078C46.8819 76.4198 45.2256 75.5214 43.4851 75.5495H36.8037V61.4559C36.8037 57.7219 33.7718 54.7179 30.0662 54.7179H23.0199C22.9637 53.988 22.9356 53.258 22.9356 52.5281C22.9637 39.1644 31.919 27.4853 44.8045 24.004C48.8189 22.9372 53.0018 22.7126 57.1005 23.3583C55.8652 25.3797 56.2021 27.9626 57.8584 29.6471L77.0323 48.8222C77.9868 49.8048 79.3062 50.3382 80.6818 50.3382H80.7379C80.9906 50.3102 81.2713 50.2821 81.524 50.254C81.6362 50.2259 81.7205 50.2259 81.8328 50.1979C81.8889 50.1979 81.917 50.1979 81.9731 50.1698C82.0293 50.9559 82.0573 51.742 82.0573 52.5281C82.0573 68.8396 68.8069 82.0628 52.4965 82.0628C51.1771 82.0628 49.8576 81.9786 48.5382 81.7821C48.5663 81.4733 48.6224 81.1644 48.6224 80.8556ZM25.1534 100.733C24.9288 100.957 24.6481 101.07 24.3112 101.07C24.0024 101.041 23.6936 100.929 23.4409 100.705L4.26709 81.5294C3.78985 81.0521 3.78985 80.2941 4.26709 79.8168C4.49168 79.5922 4.80048 79.4519 5.13736 79.4519H13.7558C14.8506 79.4519 15.7209 78.5816 15.7209 77.4866V61.4278C15.7209 60.1083 16.6473 58.9572 17.9386 58.6765C18.1351 58.6203 18.3317 58.6203 18.5562 58.6203H30.0662C31.6102 58.6203 32.8735 59.8837 32.8735 61.4278V77.4866C32.8735 78.5816 33.7437 79.4519 34.8386 79.4519H43.5131C43.9342 79.4238 44.2992 79.6484 44.5238 79.9853C44.7483 80.3503 44.7764 80.7714 44.608 81.1644C44.5518 81.2767 44.4676 81.4171 44.3834 81.5013L25.1534 100.733ZM87.4754 72.4612C78.0991 88.885 58.5603 96.6056 40.4812 90.9626L46.0958 85.3476C48.2013 85.7687 50.3349 85.9652 52.4965 85.9652C70.9404 85.9933 85.9314 71.0575 85.9595 52.5842C85.9595 50.8717 85.8472 49.1872 85.5665 47.5027L91.2934 41.7754C94.1849 52.107 92.7812 63.1404 87.4754 72.4612ZM100.95 26.4746C100.894 26.615 100.81 26.7273 100.698 26.8115L90.8161 36.6938C90.8161 36.6938 90.788 36.6939 90.788 36.7219L81.4959 46.0147C81.2713 46.2393 80.9906 46.3516 80.6537 46.3516C80.3449 46.3516 80.0361 46.2112 79.8115 45.9866L60.6377 26.8396C60.1604 26.3623 60.1604 25.6043 60.6377 25.127C60.8622 24.9024 61.171 24.762 61.5079 24.762H70.1263C71.2212 24.762 72.0914 23.8917 72.0914 22.7968V6.73797C72.0914 5.41845 73.0178 4.26738 74.3092 3.98663C74.5057 3.93048 74.7022 3.93048 74.9268 3.93048H86.4367C87.9807 3.93048 89.244 5.19385 89.244 6.73797V22.7968C89.244 23.8917 90.1143 24.762 91.2091 24.762H99.8556C100.277 24.734 100.642 24.9586 100.866 25.2955C101.091 25.6604 101.119 26.1096 100.95 26.4746Z" fill="url(#paint0_linear_603_1110)"/>
<path d="M50.5314 67.2674C50.5314 68.3623 51.4016 69.2326 52.4965 69.2326C53.5913 69.2326 54.4616 68.3623 54.4616 67.2674V64.8249C58.3918 64.516 61.3395 61.0628 61.0026 57.1043C60.6938 53.3984 57.6058 50.5348 53.8721 50.5348H51.1209C49.3242 50.5067 47.9206 49.0187 47.9487 47.25C47.9767 45.5094 49.3804 44.1056 51.1209 44.0775H57.69C58.7848 44.0775 59.6551 43.2072 59.6551 42.1123C59.6551 41.0174 58.7848 40.1471 57.69 40.1471H54.4616V37.7326C54.4616 36.6377 53.5913 35.7674 52.4965 35.7674C51.4016 35.7674 50.5314 36.6377 50.5314 37.7326V40.1751C46.6012 40.484 43.6535 43.9372 43.9904 47.8957C44.2992 51.6016 47.3872 54.4652 51.1209 54.4652H53.8721C55.6687 54.4652 57.1005 55.9251 57.1005 57.6939C57.1005 59.4626 55.6407 60.9225 53.8721 60.9225H47.303C46.2081 60.9225 45.3379 61.7928 45.3379 62.8877C45.3379 63.9826 46.2081 64.8529 47.303 64.8529H50.5314V67.2674Z" fill="url(#paint1_linear_603_1110)"/>
<path d="M99.8556 20.8315H93.2023V6.73797C93.2023 3.00401 90.1704 0 86.4648 0H74.9549C74.4496 0 73.9443 0.0561493 73.467 0.168449C70.379 0.842246 68.1893 3.59358 68.1893 6.76604V11.1738C66.8418 10.6684 65.4381 10.1912 64.0345 9.8262C40.4251 3.48128 16.17 17.4906 9.82555 41.0735C8.81492 44.8075 8.3096 48.6257 8.3096 52.5C8.3096 58.4238 9.48867 64.2914 11.8187 69.7099V75.5214H5.13736C2.30199 75.5214 0 77.8235 0 80.6591C0 82.0348 0.533387 83.3262 1.51594 84.3088L20.6898 103.484C21.6443 104.467 22.9637 105 24.3393 105C25.6868 105 27.0062 104.467 27.9607 103.484L37.4213 94.0508C60.385 102.389 85.763 90.5134 94.0726 67.5481C95.8131 62.7193 96.7114 57.6377 96.7114 52.5C96.7114 47.7834 95.9535 43.123 94.4656 38.631L103.505 29.5909C105.498 27.5695 105.498 24.3409 103.505 22.3195C102.523 21.393 101.231 20.8315 99.8556 20.8315ZM17.5175 32.5668C27.6238 14.8516 49.3523 7.49599 68.1612 15.385V20.8315H63.3327C62.6308 20.5789 61.929 20.3543 61.2272 20.1578C46.5169 16.1992 30.9645 22.6564 23.4409 35.9078C20.1845 41.5789 18.6685 48.1484 19.1177 54.6898C16.5069 54.5214 13.8681 55.8971 12.6328 58.1992C11.3415 49.3556 13.082 40.3436 17.5175 32.5668ZM48.6224 80.8556C48.6505 79.8168 48.3698 78.7781 47.8083 77.9078C46.8819 76.4198 45.2256 75.5214 43.4851 75.5495H36.8037V61.4559C36.8037 57.7219 33.7718 54.7179 30.0662 54.7179H23.0199C22.9637 53.988 22.9356 53.258 22.9356 52.5281C22.9637 39.1644 31.919 27.4853 44.8045 24.004C48.8189 22.9372 53.0018 22.7126 57.1005 23.3583C55.8652 25.3797 56.2021 27.9626 57.8584 29.6471L77.0323 48.8222C77.9868 49.8048 79.3062 50.3382 80.6818 50.3382H80.7379C80.9906 50.3102 81.2713 50.2821 81.524 50.254C81.6362 50.2259 81.7205 50.2259 81.8328 50.1979C81.8889 50.1979 81.917 50.1979 81.9731 50.1698C82.0293 50.9559 82.0573 51.742 82.0573 52.5281C82.0573 68.8396 68.8069 82.0628 52.4965 82.0628C51.1771 82.0628 49.8576 81.9786 48.5382 81.7821C48.5663 81.4733 48.6224 81.1644 48.6224 80.8556ZM25.1534 100.733C24.9288 100.957 24.6481 101.07 24.3112 101.07C24.0024 101.041 23.6936 100.929 23.4409 100.705L4.26709 81.5294C3.78985 81.0521 3.78985 80.2941 4.26709 79.8168C4.49168 79.5922 4.80048 79.4519 5.13736 79.4519H13.7558C14.8506 79.4519 15.7209 78.5816 15.7209 77.4866V61.4278C15.7209 60.1083 16.6473 58.9572 17.9386 58.6765C18.1351 58.6203 18.3317 58.6203 18.5562 58.6203H30.0662C31.6102 58.6203 32.8735 59.8837 32.8735 61.4278V77.4866C32.8735 78.5816 33.7437 79.4519 34.8386 79.4519H43.5131C43.9342 79.4238 44.2992 79.6484 44.5238 79.9853C44.7483 80.3503 44.7764 80.7714 44.608 81.1644C44.5518 81.2767 44.4676 81.4171 44.3834 81.5013L25.1534 100.733ZM87.4754 72.4612C78.0991 88.885 58.5603 96.6056 40.4812 90.9626L46.0958 85.3476C48.2013 85.7687 50.3349 85.9652 52.4965 85.9652C70.9404 85.9933 85.9314 71.0575 85.9595 52.5842C85.9595 50.8717 85.8472 49.1872 85.5665 47.5027L91.2934 41.7754C94.1849 52.107 92.7812 63.1404 87.4754 72.4612ZM100.95 26.4746C100.894 26.615 100.81 26.7273 100.698 26.8115L90.8161 36.6938C90.8161 36.6938 90.788 36.6939 90.788 36.7219L81.4959 46.0147C81.2713 46.2393 80.9906 46.3516 80.6537 46.3516C80.3449 46.3516 80.0361 46.2112 79.8115 45.9866L60.6377 26.8396C60.1604 26.3623 60.1604 25.6043 60.6377 25.127C60.8622 24.9024 61.171 24.762 61.5079 24.762H70.1263C71.2212 24.762 72.0914 23.8917 72.0914 22.7968V6.73797C72.0914 5.41845 73.0178 4.26738 74.3092 3.98663C74.5057 3.93048 74.7022 3.93048 74.9268 3.93048H86.4367C87.9807 3.93048 89.244 5.19385 89.244 6.73797V22.7968C89.244 23.8917 90.1143 24.762 91.2091 24.762H99.8556C100.277 24.734 100.642 24.9586 100.866 25.2955C101.091 25.6604 101.119 26.1096 100.95 26.4746Z" stroke="white" mask="url(#path-1-inside-1_603_1110)"/>
<path d="M50.5314 67.2674C50.5314 68.3623 51.4016 69.2326 52.4965 69.2326C53.5913 69.2326 54.4616 68.3623 54.4616 67.2674V64.8249C58.3918 64.516 61.3395 61.0628 61.0026 57.1043C60.6938 53.3984 57.6058 50.5348 53.8721 50.5348H51.1209C49.3242 50.5067 47.9206 49.0187 47.9487 47.25C47.9767 45.5094 49.3804 44.1056 51.1209 44.0775H57.69C58.7848 44.0775 59.6551 43.2072 59.6551 42.1123C59.6551 41.0174 58.7848 40.1471 57.69 40.1471H54.4616V37.7326C54.4616 36.6377 53.5913 35.7674 52.4965 35.7674C51.4016 35.7674 50.5314 36.6377 50.5314 37.7326V40.1751C46.6012 40.484 43.6535 43.9372 43.9904 47.8957C44.2992 51.6016 47.3872 54.4652 51.1209 54.4652H53.8721C55.6687 54.4652 57.1005 55.9251 57.1005 57.6939C57.1005 59.4626 55.6407 60.9225 53.8721 60.9225H47.303C46.2081 60.9225 45.3379 61.7928 45.3379 62.8877C45.3379 63.9826 46.2081 64.8529 47.303 64.8529H50.5314V67.2674Z" stroke="white" mask="url(#path-1-inside-1_603_1110)"/>
<defs>
<linearGradient id="paint0_linear_603_1110" x1="5.40441" y1="18.6667" x2="111.87" y2="53.035" gradientUnits="userSpaceOnUse">
<stop stop-color="#194185"/>
<stop offset="1" stop-color="#038AE4"/>
</linearGradient>
<linearGradient id="paint1_linear_603_1110" x1="5.40441" y1="18.6667" x2="111.87" y2="53.035" gradientUnits="userSpaceOnUse">
<stop stop-color="#194185"/>
<stop offset="1" stop-color="#038AE4"/>
</linearGradient>
</defs>
</svg>
