<svg width="105" height="105" viewBox="0 0 105 105" fill="none" xmlns="http://www.w3.org/2000/svg">
<path d="M52.5 63.4692C54.6696 63.4692 56.7905 62.8258 58.5944 61.6204C60.3984 60.415 61.8043 58.7017 62.6345 56.6972C63.4646 54.6927 63.6817 52.487 63.2583 50.3591C62.8348 48.2312 61.7899 46.2767 60.2556 44.7427C58.7212 43.2088 56.7665 42.1642 54.6385 41.7413C52.5105 41.3183 50.3049 41.5359 48.3006 42.3665C46.2962 43.1971 44.5833 44.6034 43.3782 46.4076C42.1732 48.2118 41.5303 50.3329 41.5308 52.5025C41.5347 55.4103 42.6917 58.1978 44.7481 60.2537C46.8044 62.3096 49.5922 63.466 52.5 63.4692ZM52.5 44.4019C54.1016 44.4019 55.6672 44.8768 56.9988 45.7665C58.3305 46.6562 59.3685 47.9208 59.9815 49.4004C60.5945 50.88 60.755 52.5082 60.4427 54.079C60.1304 55.6498 59.3594 57.0927 58.2271 58.2254C57.0948 59.358 55.6521 60.1295 54.0814 60.4422C52.5107 60.755 50.8825 60.595 49.4027 59.9824C47.9229 59.3699 46.658 58.3323 45.7679 57.0009C44.8777 55.6695 44.4024 54.104 44.4019 52.5025C44.4038 50.3551 45.2576 48.2962 46.7758 46.7775C48.294 45.2589 50.3526 44.4045 52.5 44.4019Z" fill="url(#paint0_linear_603_237)"/>
<path d="M52.5 17.1265C54.1937 17.1265 55.8493 16.6243 57.2575 15.6833C58.6657 14.7424 59.7633 13.405 60.4114 11.8403C61.0596 10.2755 61.2291 8.55375 60.8987 6.89264C60.5683 5.23153 59.7527 3.70571 58.5551 2.50812C57.3576 1.31053 55.8317 0.494959 54.1706 0.164544C52.5095 -0.16587 50.7877 0.00371031 49.223 0.651842C47.6583 1.29997 46.3209 2.39754 45.3799 3.80576C44.439 5.21398 43.9368 6.8696 43.9368 8.56324C43.9394 10.8336 44.8424 13.0101 46.4478 14.6155C48.0531 16.2208 50.2297 17.1239 52.5 17.1265ZM52.5 2.87356C53.6258 2.87356 54.7263 3.2074 55.6624 3.83286C56.5985 4.45832 57.3281 5.34731 57.7589 6.38741C58.1897 7.42752 58.3024 8.57202 58.0828 9.67619C57.8632 10.7804 57.321 11.7946 56.525 12.5907C55.7289 13.3867 54.7147 13.9288 53.6105 14.1485C52.5063 14.3681 51.3618 14.2554 50.3217 13.8246C49.2816 13.3937 48.3926 12.6642 47.7672 11.7281C47.1417 10.792 46.8079 9.69151 46.8079 8.56571C46.8096 7.05659 47.4099 5.60978 48.477 4.54267C49.5441 3.47556 50.9909 2.8753 52.5 2.87356Z" fill="url(#paint1_linear_603_237)"/>
<path d="M52.5 87.8735C50.8063 87.8735 49.1507 88.3757 47.7425 89.3167C46.3343 90.2576 45.2367 91.595 44.5886 93.1598C43.9405 94.7245 43.7709 96.4463 44.1013 98.1074C44.4317 99.7685 45.2473 101.294 46.4449 102.492C47.6425 103.69 49.1683 104.505 50.8294 104.835C52.4905 105.166 54.2123 104.996 55.777 104.348C57.3417 103.7 58.6791 102.602 59.6201 101.194C60.561 99.786 61.0632 98.1304 61.0632 96.4368C61.0606 94.1665 60.1576 91.9899 58.5522 90.3845C56.9469 88.7792 54.7703 87.8761 52.5 87.8735ZM52.5 102.131C51.3742 102.131 50.2737 101.798 49.3376 101.172C48.4015 100.547 47.672 99.6576 47.2411 98.6175C46.8103 97.5774 46.6976 96.4329 46.9172 95.3288C47.1369 94.2246 47.679 93.2103 48.475 92.4143C49.2711 91.6182 50.2853 91.0761 51.3895 90.8565C52.4937 90.6368 53.6382 90.7495 54.6783 91.1804C55.7184 91.6112 56.6074 92.3408 57.2328 93.2768C57.8583 94.2129 58.1921 95.3134 58.1921 96.4392C58.1904 97.9483 57.5901 99.3952 56.523 100.462C55.4559 101.529 54.0091 102.13 52.5 102.131Z" fill="url(#paint2_linear_603_237)"/>
<path d="M83.5685 29.9915C85.5478 29.9898 87.4652 29.302 88.9942 28.0452C90.5232 26.7884 91.5692 25.0404 91.954 23.099C92.3387 21.1575 92.0385 19.1427 91.1044 17.3977C90.1704 15.6528 88.6602 14.2856 86.8312 13.5292C85.0022 12.7728 82.9676 12.6739 81.0739 13.2493C79.1801 13.8248 77.5445 15.039 76.4455 16.6851C75.3466 18.3312 74.8523 20.3074 75.047 22.277C75.2416 24.2466 76.1131 26.0879 77.513 27.487C78.3076 28.2828 79.2517 28.9137 80.2909 29.3435C81.3301 29.7733 82.444 29.9935 83.5685 29.9915ZM79.5433 17.407C80.4745 16.4755 81.6999 15.8958 83.0107 15.7665C84.3215 15.6373 85.6366 15.9665 86.7318 16.6982C87.827 17.4299 88.6347 18.5187 89.0171 19.7792C89.3995 21.0396 89.333 22.3936 88.829 23.6105C88.325 24.8274 87.4146 25.8319 86.253 26.4528C85.0913 27.0737 83.7504 27.2726 82.4585 27.0156C81.1667 26.7586 80.0039 26.0616 79.1684 25.0433C78.3329 24.0251 77.8763 22.7486 77.8764 21.4315C77.8754 20.6839 78.0221 19.9436 78.3082 19.2529C78.5943 18.5623 79.014 17.9349 79.5433 17.407Z" fill="url(#paint3_linear_603_237)"/>
<path d="M21.4315 75.0053C19.4508 75.0056 17.5315 75.6927 16.0006 76.9495C14.4697 78.2063 13.4219 79.955 13.0357 81.8977C12.6495 83.8404 12.9489 85.8569 13.8828 87.6036C14.8167 89.3503 16.3273 90.7192 18.1573 91.477C19.9873 92.2349 22.0234 92.3347 23.9188 91.7597C25.8142 91.1846 27.4515 89.9701 28.5519 88.3232C29.6523 86.6762 30.1475 84.6987 29.9534 82.7276C29.7592 80.7564 28.8876 78.9136 27.487 77.513C26.6937 76.7153 25.7499 76.0829 24.7105 75.6524C23.6711 75.222 22.5565 75.002 21.4315 75.0053ZM25.4568 87.593C24.5255 88.5245 23.3001 89.1042 21.9893 89.2335C20.6785 89.3627 19.3634 89.0335 18.2682 88.3018C17.173 87.5701 16.3653 86.4813 15.9829 85.2209C15.6005 83.9604 15.667 82.6064 16.171 81.3895C16.675 80.1726 17.5854 79.1681 18.747 78.5472C19.9087 77.9263 21.2497 77.7275 22.5415 77.9845C23.8333 78.2415 24.9961 78.9385 25.8316 79.9567C26.6672 80.9749 27.1238 82.2514 27.1236 83.5685C27.1229 85.0778 26.5234 86.5252 25.4568 87.593Z" fill="url(#paint4_linear_603_237)"/>
<path d="M96.4368 43.9368C94.7432 43.9368 93.0877 44.4389 91.6795 45.3798C90.2714 46.3206 89.1738 47.6579 88.5256 49.2224C87.8774 50.787 87.7077 52.5087 88.0379 54.1697C88.3681 55.8308 89.1834 57.3566 90.3808 58.5543C91.5781 59.752 93.1037 60.5677 94.7646 60.8984C96.4256 61.2291 98.1473 61.0599 99.7121 60.4121C101.277 59.7644 102.614 58.6672 103.556 57.2593C104.497 55.8514 105 54.196 105 52.5025C104.998 50.2318 104.095 48.0547 102.49 46.4489C100.884 44.843 98.7074 43.9396 96.4368 43.9368ZM96.4368 58.1922C95.3109 58.1922 94.2103 57.8583 93.2741 57.2327C92.338 56.6071 91.6084 55.718 91.1777 54.6777C90.7469 53.6375 90.6344 52.4929 90.8542 51.3886C91.074 50.2844 91.6164 49.2702 92.4127 48.4742C93.209 47.6782 94.2235 47.1363 95.3278 46.917C96.4321 46.6976 97.5767 46.8107 98.6168 47.2419C99.6568 47.6731 100.546 48.403 101.171 49.3394C101.796 50.2758 102.129 51.3766 102.129 52.5025C102.127 54.0112 101.526 55.4574 100.459 56.5239C99.3919 57.5905 97.9454 58.1904 96.4368 58.1922Z" fill="url(#paint5_linear_603_237)"/>
<path d="M17.1265 52.5025C17.127 50.8087 16.6252 49.1529 15.6845 47.7443C14.7439 46.3358 13.4066 45.2378 11.842 44.5893C10.2773 43.9408 8.55542 43.7709 6.89415 44.101C5.23288 44.4312 3.70683 45.2465 2.50899 46.444C1.31115 47.6415 0.495338 49.1673 0.164724 50.8285C-0.16589 52.4897 0.00354713 54.2116 0.651606 55.7765C1.29967 57.3413 2.39724 58.6789 3.80551 59.6199C5.21378 60.561 6.86949 61.0633 8.56324 61.0633C10.8331 61.0607 13.0093 60.158 14.6146 58.5531C16.2199 56.9483 17.1232 54.7724 17.1265 52.5025ZM8.56324 58.1922C7.43734 58.1922 6.33672 57.8583 5.4006 57.2327C4.46448 56.6071 3.7349 55.718 3.30415 54.6777C2.8734 53.6375 2.76082 52.4929 2.98065 51.3886C3.20048 50.2844 3.74285 49.2702 4.53916 48.4742C5.33547 47.6782 6.34994 47.1363 7.45427 46.917C8.5586 46.6976 9.70318 46.8107 10.7432 47.2419C11.7833 47.6731 12.6721 48.403 13.2973 49.3394C13.9225 50.2758 14.2559 51.3766 14.2554 52.5025C14.253 54.0112 13.6525 55.4574 12.5854 56.5239C11.5184 57.5905 10.0719 58.1904 8.56324 58.1922Z" fill="url(#paint6_linear_603_237)"/>
<path d="M77.513 77.513C76.3154 78.7106 75.4998 80.2364 75.1694 81.8975C74.839 83.5586 75.0086 85.2804 75.6567 86.8451C76.3049 88.4098 77.4024 89.7472 78.8106 90.6882C80.2189 91.6291 81.8745 92.1313 83.5681 92.1313C85.2618 92.1313 86.9174 91.6291 88.3256 90.6882C89.7338 89.7472 90.8314 88.4098 91.4795 86.8451C92.1277 85.2804 92.2972 83.5586 91.9668 81.8975C91.6364 80.2364 90.8208 78.7106 89.6233 77.513C88.832 76.7108 87.8893 76.0738 86.8498 75.6391C85.8103 75.2043 84.6949 74.9804 83.5681 74.9804C82.4414 74.9804 81.3259 75.2043 80.2864 75.6391C79.2469 76.0738 78.3042 76.7108 77.513 77.513ZM87.593 87.593C86.6617 88.5245 85.4363 89.1042 84.1255 89.2335C82.8147 89.3627 81.4997 89.0335 80.4044 88.3018C79.3092 87.5701 78.5016 86.4813 78.1192 85.2209C77.7367 83.9604 77.8032 82.6064 78.3072 81.3895C78.8112 80.1726 79.7216 79.1681 80.8833 78.5472C82.0449 77.9263 83.3859 77.7274 84.6777 77.9845C85.9696 78.2415 87.1323 78.9385 87.9678 79.9567C88.8034 80.9749 89.26 82.2514 89.2599 83.5685C89.2591 85.0778 88.6596 86.5252 87.593 87.593Z" fill="url(#paint7_linear_603_237)"/>
<path d="M21.4315 29.9956C23.4129 29.9958 25.333 29.309 26.8648 28.0523C28.3966 26.7955 29.4452 25.0464 29.8319 23.1032C30.2187 21.1599 29.9197 19.1426 28.9858 17.3951C28.052 15.6476 26.5411 14.278 24.7106 13.5196C22.8801 12.7612 20.8432 12.661 18.9471 13.236C17.051 13.8111 15.413 15.0258 14.3121 16.6732C13.2112 18.3206 12.7156 20.2987 12.9098 22.2706C13.1039 24.2424 13.9757 26.086 15.3768 27.487C16.1699 28.2848 17.1135 28.9173 18.1528 29.3479C19.1921 29.7785 20.3065 29.9986 21.4315 29.9956ZM17.407 17.407C18.2031 16.6107 19.2175 16.0683 20.3219 15.8485C21.4263 15.6286 22.571 15.7413 23.6114 16.1721C24.6518 16.6029 25.541 17.3326 26.1666 18.2689C26.7923 19.2051 27.1262 20.3059 27.1262 21.4319C27.1262 22.5579 26.7923 23.6587 26.1666 24.5949C25.541 25.5312 24.6518 26.2609 23.6114 26.6917C22.571 27.1225 21.4263 27.2352 20.3219 27.0153C19.2175 26.7955 18.2031 26.2531 17.407 25.4568C16.8763 24.9294 16.4552 24.3023 16.1678 23.6116C15.8804 22.9208 15.7324 22.1801 15.7324 21.4319C15.7324 20.6838 15.8804 19.943 16.1678 19.2522C16.4552 18.5615 16.8763 17.9344 17.407 17.407Z" fill="url(#paint8_linear_603_237)"/>
<path d="M75.413 58.7828C75.5461 58.9162 75.7043 59.022 75.8784 59.0942C76.0526 59.1664 76.2392 59.2036 76.4277 59.2036C76.6162 59.2036 76.8028 59.1664 76.977 59.0942C77.1511 59.022 77.3092 58.9162 77.4424 58.7828L82.7105 53.5147C82.8439 53.3816 82.9497 53.2234 83.0219 53.0493C83.0941 52.8752 83.1313 52.6885 83.1313 52.5C83.1313 52.3115 83.0941 52.1249 83.0219 51.9508C82.9497 51.7766 82.8439 51.6185 82.7105 51.4853L77.4424 46.2172C77.1716 45.9558 76.809 45.8112 76.4326 45.8145C76.0562 45.8179 75.6962 45.9689 75.43 46.2351C75.1639 46.5013 75.013 46.8614 75.0098 47.2378C75.0067 47.6142 75.1514 47.9768 75.413 48.2475L78.2431 51.0776H69.9579C69.6635 47.4281 68.2286 43.9636 65.8563 41.1748L71.7011 35.33V39.2954C71.7011 39.6762 71.8523 40.0413 72.1215 40.3105C72.3907 40.5797 72.7559 40.731 73.1366 40.731C73.5173 40.731 73.8825 40.5797 74.1517 40.3105C74.4209 40.0413 74.5722 39.6762 74.5722 39.2954V31.8462C74.5722 31.4654 74.4209 31.1003 74.1517 30.8311C73.8825 30.5619 73.5173 30.4106 73.1366 30.4106H65.6906C65.3099 30.4106 64.9448 30.5619 64.6755 30.8311C64.4063 31.1003 64.2551 31.4654 64.2551 31.8462C64.2551 32.2269 64.4063 32.592 64.6755 32.8613C64.9448 33.1305 65.3099 33.2817 65.6906 33.2817H69.6937L63.8302 39.1453C61.0443 36.7734 57.5825 35.3384 53.9355 35.0438V26.7701L56.7402 29.5747C57.0094 29.844 57.3746 29.9952 57.7553 29.9952C58.1361 29.9952 58.5012 29.844 58.7705 29.5747C59.0397 29.3055 59.1909 28.9403 59.1909 28.5596C59.1909 28.1788 59.0397 27.8137 58.7705 27.5445L53.5024 22.2764C53.2331 22.0074 52.868 21.8562 52.4873 21.8562C52.1066 21.8562 51.7415 22.0074 51.4722 22.2764L46.2041 27.5445C45.9349 27.8137 45.7836 28.1788 45.7836 28.5596C45.7836 28.9403 45.9349 29.3055 46.2041 29.5747C46.4733 29.844 46.8385 29.9952 47.2192 29.9952C47.6 29.9952 47.9651 29.844 48.2344 29.5747L51.0645 26.7446V35.0413C47.4111 35.3376 43.9441 36.7776 41.1559 39.1568L35.2808 33.2817H39.2839C39.6647 33.2817 40.0298 33.1305 40.299 32.8613C40.5682 32.592 40.7195 32.2269 40.7195 31.8462C40.7195 31.4654 40.5682 31.1003 40.299 30.8311C40.0298 30.5619 39.6647 30.4106 39.2839 30.4106H31.8339C31.4532 30.4108 31.0882 30.5622 30.819 30.8313C30.5499 31.1005 30.3985 31.4655 30.3983 31.8462V39.2954C30.3983 39.6762 30.5496 40.0413 30.8188 40.3105C31.088 40.5797 31.4531 40.731 31.8339 40.731C32.2146 40.731 32.5797 40.5797 32.849 40.3105C33.1182 40.0413 33.2694 39.6762 33.2694 39.2954V35.33L39.1289 41.1887C36.7643 43.9754 35.3347 47.4345 35.0421 51.0776H26.7315L29.5616 48.2475C29.8308 47.9783 29.9821 47.6131 29.9821 47.2324C29.9821 46.8516 29.8308 46.4865 29.5616 46.2172C29.2924 45.948 28.9272 45.7967 28.5465 45.7967C28.1657 45.7967 27.8006 45.948 27.5313 46.2172L22.2641 51.4853C22.1307 51.6185 22.0249 51.7766 21.9527 51.9508C21.8805 52.1249 21.8433 52.3115 21.8433 52.5C21.8433 52.6885 21.8805 52.8752 21.9527 53.0493C22.0249 53.2234 22.1307 53.3816 22.2641 53.5147L27.5313 58.7828C27.6637 58.9199 27.8221 59.0293 27.9972 59.1046C28.1724 59.1799 28.3607 59.2195 28.5513 59.2212C28.7419 59.2229 28.931 59.1866 29.1074 59.1145C29.2839 59.0423 29.4442 58.9358 29.579 58.801C29.7138 58.6662 29.8204 58.506 29.8926 58.3296C29.9649 58.1532 30.0012 57.9641 29.9996 57.7735C29.998 57.5829 29.9584 57.3945 29.8832 57.2194C29.808 57.0442 29.6987 56.8858 29.5616 56.7533L26.757 53.9487H35.0421C35.3402 57.5909 36.7749 61.0474 39.1437 63.8302L33.2686 69.7061V65.7038C33.2686 65.323 33.1174 64.9579 32.8481 64.6887C32.5789 64.4195 32.2138 64.2682 31.833 64.2682C31.4523 64.2682 31.0872 64.4195 30.818 64.6887C30.5487 64.9579 30.3975 65.323 30.3975 65.7038V73.1539C30.3977 73.5345 30.549 73.8995 30.8182 74.1687C31.0874 74.4379 31.4524 74.5892 31.833 74.5894H39.2831C39.6639 74.5894 40.029 74.4381 40.2982 74.1689C40.5674 73.8997 40.7187 73.5346 40.7187 73.1539C40.7187 72.7731 40.5674 72.408 40.2982 72.1388C40.029 71.8695 39.6639 71.7183 39.2831 71.7183H35.3169L41.1748 65.8604C43.9598 68.2306 47.4194 69.6655 51.0645 69.962V78.2554L48.2344 75.4253C48.1011 75.292 47.9428 75.1862 47.7686 75.1141C47.5945 75.0419 47.4078 75.0048 47.2192 75.0048C47.0307 75.0048 46.844 75.0419 46.6699 75.1141C46.4957 75.1862 46.3374 75.292 46.2041 75.4253C46.0708 75.5586 45.965 75.7169 45.8929 75.891C45.8208 76.0652 45.7836 76.2519 45.7836 76.4404C45.7836 76.629 45.8208 76.8156 45.8929 76.9898C45.965 77.164 46.0708 77.3223 46.2041 77.4556L51.4722 82.7236C51.6054 82.857 51.7636 82.9629 51.9378 83.0351C52.112 83.1073 52.2987 83.1445 52.4873 83.1445C52.6758 83.1445 52.8626 83.1073 53.0367 83.0351C53.2109 82.9629 53.3692 82.857 53.5024 82.7236L58.7705 77.4556C58.9038 77.3223 59.0095 77.164 59.0817 76.9898C59.1538 76.8156 59.1909 76.629 59.1909 76.4404C59.1909 76.2519 59.1538 76.0652 59.0817 75.891C59.0095 75.7169 58.9038 75.5586 58.7705 75.4253C58.6372 75.292 58.4789 75.1862 58.3047 75.1141C58.1305 75.0419 57.9439 75.0048 57.7553 75.0048C57.5668 75.0048 57.3801 75.0419 57.2059 75.1141C57.0318 75.1862 56.8735 75.292 56.7402 75.4253L53.9355 78.2299V69.9587C57.574 69.6647 61.0284 68.2358 63.8113 65.8736L69.6577 71.7199H65.6906C65.3099 71.7199 64.9448 71.8712 64.6755 72.1404C64.4063 72.4096 64.2551 72.7748 64.2551 73.1555C64.2551 73.5362 64.4063 73.9014 64.6755 74.1706C64.9448 74.4398 65.3099 74.591 65.6906 74.591H73.1407C73.5214 74.591 73.8866 74.4398 74.1558 74.1706C74.425 73.9014 74.5763 73.5362 74.5763 73.1555V65.7038C74.5763 65.323 74.425 64.9579 74.1558 64.6887C73.8866 64.4195 73.5214 64.2682 73.1407 64.2682C72.76 64.2682 72.3948 64.4195 72.1256 64.6887C71.8564 64.9579 71.7052 65.323 71.7052 65.7038V69.7061L65.8432 63.8433C68.2194 61.0587 69.6592 57.597 69.9587 53.9487H78.2176L75.413 56.7533C75.2796 56.8865 75.1738 57.0447 75.1016 57.2188C75.0294 57.3929 74.9922 57.5796 74.9922 57.7681C74.9922 57.9566 75.0294 58.1432 75.1016 58.3173C75.1738 58.4914 75.2796 58.6496 75.413 58.7828ZM52.5 37.8394C54.4231 37.8383 56.3276 38.2169 58.1042 38.9532C59.8808 39.6895 61.4946 40.7692 62.8532 42.1304L62.863 42.1427L62.8729 42.1509C65.5994 44.8751 67.1391 48.5663 67.1565 52.4204C67.1565 52.4508 67.1475 52.4795 67.1475 52.5099C67.1475 52.5402 67.1541 52.5632 67.1557 52.5919C67.1346 56.4492 65.5896 60.1418 62.8573 62.8647L62.845 62.8737V62.8786C61.1383 64.5794 59.0388 65.8333 56.732 66.5293C54.4253 67.2253 51.9826 67.3418 49.62 66.8687C47.2575 66.3956 45.048 65.3473 43.1872 63.8167C41.3264 62.2861 39.8716 60.3204 38.9515 58.0936C38.0315 55.8667 37.6746 53.4474 37.9125 51.0497C38.1504 48.652 38.9757 46.35 40.3153 44.3473C41.6549 42.3446 43.4676 40.703 45.5929 39.5679C47.7182 38.4328 50.0906 37.8391 52.5 37.8394Z" fill="url(#paint9_linear_603_237)"/>
<defs>
<linearGradient id="paint0_linear_603_237" x1="5.40441" y1="18.6667" x2="111.87" y2="53.035" gradientUnits="userSpaceOnUse">
<stop stop-color="#194185"/>
<stop offset="1" stop-color="#038AE4"/>
</linearGradient>
<linearGradient id="paint1_linear_603_237" x1="5.40441" y1="18.6667" x2="111.87" y2="53.035" gradientUnits="userSpaceOnUse">
<stop stop-color="#194185"/>
<stop offset="1" stop-color="#038AE4"/>
</linearGradient>
<linearGradient id="paint2_linear_603_237" x1="5.40441" y1="18.6667" x2="111.87" y2="53.035" gradientUnits="userSpaceOnUse">
<stop stop-color="#194185"/>
<stop offset="1" stop-color="#038AE4"/>
</linearGradient>
<linearGradient id="paint3_linear_603_237" x1="5.40441" y1="18.6667" x2="111.87" y2="53.035" gradientUnits="userSpaceOnUse">
<stop stop-color="#194185"/>
<stop offset="1" stop-color="#038AE4"/>
</linearGradient>
<linearGradient id="paint4_linear_603_237" x1="5.40441" y1="18.6667" x2="111.87" y2="53.035" gradientUnits="userSpaceOnUse">
<stop stop-color="#194185"/>
<stop offset="1" stop-color="#038AE4"/>
</linearGradient>
<linearGradient id="paint5_linear_603_237" x1="5.40441" y1="18.6667" x2="111.87" y2="53.035" gradientUnits="userSpaceOnUse">
<stop stop-color="#194185"/>
<stop offset="1" stop-color="#038AE4"/>
</linearGradient>
<linearGradient id="paint6_linear_603_237" x1="5.40441" y1="18.6667" x2="111.87" y2="53.035" gradientUnits="userSpaceOnUse">
<stop stop-color="#194185"/>
<stop offset="1" stop-color="#038AE4"/>
</linearGradient>
<linearGradient id="paint7_linear_603_237" x1="5.40441" y1="18.6667" x2="111.87" y2="53.035" gradientUnits="userSpaceOnUse">
<stop stop-color="#194185"/>
<stop offset="1" stop-color="#038AE4"/>
</linearGradient>
<linearGradient id="paint8_linear_603_237" x1="5.40441" y1="18.6667" x2="111.87" y2="53.035" gradientUnits="userSpaceOnUse">
<stop stop-color="#194185"/>
<stop offset="1" stop-color="#038AE4"/>
</linearGradient>
<linearGradient id="paint9_linear_603_237" x1="5.40441" y1="18.6667" x2="111.87" y2="53.035" gradientUnits="userSpaceOnUse">
<stop stop-color="#194185"/>
<stop offset="1" stop-color="#038AE4"/>
</linearGradient>
</defs>
</svg>
