<svg width="105" height="105" viewBox="0 0 105 105" fill="none" xmlns="http://www.w3.org/2000/svg">
<mask id="path-1-inside-1_603_242" fill="white">
<path d="M94.0107 80.1263C95.5584 78.3158 96.4957 75.9686 96.4957 73.4052V72.2964C96.4957 66.5823 91.847 61.9336 86.1328 61.9336C80.4187 61.9336 75.77 66.5823 75.77 72.2964V73.4052C75.77 75.9686 76.7072 78.3158 78.2549 80.1263C74.4666 81.1012 71.2695 83.5597 69.3164 86.8418C67.3634 83.5597 64.1662 81.1012 60.3779 80.1263C61.9256 78.3158 62.8629 75.9686 62.8629 73.4052V72.2964C62.8629 66.5823 58.2141 61.9336 52.5 61.9336C46.7858 61.9336 42.1371 66.5823 42.1371 72.2964V73.4052C42.1371 75.9686 43.0744 78.3158 44.6221 80.1263C40.8338 81.1012 37.6366 83.5597 35.6836 86.8418C33.7305 83.5597 30.5334 81.1012 26.7451 80.1263C28.2928 78.3158 29.23 75.9686 29.23 73.4052V72.2964C29.23 66.5823 24.5813 61.9336 18.8672 61.9336C13.153 61.9336 8.50433 66.5823 8.50433 72.2964V73.4052C8.50433 75.9686 9.4416 78.3158 10.9893 80.1263C4.67754 81.7509 0 87.4898 0 94.3015V102.949C0 104.082 0.918045 105 2.05078 105H102.949C104.082 105 105 104.082 105 102.949V94.3015C105 87.4898 100.322 81.7509 94.0107 80.1263ZM79.8715 72.2964C79.8715 68.8438 82.6801 66.0352 86.1328 66.0352C89.5855 66.0352 92.3941 68.8438 92.3941 72.2964V73.4052C92.3941 76.8578 89.5855 79.6664 86.1328 79.6664C82.6801 79.6664 79.8715 76.8578 79.8715 73.4052V72.2964ZM46.2387 72.2964C46.2387 68.8438 49.0473 66.0352 52.5 66.0352C55.9527 66.0352 58.7613 68.8438 58.7613 72.2964V73.4052C58.7613 76.8578 55.9527 79.6664 52.5 79.6664C49.0473 79.6664 46.2387 76.8578 46.2387 73.4052V72.2964ZM12.6059 72.2964C12.6059 68.8438 15.4145 66.0352 18.8672 66.0352C22.3199 66.0352 25.1285 68.8438 25.1285 72.2964V73.4052C25.1285 76.8578 22.3199 79.6664 18.8672 79.6664C15.4145 79.6664 12.6059 76.8578 12.6059 73.4052V72.2964ZM4.10156 94.3015C4.10156 88.4936 8.82637 83.768 14.635 83.768H23.0993C28.9072 83.768 33.6328 88.4936 33.6328 94.3015V100.898H4.10156V94.3015ZM37.7344 94.3015C37.7344 88.4936 42.4592 83.768 48.2679 83.768H56.7321C62.54 83.768 67.2656 88.4936 67.2656 94.3015V100.898H37.7344V94.3015ZM100.898 100.898H71.3672V94.3015C71.3672 88.4936 76.092 83.768 81.9007 83.768H90.3649C96.1728 83.768 100.898 88.4936 100.898 94.3015V100.898Z"/>
<path d="M15.8607 41.1358L15.8423 52.5224C15.8407 53.3155 16.2973 54.0389 17.0135 54.3785C17.2939 54.5115 17.5943 54.5772 17.8923 54.5772C18.3577 54.5772 18.8183 54.4186 19.1916 54.1126L30.7761 44.6309H43.5919L50.9235 53.8058C51.324 54.3072 51.9384 54.5956 52.5777 54.5756C53.2194 54.5596 53.8162 54.244 54.1903 53.7233L60.7288 44.6301H74.3064L85.838 54.1102C86.4508 54.6141 87.2992 54.719 88.0162 54.3801C88.7339 54.0413 89.1914 53.3187 89.1914 52.5256V41.1029C95.556 37.0142 99.4629 29.9238 99.4629 22.3151C99.4629 10.0104 89.4525 0 77.1478 0H27.8522C15.5475 0 5.53711 10.0104 5.53711 22.3151C5.53711 29.9494 9.46323 37.0527 15.8607 41.1358ZM27.8522 4.10156H77.1478C87.191 4.10156 95.3613 12.2726 95.3613 22.3151C95.3613 28.8567 91.8229 34.929 86.128 38.1646C85.4863 38.5283 85.0898 39.2092 85.0898 39.947V48.1853L76.3427 40.9956C75.9758 40.6936 75.516 40.5286 75.041 40.5286H59.6777C59.0176 40.5286 58.3984 40.8466 58.0131 41.3825L52.4399 49.1322L46.181 41.2992C45.7917 40.8121 45.2021 40.5286 44.5789 40.5286H30.0439C29.5705 40.5286 29.1115 40.6928 28.7446 40.9924L19.9511 48.191L19.9639 39.9806C19.9655 39.2388 19.5665 38.5547 18.9209 38.191C13.1955 34.9626 9.63867 28.8792 9.63867 22.3151C9.63867 12.2726 17.809 4.10156 27.8522 4.10156Z"/>
<path d="M46.1962 28.7654C48.7477 31.1262 51.2671 32.8461 51.3729 32.9182C51.7205 33.1554 52.1235 33.2731 52.5264 33.2731C52.9286 33.2731 53.3315 33.1546 53.6792 32.9182C53.7849 32.8461 56.3044 31.1262 58.8558 28.7654C62.6217 25.2823 64.4514 22.3054 64.4514 19.6667C64.4514 15.0853 60.9659 11.3578 56.6809 11.3578C55.2013 11.3578 53.7585 11.8136 52.5264 12.6459C51.2928 11.8136 49.8508 11.3578 48.3712 11.3578C44.0862 11.3578 40.6007 15.0845 40.6007 19.6667C40.6007 22.3054 42.4303 25.2815 46.1962 28.7654ZM48.3712 15.4594C49.3541 15.4594 50.2786 15.9024 50.9747 16.7075C51.3649 17.1577 51.9304 17.4164 52.5264 17.4164C53.1216 17.4164 53.6872 17.1577 54.0773 16.7075C54.7735 15.9024 55.6979 15.4594 56.6809 15.4594C58.7044 15.4594 60.3498 17.3467 60.3498 19.6667C60.3498 21.961 56.028 26.0986 52.5248 28.7045C49.0217 26.1018 44.7014 21.9674 44.7014 19.6667C44.7022 17.3467 46.3477 15.4594 48.3712 15.4594Z"/>
</mask>
<path d="M94.0107 80.1263C95.5584 78.3158 96.4957 75.9686 96.4957 73.4052V72.2964C96.4957 66.5823 91.847 61.9336 86.1328 61.9336C80.4187 61.9336 75.77 66.5823 75.77 72.2964V73.4052C75.77 75.9686 76.7072 78.3158 78.2549 80.1263C74.4666 81.1012 71.2695 83.5597 69.3164 86.8418C67.3634 83.5597 64.1662 81.1012 60.3779 80.1263C61.9256 78.3158 62.8629 75.9686 62.8629 73.4052V72.2964C62.8629 66.5823 58.2141 61.9336 52.5 61.9336C46.7858 61.9336 42.1371 66.5823 42.1371 72.2964V73.4052C42.1371 75.9686 43.0744 78.3158 44.6221 80.1263C40.8338 81.1012 37.6366 83.5597 35.6836 86.8418C33.7305 83.5597 30.5334 81.1012 26.7451 80.1263C28.2928 78.3158 29.23 75.9686 29.23 73.4052V72.2964C29.23 66.5823 24.5813 61.9336 18.8672 61.9336C13.153 61.9336 8.50433 66.5823 8.50433 72.2964V73.4052C8.50433 75.9686 9.4416 78.3158 10.9893 80.1263C4.67754 81.7509 0 87.4898 0 94.3015V102.949C0 104.082 0.918045 105 2.05078 105H102.949C104.082 105 105 104.082 105 102.949V94.3015C105 87.4898 100.322 81.7509 94.0107 80.1263ZM79.8715 72.2964C79.8715 68.8438 82.6801 66.0352 86.1328 66.0352C89.5855 66.0352 92.3941 68.8438 92.3941 72.2964V73.4052C92.3941 76.8578 89.5855 79.6664 86.1328 79.6664C82.6801 79.6664 79.8715 76.8578 79.8715 73.4052V72.2964ZM46.2387 72.2964C46.2387 68.8438 49.0473 66.0352 52.5 66.0352C55.9527 66.0352 58.7613 68.8438 58.7613 72.2964V73.4052C58.7613 76.8578 55.9527 79.6664 52.5 79.6664C49.0473 79.6664 46.2387 76.8578 46.2387 73.4052V72.2964ZM12.6059 72.2964C12.6059 68.8438 15.4145 66.0352 18.8672 66.0352C22.3199 66.0352 25.1285 68.8438 25.1285 72.2964V73.4052C25.1285 76.8578 22.3199 79.6664 18.8672 79.6664C15.4145 79.6664 12.6059 76.8578 12.6059 73.4052V72.2964ZM4.10156 94.3015C4.10156 88.4936 8.82637 83.768 14.635 83.768H23.0993C28.9072 83.768 33.6328 88.4936 33.6328 94.3015V100.898H4.10156V94.3015ZM37.7344 94.3015C37.7344 88.4936 42.4592 83.768 48.2679 83.768H56.7321C62.54 83.768 67.2656 88.4936 67.2656 94.3015V100.898H37.7344V94.3015ZM100.898 100.898H71.3672V94.3015C71.3672 88.4936 76.092 83.768 81.9007 83.768H90.3649C96.1728 83.768 100.898 88.4936 100.898 94.3015V100.898Z" fill="url(#paint0_linear_603_242)"/>
<path d="M15.8607 41.1358L15.8423 52.5224C15.8407 53.3155 16.2973 54.0389 17.0135 54.3785C17.2939 54.5115 17.5943 54.5772 17.8923 54.5772C18.3577 54.5772 18.8183 54.4186 19.1916 54.1126L30.7761 44.6309H43.5919L50.9235 53.8058C51.324 54.3072 51.9384 54.5956 52.5777 54.5756C53.2194 54.5596 53.8162 54.244 54.1903 53.7233L60.7288 44.6301H74.3064L85.838 54.1102C86.4508 54.6141 87.2992 54.719 88.0162 54.3801C88.7339 54.0413 89.1914 53.3187 89.1914 52.5256V41.1029C95.556 37.0142 99.4629 29.9238 99.4629 22.3151C99.4629 10.0104 89.4525 0 77.1478 0H27.8522C15.5475 0 5.53711 10.0104 5.53711 22.3151C5.53711 29.9494 9.46323 37.0527 15.8607 41.1358ZM27.8522 4.10156H77.1478C87.191 4.10156 95.3613 12.2726 95.3613 22.3151C95.3613 28.8567 91.8229 34.929 86.128 38.1646C85.4863 38.5283 85.0898 39.2092 85.0898 39.947V48.1853L76.3427 40.9956C75.9758 40.6936 75.516 40.5286 75.041 40.5286H59.6777C59.0176 40.5286 58.3984 40.8466 58.0131 41.3825L52.4399 49.1322L46.181 41.2992C45.7917 40.8121 45.2021 40.5286 44.5789 40.5286H30.0439C29.5705 40.5286 29.1115 40.6928 28.7446 40.9924L19.9511 48.191L19.9639 39.9806C19.9655 39.2388 19.5665 38.5547 18.9209 38.191C13.1955 34.9626 9.63867 28.8792 9.63867 22.3151C9.63867 12.2726 17.809 4.10156 27.8522 4.10156Z" fill="url(#paint1_linear_603_242)"/>
<path d="M46.1962 28.7654C48.7477 31.1262 51.2671 32.8461 51.3729 32.9182C51.7205 33.1554 52.1235 33.2731 52.5264 33.2731C52.9286 33.2731 53.3315 33.1546 53.6792 32.9182C53.7849 32.8461 56.3044 31.1262 58.8558 28.7654C62.6217 25.2823 64.4514 22.3054 64.4514 19.6667C64.4514 15.0853 60.9659 11.3578 56.6809 11.3578C55.2013 11.3578 53.7585 11.8136 52.5264 12.6459C51.2928 11.8136 49.8508 11.3578 48.3712 11.3578C44.0862 11.3578 40.6007 15.0845 40.6007 19.6667C40.6007 22.3054 42.4303 25.2815 46.1962 28.7654ZM48.3712 15.4594C49.3541 15.4594 50.2786 15.9024 50.9747 16.7075C51.3649 17.1577 51.9304 17.4164 52.5264 17.4164C53.1216 17.4164 53.6872 17.1577 54.0773 16.7075C54.7735 15.9024 55.6979 15.4594 56.6809 15.4594C58.7044 15.4594 60.3498 17.3467 60.3498 19.6667C60.3498 21.961 56.028 26.0986 52.5248 28.7045C49.0217 26.1018 44.7014 21.9674 44.7014 19.6667C44.7022 17.3467 46.3477 15.4594 48.3712 15.4594Z" fill="url(#paint2_linear_603_242)"/>
<path d="M94.0107 80.1263C95.5584 78.3158 96.4957 75.9686 96.4957 73.4052V72.2964C96.4957 66.5823 91.847 61.9336 86.1328 61.9336C80.4187 61.9336 75.77 66.5823 75.77 72.2964V73.4052C75.77 75.9686 76.7072 78.3158 78.2549 80.1263C74.4666 81.1012 71.2695 83.5597 69.3164 86.8418C67.3634 83.5597 64.1662 81.1012 60.3779 80.1263C61.9256 78.3158 62.8629 75.9686 62.8629 73.4052V72.2964C62.8629 66.5823 58.2141 61.9336 52.5 61.9336C46.7858 61.9336 42.1371 66.5823 42.1371 72.2964V73.4052C42.1371 75.9686 43.0744 78.3158 44.6221 80.1263C40.8338 81.1012 37.6366 83.5597 35.6836 86.8418C33.7305 83.5597 30.5334 81.1012 26.7451 80.1263C28.2928 78.3158 29.23 75.9686 29.23 73.4052V72.2964C29.23 66.5823 24.5813 61.9336 18.8672 61.9336C13.153 61.9336 8.50433 66.5823 8.50433 72.2964V73.4052C8.50433 75.9686 9.4416 78.3158 10.9893 80.1263C4.67754 81.7509 0 87.4898 0 94.3015V102.949C0 104.082 0.918045 105 2.05078 105H102.949C104.082 105 105 104.082 105 102.949V94.3015C105 87.4898 100.322 81.7509 94.0107 80.1263ZM79.8715 72.2964C79.8715 68.8438 82.6801 66.0352 86.1328 66.0352C89.5855 66.0352 92.3941 68.8438 92.3941 72.2964V73.4052C92.3941 76.8578 89.5855 79.6664 86.1328 79.6664C82.6801 79.6664 79.8715 76.8578 79.8715 73.4052V72.2964ZM46.2387 72.2964C46.2387 68.8438 49.0473 66.0352 52.5 66.0352C55.9527 66.0352 58.7613 68.8438 58.7613 72.2964V73.4052C58.7613 76.8578 55.9527 79.6664 52.5 79.6664C49.0473 79.6664 46.2387 76.8578 46.2387 73.4052V72.2964ZM12.6059 72.2964C12.6059 68.8438 15.4145 66.0352 18.8672 66.0352C22.3199 66.0352 25.1285 68.8438 25.1285 72.2964V73.4052C25.1285 76.8578 22.3199 79.6664 18.8672 79.6664C15.4145 79.6664 12.6059 76.8578 12.6059 73.4052V72.2964ZM4.10156 94.3015C4.10156 88.4936 8.82637 83.768 14.635 83.768H23.0993C28.9072 83.768 33.6328 88.4936 33.6328 94.3015V100.898H4.10156V94.3015ZM37.7344 94.3015C37.7344 88.4936 42.4592 83.768 48.2679 83.768H56.7321C62.54 83.768 67.2656 88.4936 67.2656 94.3015V100.898H37.7344V94.3015ZM100.898 100.898H71.3672V94.3015C71.3672 88.4936 76.092 83.768 81.9007 83.768H90.3649C96.1728 83.768 100.898 88.4936 100.898 94.3015V100.898Z" stroke="white" mask="url(#path-1-inside-1_603_242)"/>
<path d="M15.8607 41.1358L15.8423 52.5224C15.8407 53.3155 16.2973 54.0389 17.0135 54.3785C17.2939 54.5115 17.5943 54.5772 17.8923 54.5772C18.3577 54.5772 18.8183 54.4186 19.1916 54.1126L30.7761 44.6309H43.5919L50.9235 53.8058C51.324 54.3072 51.9384 54.5956 52.5777 54.5756C53.2194 54.5596 53.8162 54.244 54.1903 53.7233L60.7288 44.6301H74.3064L85.838 54.1102C86.4508 54.6141 87.2992 54.719 88.0162 54.3801C88.7339 54.0413 89.1914 53.3187 89.1914 52.5256V41.1029C95.556 37.0142 99.4629 29.9238 99.4629 22.3151C99.4629 10.0104 89.4525 0 77.1478 0H27.8522C15.5475 0 5.53711 10.0104 5.53711 22.3151C5.53711 29.9494 9.46323 37.0527 15.8607 41.1358ZM27.8522 4.10156H77.1478C87.191 4.10156 95.3613 12.2726 95.3613 22.3151C95.3613 28.8567 91.8229 34.929 86.128 38.1646C85.4863 38.5283 85.0898 39.2092 85.0898 39.947V48.1853L76.3427 40.9956C75.9758 40.6936 75.516 40.5286 75.041 40.5286H59.6777C59.0176 40.5286 58.3984 40.8466 58.0131 41.3825L52.4399 49.1322L46.181 41.2992C45.7917 40.8121 45.2021 40.5286 44.5789 40.5286H30.0439C29.5705 40.5286 29.1115 40.6928 28.7446 40.9924L19.9511 48.191L19.9639 39.9806C19.9655 39.2388 19.5665 38.5547 18.9209 38.191C13.1955 34.9626 9.63867 28.8792 9.63867 22.3151C9.63867 12.2726 17.809 4.10156 27.8522 4.10156Z" stroke="white" mask="url(#path-1-inside-1_603_242)"/>
<path d="M46.1962 28.7654C48.7477 31.1262 51.2671 32.8461 51.3729 32.9182C51.7205 33.1554 52.1235 33.2731 52.5264 33.2731C52.9286 33.2731 53.3315 33.1546 53.6792 32.9182C53.7849 32.8461 56.3044 31.1262 58.8558 28.7654C62.6217 25.2823 64.4514 22.3054 64.4514 19.6667C64.4514 15.0853 60.9659 11.3578 56.6809 11.3578C55.2013 11.3578 53.7585 11.8136 52.5264 12.6459C51.2928 11.8136 49.8508 11.3578 48.3712 11.3578C44.0862 11.3578 40.6007 15.0845 40.6007 19.6667C40.6007 22.3054 42.4303 25.2815 46.1962 28.7654ZM48.3712 15.4594C49.3541 15.4594 50.2786 15.9024 50.9747 16.7075C51.3649 17.1577 51.9304 17.4164 52.5264 17.4164C53.1216 17.4164 53.6872 17.1577 54.0773 16.7075C54.7735 15.9024 55.6979 15.4594 56.6809 15.4594C58.7044 15.4594 60.3498 17.3467 60.3498 19.6667C60.3498 21.961 56.028 26.0986 52.5248 28.7045C49.0217 26.1018 44.7014 21.9674 44.7014 19.6667C44.7022 17.3467 46.3477 15.4594 48.3712 15.4594Z" stroke="white" mask="url(#path-1-inside-1_603_242)"/>
<defs>
<linearGradient id="paint0_linear_603_242" x1="5.40441" y1="18.6667" x2="111.87" y2="53.035" gradientUnits="userSpaceOnUse">
<stop stop-color="#194185"/>
<stop offset="1" stop-color="#038AE4"/>
</linearGradient>
<linearGradient id="paint1_linear_603_242" x1="5.40441" y1="18.6667" x2="111.87" y2="53.035" gradientUnits="userSpaceOnUse">
<stop stop-color="#194185"/>
<stop offset="1" stop-color="#038AE4"/>
</linearGradient>
<linearGradient id="paint2_linear_603_242" x1="5.40441" y1="18.6667" x2="111.87" y2="53.035" gradientUnits="userSpaceOnUse">
<stop stop-color="#194185"/>
<stop offset="1" stop-color="#038AE4"/>
</linearGradient>
</defs>
</svg>
