<svg width="824" height="766" viewBox="0 0 824 766" fill="none" xmlns="http://www.w3.org/2000/svg">
<path d="M207.982 -50.8858C26.9706 93.0005 -3.09151 356.326 140.793 537.312L399.467 816.459L1056.83 343.982L796.263 16.2934C652.378 -164.67 388.993 -194.75 207.982 -50.8858Z" fill="#E9E9FF"/>
<path d="M689 825C937.528 825 1139 623.528 1139 375C1139 126.472 937.528 -75 689 -75C440.472 -75 239 126.472 239 375C239 623.528 440.472 825 689 825Z" fill="#DCDCFF"/>
<path d="M795.956 779.954C799.763 750.776 770.515 727.803 742.455 718.958C714.374 710.112 682.925 707.934 659.928 689.582C635.631 670.174 623.99 634.923 594.698 624.449C573.416 616.836 550.243 625.219 527.971 628.96C485.453 636.111 440.227 625.351 405.5 599.804C396.477 593.159 387.916 585.457 377.396 581.585C366.634 577.624 354.794 578.064 343.417 579.406C312.804 582.993 281.312 593.885 261.857 617.782C251.932 629.972 245.616 644.913 234.942 656.443C217.688 675.059 191.367 682.298 166.125 685.027C140.882 687.778 115.089 686.919 90.4852 693.191C50.7617 703.313 16.4301 732.754 0.386719 770.47C5.93259 769.876 12.9089 773.506 18.4548 772.912L795.956 779.954Z" fill="#3779D9"/>
<path d="M408.383 371.201V262.368C408.383 212.572 448.766 172.194 498.569 172.194H504.071C553.874 172.194 594.258 212.572 594.258 262.368V371.201" stroke="#FF2CA5" stroke-width="7" stroke-miterlimit="10"/>
<path d="M586.795 371.201H296.121V172.194H498.303C537.917 172.194 586.773 204.298 586.773 243.928V371.201H586.795Z" fill="#DD3887"/>
<path opacity="0.26" d="M536.05 261.114H397.47C382.482 261.114 369.828 249.98 367.914 235.105L351.254 185.749H508.277C533.872 185.749 568.775 206.565 563.67 236.029C561.425 249.077 551.83 260.212 538.075 261.048C537.415 261.092 536.733 261.114 536.05 261.114Z" fill="url(#paint0_linear_417_13550)"/>
<path d="M467.54 97.0053H442.495H436.663H424.625V109.042V118.526V198.137V243.114V263.248C424.625 276.957 435.739 288.091 449.471 288.091C463.182 288.091 474.318 276.979 474.318 263.248V231.672L442.517 210.218V130.584H467.562C474.208 130.584 479.6 125.193 479.6 118.548V109.064C479.578 102.396 474.186 97.0053 467.54 97.0053Z" fill="#3779D9"/>
<path d="M457.743 261.114C457.743 265.933 453.826 269.849 449.007 269.849C444.187 269.849 440.27 265.933 440.27 261.114C440.27 256.295 444.187 252.378 449.007 252.378C453.826 252.4 457.743 256.295 457.743 261.114Z" fill="#1A06FF"/>
<path d="M586.779 320.327H393.004V371.201H586.779V320.327Z" fill="url(#paint1_linear_417_13550)"/>
<path d="M389.062 371.201H203.188V262.368C203.188 212.572 243.571 172.194 293.374 172.194H298.876C348.679 172.194 389.062 212.572 389.062 262.368V371.201Z" fill="#B70060"/>
<path d="M389.083 352.696H104.879V371.223H389.083V352.696Z" fill="#FF2CA5"/>
<path d="M456.687 371.201H412.012V804.048H456.687V371.201Z" fill="#B70060"/>
<path d="M456.687 418.489L412.012 440.493V371.201H456.687V418.489Z" fill="#990058"/>
<path d="M375.522 230.286H218.037H201.553H163.723V352.674H196.14H211.545H382.014V262.368C382.014 250.992 379.704 240.166 375.522 230.286Z" fill="#F3F3F5"/>
<path d="M281.77 230.286H163.723V352.674H281.77V230.286Z" fill="url(#paint2_linear_417_13550)"/>
<path d="M217.13 246.217H178.551V249.605H217.13V246.217Z" fill="#9E9E9E"/>
<path d="M217.13 254.424H178.551V257.813H217.13V254.424Z" fill="#9E9E9E"/>
<path d="M217.13 262.632H178.551V266.021H217.13V262.632Z" fill="#9E9E9E"/>
<path d="M192.746 270.862H178.551V274.25H192.746V270.862Z" fill="#9E9E9E"/>
<path d="M334.725 301.69C348.751 301.69 360.121 290.321 360.121 276.297C360.121 262.273 348.751 250.904 334.725 250.904C320.699 250.904 309.328 262.273 309.328 276.297C309.328 290.321 320.699 301.69 334.725 301.69Z" fill="#D6D6D6"/>
<path d="M350.528 283.096H230.367V352.696H350.528V283.096Z" fill="#EDEDED"/>
<path d="M230.367 283.096L290.447 325.828L350.528 283.096H230.367Z" fill="url(#paint3_linear_417_13550)"/>
<g opacity="0.38">
<path opacity="0.38" d="M291.829 172.194H286.327C278.625 172.194 271.142 173.162 264.012 174.989C303.031 184.913 331.883 220.274 331.883 262.368V371.201H382.038V262.368C382.016 212.572 341.654 172.194 291.829 172.194Z" fill="#606060"/>
</g>
<path d="M298.874 164.493H293.372C250.325 164.493 213.881 191.624 200.809 230.307H217.446C229.858 200.426 259.062 179.918 293.394 179.918H298.896C344.385 179.918 381.38 216.907 381.38 262.39V371.223H396.785V262.39C396.763 208.391 352.858 164.493 298.874 164.493Z" fill="#FF2CA5"/>
<path d="M756.823 825.04C759.684 803.19 737.787 785.983 716.748 779.36C695.731 772.736 672.161 771.108 654.951 757.355C636.751 742.832 628.036 716.427 606.116 708.594C590.183 702.894 572.819 709.166 556.138 711.982C524.315 717.351 490.423 709.276 464.432 690.154C457.676 685.181 451.272 679.416 443.393 676.511C435.339 673.541 426.47 673.871 417.953 674.883C395.043 677.567 371.451 685.731 356.882 703.621C349.444 712.752 344.734 723.931 336.723 732.556C323.805 746.507 304.086 751.92 285.182 753.967C266.278 756.013 246.977 755.375 228.535 760.062C198.781 767.631 173.098 789.68 161.082 817.933C165.219 817.493 170.457 820.222 174.617 819.759L756.823 825.04Z" fill="#3D92F9"/>
<path d="M756.823 825.04C759.684 803.19 737.787 785.983 716.748 779.36C695.731 772.736 672.161 771.108 654.951 757.355C636.751 742.832 628.036 716.427 606.116 708.594C590.183 702.894 572.819 709.166 556.138 711.982C524.315 717.351 490.423 709.276 464.432 690.154C457.676 685.181 451.272 679.416 443.393 676.511C435.339 673.541 426.47 673.871 417.953 674.883C395.043 677.567 371.451 685.731 356.882 703.621C349.444 712.752 344.734 723.931 336.723 732.556C323.805 746.507 304.086 751.92 285.182 753.967C266.278 756.013 246.977 755.375 228.535 760.062C198.781 767.631 173.098 789.68 161.082 817.933C165.219 817.493 170.457 820.222 174.617 819.759L756.823 825.04Z" fill="url(#paint4_linear_417_13550)"/>
<defs>
<linearGradient id="paint0_linear_417_13550" x1="457.716" y1="261.122" x2="457.716" y2="185.767" gradientUnits="userSpaceOnUse">
<stop offset="0.0583" stop-color="white"/>
<stop offset="1" stop-color="white" stop-opacity="0"/>
</linearGradient>
<linearGradient id="paint1_linear_417_13550" x1="489.9" y1="371.21" x2="489.9" y2="320.33" gradientUnits="userSpaceOnUse">
<stop stop-color="#B70060"/>
<stop offset="1" stop-color="#B70060" stop-opacity="0"/>
</linearGradient>
<linearGradient id="paint2_linear_417_13550" x1="163.729" y1="291.491" x2="281.772" y2="291.491" gradientUnits="userSpaceOnUse">
<stop stop-color="white"/>
<stop offset="1" stop-color="white" stop-opacity="0"/>
</linearGradient>
<linearGradient id="paint3_linear_417_13550" x1="230.357" y1="304.463" x2="350.52" y2="304.463" gradientUnits="userSpaceOnUse">
<stop offset="0.3487" stop-color="white"/>
<stop offset="1" stop-color="white" stop-opacity="0"/>
</linearGradient>
<linearGradient id="paint4_linear_417_13550" x1="459.083" y1="674.161" x2="459.083" y2="825.046" gradientUnits="userSpaceOnUse">
<stop stop-color="white" stop-opacity="0.5"/>
<stop offset="0.1456" stop-color="white" stop-opacity="0.4272"/>
<stop offset="1" stop-color="white" stop-opacity="0"/>
</linearGradient>
</defs>
</svg>
